<svg xmlns="http://www.w3.org/2000/svg" xmlns:xlink="http://www.w3.org/1999/xlink" width="794" zoomAndPan="magnify" viewBox="0 0 594.95996 842.24997" height="1123" preserveAspectRatio="xMidYMid meet" version="1.0"><defs><g/><clipPath id="11f46cc3ce"><path d="M 0.28125 0.859375 L 451 0.859375 L 451 436.3125 L 0.28125 436.3125 Z M 0.28125 0.859375 " clip-rule="nonzero"/></clipPath><clipPath id="94d89b315d"><path d="M 28.679688 42.421875 L 422.949219 42.421875 L 422.949219 436.3125 L 28.679688 436.3125 Z M 28.679688 42.421875 " clip-rule="nonzero"/></clipPath><clipPath id="e93d9c5e8e"><path d="M 271 143 L 301.9375 143 L 301.9375 162.941406 L 271 162.941406 Z M 271 143 " clip-rule="nonzero"/></clipPath><clipPath id="649e77ab71"><path d="M 226.425781 225.019531 L 270.902344 225.019531 L 270.902344 260.234375 L 226.425781 260.234375 Z M 226.425781 225.019531 " clip-rule="nonzero"/></clipPath><clipPath id="708fcc9a80"><path d="M 148.078125 215 L 181 215 L 181 235 L 148.078125 235 Z M 148.078125 215 " clip-rule="nonzero"/></clipPath><clipPath id="32ed00986a"><path d="M 180 117.375 L 225 117.375 L 225 154 L 180 154 Z M 180 117.375 " clip-rule="nonzero"/></clipPath><clipPath id="63de34c26e"><rect x="0" width="253" y="0" height="62"/></clipPath><clipPath id="2aa0995d80"><rect x="0" width="452" y="0" height="437"/></clipPath></defs><g transform="matrix(1, 0, 0, 1, 72, 202)"><g clip-path="url(#2aa0995d80)"><g clip-path="url(#11f46cc3ce)"><path fill="#652696" d="M 225.617188 0.933594 L 254.089844 19.035156 L 286.554688 9.042969 L 308.925781 33.910156 L 342.96875 32.765625 L 357.582031 62.554688 L 390.679688 70.347656 L 396.449219 102.847656 L 426.152344 118.996094 L 422.648438 151.796875 L 446.746094 175.101562 L 434.238281 205.773438 L 450.945312 234.511719 L 430.351562 260.777344 L 438.429688 292.8125 L 411.277344 312.722656 L 410.132812 345.683594 L 378.441406 357.765625 L 368.152344 389.203125 L 334.265625 392.558594 L 315.597656 420.140625 L 282.035156 414.523438 L 256.371094 436.207031 L 225.617188 422.027344 L 194.863281 436.207031 L 169.203125 414.523438 L 135.636719 420.140625 L 116.96875 392.558594 L 83.085938 389.203125 L 72.796875 357.765625 L 41.101562 345.683594 L 39.957031 312.722656 L 12.804688 292.8125 L 20.886719 260.777344 L 0.289062 234.511719 L 17 205.773438 L 4.488281 175.101562 L 28.585938 151.796875 L 25.085938 118.996094 L 54.785156 102.847656 L 60.554688 70.347656 L 93.652344 62.554688 L 108.269531 32.765625 L 142.308594 33.910156 L 164.683594 9.042969 L 197.144531 19.035156 Z M 225.617188 0.933594 " fill-opacity="1" fill-rule="evenodd"/></g><g clip-path="url(#94d89b315d)"><path fill="#291407" d="M 422.476562 362.574219 C 422.195312 361.121094 421.265625 359.878906 419.949219 359.199219 C 407.851562 352.972656 395.175781 347.292969 382.226562 342.273438 L 389.675781 304.367188 C 390.925781 297.996094 387.265625 291.558594 381.15625 289.394531 C 378.160156 288.328125 374.792969 287.207031 371.113281 286.042969 C 381.15625 258.203125 386.25 229.070312 386.25 199.367188 L 386.25 91.601562 C 386.25 88.941406 384.09375 86.78125 381.429688 86.78125 L 370.585938 86.78125 C 321.9375 86.78125 274.65625 72.785156 233.851562 46.304688 L 229.339844 43.378906 C 227.746094 42.34375 225.6875 42.34375 224.09375 43.378906 L 219.585938 46.304688 C 178.777344 72.785156 131.496094 86.78125 82.851562 86.78125 L 72.003906 86.78125 C 69.34375 86.78125 67.183594 88.941406 67.183594 91.601562 L 67.183594 199.367188 C 67.183594 228.667969 72.144531 257.425781 81.921875 284.929688 C 77.832031 286.359375 73.765625 287.847656 69.722656 289.402344 C 63.738281 291.707031 60.296875 297.957031 61.535156 304.261719 L 69.003906 342.273438 C 56.054688 347.292969 43.378906 352.972656 31.277344 359.203125 C 29.960938 359.878906 29.03125 361.125 28.75 362.574219 C 28.46875 364.027344 28.875 365.527344 29.84375 366.644531 L 52.175781 392.375 L 42.136719 429.972656 C 41.65625 431.78125 42.265625 433.703125 43.699219 434.90625 C 44.582031 435.648438 45.683594 436.03125 46.796875 436.03125 C 47.484375 436.03125 48.179688 435.882812 48.832031 435.582031 C 71.125 425.1875 94.894531 416.765625 119.472656 410.554688 C 122.054688 409.902344 123.617188 407.285156 122.964844 404.703125 C 122.3125 402.121094 119.6875 400.558594 117.113281 401.210938 C 95.332031 406.714844 74.171875 413.914062 54.066406 422.652344 L 62.144531 392.390625 C 62.558594 390.84375 62.175781 389.195312 61.128906 387.988281 L 41.179688 365.003906 C 50.800781 360.253906 60.753906 355.859375 70.894531 351.878906 L 74.210938 368.753906 C 74.941406 372.472656 77.234375 375.699219 80.507812 377.609375 C 82.542969 378.800781 84.835938 379.40625 87.144531 379.40625 C 88.53125 379.40625 89.921875 379.1875 91.265625 378.742188 C 104.144531 374.484375 117.265625 370.867188 130.582031 367.882812 C 154.980469 395.753906 184.5 417.585938 218.394531 432.765625 L 224.746094 435.613281 C 225.375 435.890625 226.046875 436.03125 226.71875 436.03125 C 227.390625 436.03125 228.0625 435.890625 228.6875 435.613281 L 235.039062 432.765625 C 268.757812 417.667969 298.152344 395.976562 322.480469 368.308594 C 335.167969 371.210938 347.675781 374.679688 359.964844 378.742188 C 363.542969 379.925781 367.464844 379.511719 370.722656 377.609375 C 373.996094 375.699219 376.289062 372.472656 377.019531 368.753906 L 380.335938 351.878906 C 390.476562 355.859375 400.429688 360.253906 410.046875 365.003906 L 390.097656 387.988281 C 389.050781 389.195312 388.671875 390.84375 389.082031 392.390625 L 397.160156 422.652344 C 382.992188 416.496094 368.261719 411.085938 353.242188 406.523438 C 350.695312 405.75 348.003906 407.1875 347.230469 409.738281 C 346.457031 412.285156 347.894531 414.972656 350.441406 415.746094 C 368.351562 421.183594 385.832031 427.855469 402.398438 435.578125 C 403.046875 435.882812 403.742188 436.03125 404.433594 436.03125 C 405.542969 436.03125 406.644531 435.648438 407.53125 434.90625 C 408.964844 433.703125 409.574219 431.777344 409.089844 429.96875 L 399.054688 392.375 L 421.382812 366.644531 C 422.351562 365.527344 422.757812 364.027344 422.476562 362.574219 Z M 76.824219 199.367188 L 76.824219 96.417969 L 82.851562 96.417969 C 133.363281 96.417969 182.457031 81.886719 224.832031 54.390625 L 226.71875 53.164062 L 228.605469 54.390625 C 270.976562 81.886719 320.074219 96.417969 370.585938 96.417969 L 376.613281 96.417969 L 376.613281 199.367188 C 376.613281 228.117188 371.648438 256.308594 361.875 283.238281 C 326.589844 272.9375 271.183594 261.066406 225.613281 261.066406 C 188.65625 261.066406 152.695312 265.4375 118.179688 274.085938 C 109.390625 250.082031 104.933594 224.96875 104.933594 199.367188 L 104.933594 123.691406 C 147.621094 120.421875 189.574219 107.503906 226.71875 86.167969 C 263.859375 107.503906 305.8125 120.421875 348.503906 123.691406 L 348.503906 199.367188 C 348.503906 219.808594 345.625 240.125 339.953125 259.75 C 339.210938 262.304688 340.6875 264.976562 343.242188 265.71875 C 345.800781 266.453125 348.472656 264.984375 349.210938 262.425781 C 355.136719 241.929688 358.140625 220.714844 358.140625 199.367188 L 358.140625 119.191406 C 358.140625 116.640625 356.15625 114.535156 353.613281 114.378906 C 309.9375 111.738281 266.902344 98.621094 229.160156 76.441406 C 227.652344 75.554688 225.785156 75.554688 224.277344 76.441406 C 186.535156 98.621094 143.5 111.738281 99.824219 114.378906 C 97.28125 114.535156 95.296875 116.640625 95.296875 119.191406 L 95.296875 199.367188 C 95.296875 225.800781 99.839844 251.738281 108.8125 276.546875 C 102.847656 278.1875 96.929688 279.957031 91.058594 281.855469 C 81.617188 255.34375 76.824219 227.617188 76.824219 199.367188 Z M 231.097656 423.972656 L 226.71875 425.933594 L 222.335938 423.96875 C 191.378906 410.105469 164.210938 390.480469 141.457031 365.597656 C 148.773438 364.15625 156.148438 362.914062 163.578125 361.859375 C 180.347656 378.332031 199.464844 392.046875 220.449219 402.625 C 222.417969 403.613281 224.570312 404.109375 226.722656 404.109375 C 228.867188 404.109375 231.011719 403.617188 232.964844 402.632812 C 253.832031 392.117188 272.859375 378.496094 289.570312 362.140625 C 296.980469 363.230469 304.339844 364.492188 311.640625 365.960938 C 288.949219 390.675781 261.898438 410.179688 231.097656 423.972656 Z M 175.921875 360.285156 C 192.277344 358.441406 208.855469 357.5 225.613281 357.5 C 243.046875 357.5 260.289062 358.503906 277.28125 360.5 C 262.660156 373.84375 246.335938 385.101562 228.628906 394.027344 C 227.433594 394.628906 225.996094 394.625 224.789062 394.019531 C 206.992188 385.046875 190.597656 373.71875 175.921875 360.285156 Z M 367.5625 366.894531 C 367.292969 368.269531 366.382812 368.984375 365.863281 369.289062 C 365.351562 369.585938 364.296875 370.023438 362.988281 369.59375 C 319.394531 355.171875 273.175781 347.863281 225.613281 347.863281 C 178.054688 347.863281 131.835938 355.171875 88.238281 369.59375 C 86.933594 370.023438 85.878906 369.585938 85.367188 369.289062 C 84.847656 368.984375 83.9375 368.269531 83.667969 366.894531 L 70.992188 302.402344 C 70.65625 300.699219 71.578125 299.015625 73.1875 298.398438 C 87.160156 293.015625 101.441406 288.417969 115.992188 284.59375 C 116.203125 284.558594 116.410156 284.496094 116.621094 284.433594 C 151.558594 275.316406 188.054688 270.703125 225.613281 270.703125 C 279.539062 270.703125 347.664062 287.738281 377.933594 298.476562 C 379.574219 299.058594 380.554688 300.789062 380.21875 302.507812 Z M 367.5625 366.894531 " fill-opacity="1" fill-rule="nonzero"/></g><path fill="#e2a9f1" d="M 257.695312 194.132812 C 252.050781 192.621094 246.554688 190.292969 241.382812 187.574219 C 240.933594 187.335938 240.351562 187.539062 240.210938 188.054688 C 237.777344 197.007812 241.792969 206.574219 249.21875 211.796875 C 249.574219 212.046875 249.914062 211.949219 250.136719 211.710938 C 250.152344 211.699219 250.171875 211.6875 250.191406 211.671875 C 254.960938 207.707031 259.652344 201.183594 258.253906 194.691406 C 258.199219 194.425781 257.953125 194.203125 257.695312 194.132812 " fill-opacity="1" fill-rule="nonzero"/><g clip-path="url(#e93d9c5e8e)"><path fill="#e2a9f1" d="M 302.738281 152.304688 C 297.226562 146.160156 289.921875 142.125 281.507812 143.257812 C 277.933594 143.738281 274.160156 145.195312 271.296875 147.4375 C 270.964844 147.699219 270.960938 148.039062 271.128906 148.308594 C 271.183594 148.457031 271.289062 148.589844 271.457031 148.695312 C 275.15625 150.945312 278.242188 154.328125 281.1875 157.457031 C 282.363281 158.707031 283.515625 159.980469 284.648438 161.269531 C 284.96875 161.632812 285.46875 162.507812 286.015625 162.589844 C 293.050781 163.660156 299.480469 159.128906 302.863281 153.273438 C 303.050781 152.949219 302.980469 152.574219 302.738281 152.304688 " fill-opacity="1" fill-rule="nonzero"/></g><path fill="#1800ad" d="M 291.304688 168.214844 C 289.324219 164.070312 286.285156 160.5 283.238281 157.089844 C 280.542969 154.078125 277.585938 151.316406 274.386719 148.851562 C 269.4375 145.035156 263.71875 142.148438 257.578125 140.886719 C 249.058594 139.136719 240.25 140.953125 232.730469 145.171875 C 230.765625 146.273438 228.878906 147.546875 227.152344 148.996094 C 226.121094 149.859375 225.695312 151.183594 225.273438 152.433594 C 223.527344 157.621094 223.992188 163.382812 225.257812 168.609375 C 226.179688 172.429688 227.574219 176.535156 229.683594 179.871094 C 231.152344 182.191406 233.25 184.058594 235.425781 185.695312 C 239.964844 189.117188 245.3125 191.484375 250.621094 193.4375 C 252.5625 194.152344 254.574219 194.660156 256.511719 195.375 C 262.699219 197.652344 268.042969 202.761719 270.242188 209.027344 C 272.457031 215.320312 271.351562 222.1875 269.222656 228.339844 C 267.332031 233.800781 262.621094 238.007812 257.886719 241.121094 C 257.347656 241.394531 257.394531 242.128906 257.789062 242.460938 C 257.804688 242.472656 257.820312 242.488281 257.835938 242.5 C 257.84375 242.503906 257.851562 242.511719 257.863281 242.519531 C 258.054688 242.65625 258.300781 242.699219 258.5625 242.574219 C 268.480469 239.808594 278.195312 233.992188 285.488281 226.8125 C 291.828125 220.574219 296.324219 212.640625 297.894531 203.847656 C 300.078125 191.621094 296.546875 179.203125 291.304688 168.214844 " fill-opacity="1" fill-rule="nonzero"/><path fill="#e2a9f1" d="M 230.945312 181.570312 C 232.726562 183.78125 235.074219 185.535156 237.429688 187.085938 C 237.652344 187.234375 238.011719 187.238281 238.234375 187.085938 C 246.167969 181.761719 250.644531 171.996094 249.265625 162.589844 C 258.230469 161.214844 266.160156 154.710938 269.554688 146.269531 C 269.707031 145.890625 269.550781 145.597656 269.289062 145.441406 C 269.257812 145.414062 269.226562 145.390625 269.1875 145.367188 C 262.304688 141.457031 254.582031 139.519531 246.675781 140.476562 C 241.207031 141.140625 235.941406 143.152344 231.265625 146.039062 C 229.921875 146.871094 228.628906 147.789062 227.40625 148.785156 C 227.03125 149.09375 226.65625 149.371094 226.410156 149.789062 C 224.695312 152.75 224.195312 156.445312 224.148438 159.800781 C 224.074219 164.710938 225.289062 169.589844 227.019531 174.152344 C 228.023438 176.796875 229.160156 179.355469 230.945312 181.570312 " fill-opacity="1" fill-rule="nonzero"/><g clip-path="url(#649e77ab71)"><path fill="#e2a9f1" d="M 270.222656 233.042969 C 269.882812 232.78125 269.378906 232.761719 269.121094 233.21875 C 269.0625 233.292969 268.949219 233.433594 268.917969 233.472656 C 268.640625 233.804688 268.339844 234.117188 268.039062 234.425781 C 267.082031 235.40625 266.015625 236.265625 264.871094 237.019531 C 261.199219 239.4375 256.890625 240.035156 252.707031 238.664062 C 247.394531 236.929688 243.488281 231.699219 245.277344 226.039062 C 245.5 225.328125 244.695312 224.835938 244.101562 225.136719 C 242 226.199219 240.144531 227.988281 238.9375 229.992188 C 236.417969 234.164062 238.054688 238.710938 240.714844 242.304688 C 233.230469 244.425781 228.042969 251.792969 226.457031 259.214844 C 226.273438 260.0625 227.488281 260.675781 227.917969 259.832031 C 228.8125 258.066406 230.40625 256.601562 231.921875 255.386719 C 233.796875 253.886719 235.992188 252.769531 238.226562 251.925781 C 241.347656 250.746094 244.617188 250.457031 247.839844 249.710938 C 253.28125 248.453125 258.433594 245.75 262.816406 242.320312 C 265.664062 240.097656 268.839844 237.378906 270.476562 234.070312 C 270.792969 233.648438 270.585938 233.238281 270.222656 233.042969 " fill-opacity="1" fill-rule="nonzero"/></g><path fill="#e2a9f1" d="M 193.621094 183.929688 C 199.265625 185.441406 204.761719 187.765625 209.933594 190.484375 C 210.386719 190.722656 210.96875 190.523438 211.105469 190.007812 C 213.539062 181.054688 209.523438 171.484375 202.097656 166.261719 C 201.746094 166.015625 201.402344 166.113281 201.183594 166.347656 C 201.164062 166.363281 201.144531 166.371094 201.125 166.386719 C 196.355469 170.351562 191.664062 176.878906 193.0625 183.371094 C 193.121094 183.636719 193.363281 183.859375 193.621094 183.929688 " fill-opacity="1" fill-rule="nonzero"/><g clip-path="url(#708fcc9a80)"><path fill="#e2a9f1" d="M 148.578125 225.757812 C 154.089844 231.902344 161.394531 235.933594 169.808594 234.804688 C 173.386719 234.320312 177.15625 232.863281 180.019531 230.621094 C 180.351562 230.363281 180.355469 230.023438 180.191406 229.75 C 180.132812 229.605469 180.027344 229.46875 179.859375 229.367188 C 176.160156 227.113281 173.074219 223.730469 170.128906 220.601562 C 168.953125 219.355469 167.800781 218.082031 166.671875 216.792969 C 166.351562 216.429688 165.847656 215.554688 165.300781 215.472656 C 158.269531 214.402344 151.839844 218.933594 148.453125 224.785156 C 148.265625 225.113281 148.335938 225.484375 148.578125 225.757812 " fill-opacity="1" fill-rule="nonzero"/></g><path fill="#1800ad" d="M 160.015625 209.847656 C 161.992188 213.992188 165.03125 217.558594 168.078125 220.972656 C 170.773438 223.984375 173.730469 226.742188 176.929688 229.210938 C 181.878906 233.027344 187.597656 235.914062 193.742188 237.171875 C 202.257812 238.921875 211.070312 237.105469 218.589844 232.886719 C 220.554688 231.785156 222.4375 230.511719 224.164062 229.066406 C 225.195312 228.203125 225.621094 226.875 226.042969 225.625 C 227.789062 220.441406 227.328125 214.679688 226.058594 209.449219 C 225.136719 205.632812 223.746094 201.523438 221.632812 198.1875 C 220.164062 195.867188 218.066406 194.003906 215.890625 192.363281 C 211.351562 188.945312 206.003906 186.578125 200.699219 184.621094 C 198.753906 183.90625 196.742188 183.402344 194.804688 182.6875 C 188.617188 180.40625 183.273438 175.296875 181.074219 169.035156 C 178.859375 162.738281 179.964844 155.875 182.09375 149.722656 C 183.984375 144.261719 188.695312 140.054688 193.429688 136.941406 C 193.96875 136.667969 193.921875 135.933594 193.527344 135.601562 C 193.515625 135.585938 193.496094 135.574219 193.480469 135.5625 C 193.472656 135.554688 193.464844 135.546875 193.457031 135.542969 C 193.265625 135.40625 193.015625 135.363281 192.753906 135.488281 C 182.835938 138.253906 173.121094 144.066406 165.828125 151.246094 C 159.488281 157.488281 154.996094 165.421875 153.421875 174.210938 C 151.238281 186.4375 154.769531 198.859375 160.015625 209.847656 " fill-opacity="1" fill-rule="nonzero"/><path fill="#e2a9f1" d="M 220.375 196.492188 C 218.589844 194.28125 216.242188 192.523438 213.886719 190.972656 C 213.664062 190.824219 213.304688 190.824219 213.082031 190.972656 C 205.148438 196.300781 200.675781 206.066406 202.050781 215.46875 C 193.085938 216.84375 185.15625 223.351562 181.761719 231.789062 C 181.609375 232.171875 181.765625 232.464844 182.027344 232.621094 C 182.0625 232.644531 182.09375 232.671875 182.128906 232.691406 C 189.011719 236.601562 196.738281 238.539062 204.640625 237.582031 C 210.109375 236.917969 215.375 234.90625 220.050781 232.019531 C 221.398438 231.191406 222.6875 230.269531 223.910156 229.273438 C 224.285156 228.96875 224.660156 228.691406 224.90625 228.269531 C 226.625 225.3125 227.121094 221.617188 227.171875 218.257812 C 227.242188 213.347656 226.027344 208.472656 224.296875 203.910156 C 223.292969 201.261719 222.160156 198.703125 220.375 196.492188 " fill-opacity="1" fill-rule="nonzero"/><g clip-path="url(#32ed00986a)"><path fill="#e2a9f1" d="M 181.09375 145.019531 C 181.433594 145.28125 181.9375 145.300781 182.195312 144.839844 C 182.253906 144.769531 182.367188 144.628906 182.402344 144.589844 C 182.679688 144.257812 182.976562 143.941406 183.277344 143.632812 C 184.234375 142.652344 185.300781 141.792969 186.445312 141.042969 C 190.121094 138.625 194.425781 138.027344 198.609375 139.394531 C 203.921875 141.132812 207.828125 146.359375 206.042969 152.019531 C 205.816406 152.730469 206.625 153.222656 207.214844 152.925781 C 209.316406 151.859375 211.171875 150.070312 212.378906 148.066406 C 214.898438 143.898438 213.261719 139.351562 210.601562 135.753906 C 218.089844 133.636719 223.273438 126.269531 224.863281 118.847656 C 225.042969 117.996094 223.828125 117.386719 223.402344 118.230469 C 222.507812 119.996094 220.910156 121.460938 219.398438 122.675781 C 217.523438 124.175781 215.324219 125.289062 213.089844 126.136719 C 209.972656 127.316406 206.699219 127.601562 203.476562 128.347656 C 198.035156 129.609375 192.886719 132.3125 188.5 135.738281 C 185.65625 137.964844 182.476562 140.683594 180.84375 143.988281 C 180.523438 144.410156 180.734375 144.824219 181.09375 145.019531 " fill-opacity="1" fill-rule="nonzero"/></g><g transform="matrix(1, 0, 0, 1, 104, 284)"><g clip-path="url(#63de34c26e)"><g fill="#e2a9f1" fill-opacity="1"><g transform="translate(8.799384, 52.470036)"><g><path d="M 11.953125 -30.21875 C 12.554688 -30.351562 13.179688 -30.554688 13.828125 -30.828125 C 14.472656 -31.109375 14.820312 -31.253906 14.875 -31.265625 C 15.414062 -31.390625 15.976562 -31.03125 16.5625 -30.1875 C 17.15625 -29.351562 17.613281 -28.234375 17.9375 -26.828125 C 18.082031 -26.210938 18.078125 -25.722656 17.921875 -25.359375 C 17.765625 -25.003906 17.457031 -24.773438 17 -24.671875 C 16.75 -24.609375 16.507812 -24.625 16.28125 -24.71875 C 16.050781 -24.8125 15.75 -25.015625 15.375 -25.328125 C 15.289062 -25.398438 15.179688 -25.5 15.046875 -25.625 C 14.492188 -26.125 14 -26.425781 13.5625 -26.53125 C 13 -26.65625 12.34375 -26.6875 11.59375 -26.625 C 10.851562 -26.5625 9.847656 -26.382812 8.578125 -26.09375 C 7.203125 -25.78125 6.300781 -25.515625 5.875 -25.296875 C 5.445312 -25.085938 5.222656 -24.832031 5.203125 -24.53125 C 5.179688 -24.1875 5.253906 -23.507812 5.421875 -22.5 C 5.585938 -21.488281 5.835938 -20.25 6.171875 -18.78125 C 6.359375 -17.96875 7.132812 -17.71875 8.5 -18.03125 C 9.945312 -18.363281 10.847656 -18.675781 11.203125 -18.96875 C 11.566406 -19.269531 11.753906 -19.757812 11.765625 -20.4375 C 11.765625 -20.644531 11.742188 -20.9375 11.703125 -21.3125 C 11.578125 -22.394531 11.882812 -23.023438 12.625 -23.203125 C 13.28125 -23.347656 13.832031 -23.050781 14.28125 -22.3125 C 14.726562 -21.582031 15.179688 -20.222656 15.640625 -18.234375 C 16.160156 -15.992188 16.375 -14.453125 16.28125 -13.609375 C 16.1875 -12.765625 15.785156 -12.257812 15.078125 -12.09375 C 14.410156 -11.945312 13.90625 -12.351562 13.5625 -13.3125 C 13.425781 -13.71875 13.300781 -14.023438 13.1875 -14.234375 C 12.882812 -14.828125 12.507812 -15.175781 12.0625 -15.28125 C 11.613281 -15.382812 10.679688 -15.273438 9.265625 -14.953125 L 8.828125 -14.859375 C 8.035156 -14.671875 7.570312 -14.476562 7.4375 -14.28125 C 7.300781 -14.09375 7.328125 -13.601562 7.515625 -12.8125 C 8.140625 -10.070312 8.566406 -8.328125 8.796875 -7.578125 C 9.023438 -6.835938 9.238281 -6.378906 9.4375 -6.203125 C 9.582031 -6.035156 9.925781 -5.910156 10.46875 -5.828125 C 10.675781 -5.816406 10.828125 -5.796875 10.921875 -5.765625 C 11.347656 -5.671875 11.660156 -5.539062 11.859375 -5.375 C 12.054688 -5.207031 12.195312 -4.945312 12.28125 -4.59375 C 12.445312 -3.90625 12.203125 -3.351562 11.546875 -2.9375 C 10.898438 -2.53125 9.316406 -2.035156 6.796875 -1.453125 C 4.328125 -0.878906 2.691406 -0.640625 1.890625 -0.734375 C 1.097656 -0.828125 0.625 -1.207031 0.46875 -1.875 C 0.332031 -2.5 0.570312 -3.066406 1.1875 -3.578125 C 1.800781 -4.097656 2.140625 -4.414062 2.203125 -4.53125 C 2.304688 -4.8125 2.203125 -5.847656 1.890625 -7.640625 C 1.585938 -9.441406 1.085938 -11.84375 0.390625 -14.84375 C -0.148438 -17.21875 -0.632812 -19.113281 -1.0625 -20.53125 C -1.5 -21.945312 -1.828125 -22.757812 -2.046875 -22.96875 C -2.171875 -23.0625 -2.617188 -23.203125 -3.390625 -23.390625 C -4.160156 -23.585938 -4.617188 -23.992188 -4.765625 -24.609375 C -4.910156 -25.242188 -4.71875 -25.742188 -4.1875 -26.109375 C -3.664062 -26.484375 -2.140625 -26.96875 0.390625 -27.5625 Z M 11.953125 -30.21875 "/></g></g></g><g fill="#e2a9f1" fill-opacity="1"><g transform="translate(31.377703, 47.274849)"><g><path d="M -0.671875 -9.109375 C -0.941406 -10.566406 -0.925781 -11.960938 -0.625 -13.296875 C -0.320312 -14.628906 0.253906 -15.851562 1.109375 -16.96875 C 1.921875 -18.03125 2.890625 -18.894531 4.015625 -19.5625 C 5.148438 -20.238281 6.390625 -20.695312 7.734375 -20.9375 C 10.492188 -21.4375 12.921875 -20.972656 15.015625 -19.546875 C 17.109375 -18.128906 18.398438 -16.0625 18.890625 -13.34375 C 19.148438 -11.90625 19.144531 -10.535156 18.875 -9.234375 C 18.613281 -7.941406 18.109375 -6.738281 17.359375 -5.625 C 16.546875 -4.488281 15.582031 -3.566406 14.46875 -2.859375 C 13.351562 -2.148438 12.085938 -1.664062 10.671875 -1.40625 C 7.828125 -0.894531 5.347656 -1.351562 3.234375 -2.78125 C 1.128906 -4.207031 -0.171875 -6.316406 -0.671875 -9.109375 Z M 10.96875 -4.90625 C 11.832031 -5.0625 12.4375 -5.546875 12.78125 -6.359375 C 13.125 -7.171875 13.175781 -8.226562 12.9375 -9.53125 C 12.507812 -11.925781 11.710938 -13.894531 10.546875 -15.4375 C 9.390625 -16.988281 8.253906 -17.660156 7.140625 -17.453125 C 6.316406 -17.304688 5.75 -16.800781 5.4375 -15.9375 C 5.125 -15.082031 5.09375 -13.957031 5.34375 -12.5625 C 5.757812 -10.25 6.535156 -8.34375 7.671875 -6.84375 C 8.804688 -5.351562 9.90625 -4.707031 10.96875 -4.90625 Z M 10.96875 -4.90625 "/></g></g></g><g fill="#e2a9f1" fill-opacity="1"><g transform="translate(52.465676, 43.476669)"><g><path d="M -0.296875 -9.125 C -0.691406 -12.007812 -0.03125 -14.535156 1.6875 -16.703125 C 3.40625 -18.878906 5.769531 -20.175781 8.78125 -20.59375 C 10.90625 -20.882812 12.738281 -20.609375 14.28125 -19.765625 C 15.820312 -18.929688 16.695312 -17.773438 16.90625 -16.296875 C 17.019531 -15.429688 16.84375 -14.691406 16.375 -14.078125 C 15.90625 -13.460938 15.242188 -13.097656 14.390625 -12.984375 C 13.660156 -12.890625 13.03125 -13.019531 12.5 -13.375 C 11.976562 -13.726562 11.300781 -14.625 10.46875 -16.0625 C 10.226562 -16.519531 9.878906 -16.851562 9.421875 -17.0625 C 8.960938 -17.28125 8.46875 -17.351562 7.9375 -17.28125 C 7.007812 -17.144531 6.34375 -16.664062 5.9375 -15.84375 C 5.539062 -15.03125 5.441406 -13.929688 5.640625 -12.546875 C 5.941406 -10.296875 6.707031 -8.523438 7.9375 -7.234375 C 9.175781 -5.953125 10.597656 -5.421875 12.203125 -5.640625 C 12.972656 -5.742188 13.84375 -6.109375 14.8125 -6.734375 C 15.78125 -7.359375 16.410156 -7.691406 16.703125 -7.734375 C 17.054688 -7.785156 17.367188 -7.710938 17.640625 -7.515625 C 17.921875 -7.328125 18.085938 -7.054688 18.140625 -6.703125 C 18.179688 -6.347656 18.101562 -5.945312 17.90625 -5.5 C 17.707031 -5.0625 17.414062 -4.628906 17.03125 -4.203125 C 16.101562 -3.265625 15.128906 -2.53125 14.109375 -2 C 13.097656 -1.46875 11.984375 -1.117188 10.765625 -0.953125 C 7.867188 -0.554688 5.394531 -1.113281 3.34375 -2.625 C 1.300781 -4.132812 0.0859375 -6.300781 -0.296875 -9.125 Z M -0.296875 -9.125 "/></g></g></g><g fill="#e2a9f1" fill-opacity="1"><g transform="translate(70.95991, 40.873277)"><g><path d="M 15.171875 -2.234375 L 15.09375 -3.140625 C 15.070312 -3.304688 15.039062 -3.429688 15 -3.515625 C 14.957031 -3.597656 14.898438 -3.640625 14.828125 -3.640625 C 14.703125 -3.628906 14.5 -3.453125 14.21875 -3.109375 C 13.9375 -2.765625 13.6875 -2.476562 13.46875 -2.25 C 12.894531 -1.695312 12.210938 -1.253906 11.421875 -0.921875 C 10.640625 -0.585938 9.78125 -0.375 8.84375 -0.28125 C 7.476562 -0.15625 6.269531 -0.347656 5.21875 -0.859375 C 4.175781 -1.378906 3.394531 -2.148438 2.875 -3.171875 C 2.550781 -3.804688 2.289062 -4.550781 2.09375 -5.40625 C 1.90625 -6.269531 1.738281 -7.519531 1.59375 -9.15625 L 1.3125 -12.21875 C 1.238281 -13.070312 1.140625 -13.632812 1.015625 -13.90625 C 0.898438 -14.175781 0.710938 -14.335938 0.453125 -14.390625 C 0.328125 -14.421875 0.109375 -14.46875 -0.203125 -14.53125 C -1.066406 -14.726562 -1.523438 -15.125 -1.578125 -15.71875 C -1.597656 -16 -1.5 -16.28125 -1.28125 -16.5625 C -1.0625 -16.84375 -0.71875 -17.117188 -0.25 -17.390625 C 0.8125 -17.992188 1.867188 -18.488281 2.921875 -18.875 C 3.972656 -19.269531 4.890625 -19.503906 5.671875 -19.578125 C 6.210938 -19.628906 6.578125 -19.539062 6.765625 -19.3125 C 6.953125 -19.09375 7.082031 -18.570312 7.15625 -17.75 C 7.207031 -17.207031 7.269531 -16.117188 7.34375 -14.484375 C 7.414062 -12.859375 7.5 -11.515625 7.59375 -10.453125 C 7.789062 -8.378906 8.164062 -6.929688 8.71875 -6.109375 C 9.28125 -5.296875 10.117188 -4.941406 11.234375 -5.046875 C 12.535156 -5.160156 13.414062 -5.796875 13.875 -6.953125 C 14.34375 -8.109375 14.457031 -10.054688 14.21875 -12.796875 C 14.113281 -13.859375 14.007812 -14.546875 13.90625 -14.859375 C 13.800781 -15.179688 13.644531 -15.421875 13.4375 -15.578125 C 13.3125 -15.628906 13.085938 -15.675781 12.765625 -15.71875 C 11.828125 -15.863281 11.328125 -16.253906 11.265625 -16.890625 C 11.242188 -17.171875 11.335938 -17.453125 11.546875 -17.734375 C 11.765625 -18.015625 12.109375 -18.289062 12.578125 -18.5625 C 13.648438 -19.164062 14.710938 -19.660156 15.765625 -20.046875 C 16.816406 -20.441406 17.734375 -20.675781 18.515625 -20.75 C 19.035156 -20.800781 19.390625 -20.710938 19.578125 -20.484375 C 19.773438 -20.253906 19.910156 -19.742188 19.984375 -18.953125 C 19.992188 -18.796875 20.050781 -17.8125 20.15625 -16 C 20.257812 -14.195312 20.382812 -12.488281 20.53125 -10.875 C 20.6875 -9.1875 20.835938 -8.039062 20.984375 -7.4375 C 21.128906 -6.832031 21.320312 -6.445312 21.5625 -6.28125 C 21.613281 -6.25 21.984375 -6.160156 22.671875 -6.015625 C 23.359375 -5.878906 23.726562 -5.519531 23.78125 -4.9375 C 23.8125 -4.632812 23.710938 -4.347656 23.484375 -4.078125 C 23.265625 -3.804688 22.921875 -3.539062 22.453125 -3.28125 C 21.359375 -2.632812 20.28125 -2.109375 19.21875 -1.703125 C 18.15625 -1.296875 17.265625 -1.054688 16.546875 -0.984375 C 16.066406 -0.941406 15.726562 -1.003906 15.53125 -1.171875 C 15.34375 -1.347656 15.222656 -1.703125 15.171875 -2.234375 Z M 15.171875 -2.234375 "/></g></g></g><g fill="#e2a9f1" fill-opacity="1"><g transform="translate(94.681802, 38.783289)"><g><path d="M 0.453125 -13.359375 C 0.367188 -15.078125 0.867188 -16.488281 1.953125 -17.59375 C 3.046875 -18.707031 4.519531 -19.3125 6.375 -19.40625 C 6.832031 -19.425781 7.347656 -19.40625 7.921875 -19.34375 C 8.492188 -19.289062 8.835938 -19.265625 8.953125 -19.265625 C 9.171875 -19.273438 9.503906 -19.394531 9.953125 -19.625 C 10.398438 -19.851562 10.742188 -19.972656 10.984375 -19.984375 C 11.222656 -19.992188 11.488281 -19.914062 11.78125 -19.75 C 12.082031 -19.582031 12.359375 -19.359375 12.609375 -19.078125 C 13.140625 -18.398438 13.582031 -17.660156 13.9375 -16.859375 C 14.289062 -16.054688 14.484375 -15.335938 14.515625 -14.703125 C 14.535156 -14.210938 14.4375 -13.816406 14.21875 -13.515625 C 14.007812 -13.210938 13.71875 -13.050781 13.34375 -13.03125 C 13.039062 -13.019531 12.757812 -13.085938 12.5 -13.234375 C 12.238281 -13.390625 11.925781 -13.6875 11.5625 -14.125 C 11.457031 -14.238281 11.3125 -14.414062 11.125 -14.65625 C 10.050781 -16 9 -16.644531 7.96875 -16.59375 C 7.53125 -16.570312 7.160156 -16.410156 6.859375 -16.109375 C 6.554688 -15.816406 6.414062 -15.472656 6.4375 -15.078125 C 6.46875 -14.273438 7.53125 -13.453125 9.625 -12.609375 C 10.144531 -12.398438 10.550781 -12.226562 10.84375 -12.09375 C 12.488281 -11.414062 13.679688 -10.632812 14.421875 -9.75 C 15.171875 -8.863281 15.578125 -7.773438 15.640625 -6.484375 C 15.734375 -4.691406 15.125 -3.171875 13.8125 -1.921875 C 12.507812 -0.679688 10.796875 -0.0078125 8.671875 0.09375 C 8.109375 0.125 7.472656 0.09375 6.765625 0 C 6.066406 -0.09375 5.644531 -0.132812 5.5 -0.125 C 5.3125 -0.113281 5.03125 -0.0390625 4.65625 0.09375 C 4.28125 0.238281 4 0.316406 3.8125 0.328125 C 3.539062 0.347656 3.25 0.269531 2.9375 0.09375 C 2.625 -0.0703125 2.359375 -0.3125 2.140625 -0.625 C 1.609375 -1.332031 1.175781 -2.085938 0.84375 -2.890625 C 0.519531 -3.691406 0.347656 -4.40625 0.328125 -5.03125 C 0.296875 -5.59375 0.40625 -6.054688 0.65625 -6.421875 C 0.90625 -6.796875 1.238281 -6.992188 1.65625 -7.015625 C 2.269531 -7.046875 3.023438 -6.4375 3.921875 -5.1875 C 4.179688 -4.8125 4.382812 -4.535156 4.53125 -4.359375 C 4.945312 -3.796875 5.492188 -3.359375 6.171875 -3.046875 C 6.859375 -2.742188 7.5625 -2.609375 8.28125 -2.640625 C 8.9375 -2.671875 9.453125 -2.847656 9.828125 -3.171875 C 10.210938 -3.503906 10.394531 -3.925781 10.375 -4.4375 C 10.332031 -5.320312 9.019531 -6.328125 6.4375 -7.453125 L 6.25 -7.546875 C 3.957031 -8.515625 2.429688 -9.40625 1.671875 -10.21875 C 0.921875 -11.03125 0.515625 -12.078125 0.453125 -13.359375 Z M 0.453125 -13.359375 "/></g></g></g><g fill="#e2a9f1" fill-opacity="1"><g transform="translate(121.305235, 37.518872)"><g><path d="M 25.71875 -17.359375 C 24.519531 -14.921875 23.0625 -11.832031 21.34375 -8.09375 C 18.976562 -2.96875 17.492188 -0.414062 16.890625 -0.4375 C 16.347656 -0.445312 15.507812 -1.5625 14.375 -3.78125 C 13.238281 -6 11.210938 -10.613281 8.296875 -17.625 C 8.171875 -15.769531 8.066406 -14.046875 7.984375 -12.453125 C 7.898438 -10.867188 7.835938 -9.410156 7.796875 -8.078125 C 7.753906 -6.535156 7.765625 -5.429688 7.828125 -4.765625 C 7.898438 -4.109375 8.046875 -3.691406 8.265625 -3.515625 C 8.421875 -3.390625 8.660156 -3.242188 8.984375 -3.078125 C 9.847656 -2.640625 10.269531 -2.085938 10.25 -1.421875 C 10.226562 -0.765625 9.859375 -0.296875 9.140625 -0.015625 C 8.421875 0.265625 7.296875 0.382812 5.765625 0.34375 C 4.085938 0.289062 2.882812 0.109375 2.15625 -0.203125 C 1.4375 -0.515625 1.085938 -1.007812 1.109375 -1.6875 C 1.128906 -2.320312 1.503906 -2.8125 2.234375 -3.15625 C 2.972656 -3.5 3.390625 -3.75 3.484375 -3.90625 C 3.671875 -4.175781 3.914062 -5.894531 4.21875 -9.0625 C 4.519531 -12.238281 4.726562 -15.816406 4.84375 -19.796875 C 4.863281 -20.660156 4.816406 -21.34375 4.703125 -21.84375 C 4.597656 -22.351562 4.414062 -22.707031 4.15625 -22.90625 C 4.019531 -23.019531 3.773438 -23.164062 3.421875 -23.34375 C 2.554688 -23.769531 2.132812 -24.316406 2.15625 -24.984375 C 2.175781 -25.648438 2.570312 -26.125 3.34375 -26.40625 C 4.113281 -26.6875 5.363281 -26.800781 7.09375 -26.75 C 8.019531 -26.726562 8.796875 -26.660156 9.421875 -26.546875 C 10.046875 -26.429688 10.523438 -26.28125 10.859375 -26.09375 C 11.234375 -25.851562 11.816406 -24.769531 12.609375 -22.84375 C 12.816406 -22.300781 12.988281 -21.882812 13.125 -21.59375 L 15.28125 -16.46875 C 16.238281 -14.1875 16.914062 -12.671875 17.3125 -11.921875 C 17.707031 -11.179688 18.003906 -10.804688 18.203125 -10.796875 C 18.660156 -10.785156 19.972656 -13.09375 22.140625 -17.71875 C 22.929688 -19.40625 23.554688 -20.742188 24.015625 -21.734375 C 24.960938 -23.753906 25.796875 -25 26.515625 -25.46875 C 27.234375 -25.9375 28.390625 -26.144531 29.984375 -26.09375 C 31.847656 -26.039062 33.148438 -25.859375 33.890625 -25.546875 C 34.628906 -25.242188 34.988281 -24.742188 34.96875 -24.046875 C 34.945312 -23.378906 34.492188 -22.851562 33.609375 -22.46875 C 33.253906 -22.3125 33 -22.179688 32.84375 -22.078125 C 32.625 -21.898438 32.441406 -21.378906 32.296875 -20.515625 C 32.160156 -19.648438 32.070312 -18.429688 32.03125 -16.859375 C 31.925781 -13.492188 31.898438 -10.5 31.953125 -7.875 C 32.003906 -5.257812 32.097656 -3.707031 32.234375 -3.21875 C 32.296875 -2.957031 32.632812 -2.671875 33.25 -2.359375 L 33.265625 -2.34375 C 33.765625 -2.09375 34.097656 -1.851562 34.265625 -1.625 C 34.441406 -1.394531 34.523438 -1.09375 34.515625 -0.71875 C 34.492188 -0.0078125 34.066406 0.46875 33.234375 0.71875 C 32.410156 0.96875 30.847656 1.0625 28.546875 1 C 26.148438 0.925781 24.546875 0.742188 23.734375 0.453125 C 22.929688 0.160156 22.539062 -0.34375 22.5625 -1.0625 C 22.582031 -1.71875 23.03125 -2.234375 23.90625 -2.609375 C 24.3125 -2.785156 24.597656 -2.9375 24.765625 -3.0625 C 25.097656 -3.3125 25.332031 -3.738281 25.46875 -4.34375 C 25.601562 -4.945312 25.703125 -6.289062 25.765625 -8.375 C 25.785156 -9.125 25.789062 -10.1875 25.78125 -11.5625 C 25.78125 -12.9375 25.757812 -14.867188 25.71875 -17.359375 Z M 25.71875 -17.359375 "/></g></g></g><g fill="#e2a9f1" fill-opacity="1"><g transform="translate(156.188635, 38.725534)"><g><path d="M 13.375 -10.078125 L 13.515625 -11.796875 C 13.617188 -12.972656 13.546875 -13.796875 13.296875 -14.265625 C 13.046875 -14.734375 12.554688 -15.003906 11.828125 -15.078125 C 11.066406 -15.140625 10.175781 -14.757812 9.15625 -13.9375 C 9.0625 -13.863281 8.988281 -13.804688 8.9375 -13.765625 C 8.894531 -13.734375 8.828125 -13.6875 8.734375 -13.625 C 7.359375 -12.53125 6.175781 -12.023438 5.1875 -12.109375 C 4.550781 -12.160156 4.066406 -12.375 3.734375 -12.75 C 3.398438 -13.125 3.257812 -13.613281 3.3125 -14.21875 C 3.425781 -15.5 4.394531 -16.539062 6.21875 -17.34375 C 8.039062 -18.15625 10.226562 -18.453125 12.78125 -18.234375 C 15.332031 -18.003906 17.148438 -17.347656 18.234375 -16.265625 C 19.328125 -15.179688 19.78125 -13.578125 19.59375 -11.453125 C 19.539062 -10.804688 19.445312 -9.988281 19.3125 -9 C 19.1875 -8.007812 19.109375 -7.335938 19.078125 -6.984375 L 18.84375 -4.328125 C 18.800781 -3.796875 18.796875 -3.410156 18.828125 -3.171875 C 18.867188 -2.929688 18.960938 -2.753906 19.109375 -2.640625 C 19.222656 -2.535156 19.597656 -2.347656 20.234375 -2.078125 C 20.867188 -1.816406 21.164062 -1.46875 21.125 -1.03125 C 21.082031 -0.582031 20.890625 -0.175781 20.546875 0.1875 C 20.203125 0.550781 19.679688 0.890625 18.984375 1.203125 C 18.429688 1.472656 17.875 1.664062 17.3125 1.78125 C 16.75 1.90625 16.242188 1.945312 15.796875 1.90625 C 15.128906 1.84375 14.5 1.4375 13.90625 0.6875 C 13.3125 -0.0507812 12.976562 -0.421875 12.90625 -0.421875 C 12.851562 -0.429688 12.675781 -0.34375 12.375 -0.15625 C 10.71875 0.875 8.992188 1.3125 7.203125 1.15625 C 5.265625 0.976562 3.757812 0.320312 2.6875 -0.8125 C 1.613281 -1.957031 1.148438 -3.394531 1.296875 -5.125 C 1.472656 -7.070312 2.351562 -8.519531 3.9375 -9.46875 C 5.519531 -10.425781 7.648438 -10.789062 10.328125 -10.5625 C 10.753906 -10.519531 11.21875 -10.457031 11.71875 -10.375 C 12.226562 -10.300781 12.78125 -10.203125 13.375 -10.078125 Z M 12.859375 -4.59375 L 13.109375 -7.4375 C 12.878906 -7.519531 12.644531 -7.585938 12.40625 -7.640625 C 12.175781 -7.691406 11.914062 -7.726562 11.625 -7.75 C 10.519531 -7.84375 9.644531 -7.660156 9 -7.203125 C 8.363281 -6.753906 8.003906 -6.066406 7.921875 -5.140625 C 7.859375 -4.328125 8.023438 -3.664062 8.421875 -3.15625 C 8.816406 -2.65625 9.398438 -2.375 10.171875 -2.3125 C 11.003906 -2.238281 11.640625 -2.382812 12.078125 -2.75 C 12.523438 -3.125 12.785156 -3.738281 12.859375 -4.59375 Z M 12.859375 -4.59375 "/></g></g></g><g fill="#e2a9f1" fill-opacity="1"><g transform="translate(176.291409, 40.513931)"><g><path d="M 2.75 -13.078125 C 2.96875 -14.785156 3.710938 -16.085938 4.984375 -16.984375 C 6.253906 -17.890625 7.8125 -18.222656 9.65625 -17.984375 C 10.113281 -17.929688 10.617188 -17.828125 11.171875 -17.671875 C 11.722656 -17.515625 12.054688 -17.425781 12.171875 -17.40625 C 12.390625 -17.382812 12.734375 -17.445312 13.203125 -17.59375 C 13.679688 -17.738281 14.039062 -17.796875 14.28125 -17.765625 C 14.519531 -17.734375 14.769531 -17.609375 15.03125 -17.390625 C 15.289062 -17.171875 15.519531 -16.90625 15.71875 -16.59375 C 16.132812 -15.832031 16.441406 -15.023438 16.640625 -14.171875 C 16.847656 -13.328125 16.914062 -12.59375 16.84375 -11.96875 C 16.78125 -11.476562 16.617188 -11.101562 16.359375 -10.84375 C 16.097656 -10.582031 15.78125 -10.476562 15.40625 -10.53125 C 15.101562 -10.5625 14.835938 -10.671875 14.609375 -10.859375 C 14.390625 -11.054688 14.132812 -11.398438 13.84375 -11.890625 C 13.757812 -12.035156 13.644531 -12.242188 13.5 -12.515625 C 12.675781 -14.015625 11.753906 -14.828125 10.734375 -14.953125 C 10.296875 -15.015625 9.898438 -14.921875 9.546875 -14.671875 C 9.203125 -14.429688 9.003906 -14.113281 8.953125 -13.71875 C 8.847656 -12.925781 9.753906 -11.941406 11.671875 -10.765625 C 12.140625 -10.460938 12.507812 -10.21875 12.78125 -10.03125 C 14.28125 -9.082031 15.320312 -8.109375 15.90625 -7.109375 C 16.488281 -6.109375 16.695312 -4.960938 16.53125 -3.671875 C 16.300781 -1.890625 15.4375 -0.5 13.9375 0.5 C 12.4375 1.5 10.632812 1.867188 8.53125 1.609375 C 7.96875 1.535156 7.347656 1.390625 6.671875 1.171875 C 5.992188 0.960938 5.582031 0.847656 5.4375 0.828125 C 5.25 0.804688 4.957031 0.832031 4.5625 0.90625 C 4.164062 0.988281 3.875 1.015625 3.6875 0.984375 C 3.414062 0.953125 3.140625 0.828125 2.859375 0.609375 C 2.585938 0.390625 2.375 0.101562 2.21875 -0.25 C 1.8125 -1.039062 1.519531 -1.851562 1.34375 -2.6875 C 1.164062 -3.53125 1.113281 -4.257812 1.1875 -4.875 C 1.257812 -5.4375 1.445312 -5.878906 1.75 -6.203125 C 2.0625 -6.535156 2.425781 -6.675781 2.84375 -6.625 C 3.457031 -6.550781 4.09375 -5.816406 4.75 -4.421875 C 4.945312 -4.015625 5.101562 -3.707031 5.21875 -3.5 C 5.519531 -2.875 5.984375 -2.347656 6.609375 -1.921875 C 7.234375 -1.503906 7.90625 -1.25 8.625 -1.15625 C 9.269531 -1.070312 9.804688 -1.15625 10.234375 -1.40625 C 10.671875 -1.664062 10.925781 -2.050781 11 -2.5625 C 11.101562 -3.4375 9.988281 -4.65625 7.65625 -6.21875 L 7.453125 -6.359375 C 5.359375 -7.703125 4.007812 -8.835938 3.40625 -9.765625 C 2.8125 -10.703125 2.59375 -11.804688 2.75 -13.078125 Z M 2.75 -13.078125 "/></g></g></g><g fill="#e2a9f1" fill-opacity="1"><g transform="translate(192.447288, 42.566379)"><g><path d="M 4.046875 -5.546875 L 5.640625 -15.0625 L 3.46875 -15.40625 C 3.164062 -15.457031 2.972656 -15.554688 2.890625 -15.703125 C 2.816406 -15.847656 2.835938 -16.253906 2.953125 -16.921875 C 3.035156 -17.492188 3.5625 -18.023438 4.53125 -18.515625 C 4.726562 -18.617188 4.878906 -18.695312 4.984375 -18.75 C 5.316406 -18.9375 5.773438 -19.191406 6.359375 -19.515625 C 9.085938 -20.953125 10.847656 -21.609375 11.640625 -21.484375 C 12.097656 -21.410156 12.382812 -21.300781 12.5 -21.15625 C 12.625 -21.019531 12.632812 -20.632812 12.53125 -20 L 12.5 -19.796875 L 12.046875 -17 L 16.53125 -16.265625 C 16.90625 -16.210938 17.140625 -16.125 17.234375 -16 C 17.328125 -15.875 17.347656 -15.644531 17.296875 -15.3125 C 17.140625 -14.375 16.988281 -13.804688 16.84375 -13.609375 C 16.695312 -13.421875 16.347656 -13.367188 15.796875 -13.453125 L 11.59375 -14.140625 L 10.203125 -5.578125 C 9.960938 -4.054688 9.929688 -3 10.109375 -2.40625 C 10.296875 -1.8125 10.738281 -1.457031 11.4375 -1.34375 C 11.894531 -1.269531 12.488281 -1.328125 13.21875 -1.515625 C 13.957031 -1.710938 14.453125 -1.789062 14.703125 -1.75 C 14.992188 -1.707031 15.226562 -1.5625 15.40625 -1.3125 C 15.582031 -1.070312 15.644531 -0.800781 15.59375 -0.5 C 15.457031 0.34375 14.695312 1.035156 13.3125 1.578125 C 11.925781 2.117188 10.410156 2.253906 8.765625 1.984375 C 6.722656 1.660156 5.332031 0.921875 4.59375 -0.234375 C 3.851562 -1.398438 3.664062 -3.125 4.03125 -5.40625 Z M 4.046875 -5.546875 "/></g></g></g><g fill="#e2a9f1" fill-opacity="1"><g transform="translate(207.151395, 44.881936)"><g><path d="M 18.96875 -5.4375 L 10.15625 -7.1875 C 9.738281 -7.269531 9.472656 -7.28125 9.359375 -7.21875 C 9.242188 -7.15625 9.160156 -7.015625 9.109375 -6.796875 C 8.867188 -5.554688 9.113281 -4.382812 9.84375 -3.28125 C 10.582031 -2.1875 11.613281 -1.507812 12.9375 -1.25 C 13.925781 -1.050781 15.015625 -1.097656 16.203125 -1.390625 C 17.390625 -1.691406 18.066406 -1.828125 18.234375 -1.796875 C 18.585938 -1.722656 18.863281 -1.5625 19.0625 -1.3125 C 19.269531 -1.0625 19.34375 -0.796875 19.28125 -0.515625 C 19.1875 -0.046875 18.976562 0.359375 18.65625 0.703125 C 18.34375 1.054688 17.847656 1.394531 17.171875 1.71875 C 16.160156 2.25 15.070312 2.582031 13.90625 2.71875 C 12.75 2.863281 11.566406 2.816406 10.359375 2.578125 C 7.523438 2.015625 5.40625 0.679688 4 -1.421875 C 2.59375 -3.535156 2.171875 -6.003906 2.734375 -8.828125 C 3.296875 -11.660156 4.664062 -13.816406 6.84375 -15.296875 C 9.03125 -16.785156 11.523438 -17.25 14.328125 -16.6875 C 16.753906 -16.207031 18.613281 -15.125 19.90625 -13.4375 C 21.207031 -11.757812 21.648438 -9.867188 21.234375 -7.765625 C 21.003906 -6.648438 20.738281 -5.945312 20.4375 -5.65625 C 20.144531 -5.375 19.65625 -5.300781 18.96875 -5.4375 Z M 10.3125 -9.890625 L 14.953125 -8.96875 C 15.203125 -8.914062 15.390625 -8.925781 15.515625 -9 C 15.640625 -9.070312 15.722656 -9.234375 15.765625 -9.484375 C 15.984375 -10.554688 15.875 -11.492188 15.4375 -12.296875 C 15 -13.097656 14.332031 -13.585938 13.4375 -13.765625 C 12.632812 -13.921875 11.867188 -13.6875 11.140625 -13.0625 C 10.421875 -12.4375 9.957031 -11.59375 9.75 -10.53125 C 9.707031 -10.332031 9.722656 -10.191406 9.796875 -10.109375 C 9.878906 -10.023438 10.050781 -9.953125 10.3125 -9.890625 Z M 10.3125 -9.890625 "/></g></g></g><g fill="#e2a9f1" fill-opacity="1"><g transform="translate(226.302707, 48.71094)"><g><path d="M 4.859375 -6.46875 C 5.347656 -8.53125 5.644531 -10.109375 5.75 -11.203125 C 5.863281 -12.304688 5.800781 -13.003906 5.5625 -13.296875 C 5.53125 -13.347656 5.210938 -13.550781 4.609375 -13.90625 C 4.003906 -14.269531 3.769531 -14.734375 3.90625 -15.296875 C 3.976562 -15.578125 4.160156 -15.8125 4.453125 -16 C 4.742188 -16.195312 5.15625 -16.351562 5.6875 -16.46875 C 6.882812 -16.695312 8.054688 -16.828125 9.203125 -16.859375 C 10.359375 -16.890625 11.304688 -16.816406 12.046875 -16.640625 C 12.410156 -16.554688 12.671875 -16.414062 12.828125 -16.21875 C 12.992188 -16.03125 13.078125 -15.765625 13.078125 -15.421875 C 13.078125 -15.054688 13.035156 -14.628906 12.953125 -14.140625 C 12.867188 -13.648438 12.898438 -13.390625 13.046875 -13.359375 C 13.234375 -13.304688 13.535156 -13.453125 13.953125 -13.796875 C 14.085938 -13.910156 14.1875 -13.988281 14.25 -14.03125 C 14.976562 -14.601562 15.632812 -14.976562 16.21875 -15.15625 C 16.8125 -15.34375 17.410156 -15.363281 18.015625 -15.21875 C 18.890625 -15.007812 19.519531 -14.523438 19.90625 -13.765625 C 20.289062 -13.015625 20.359375 -12.125 20.109375 -11.09375 C 19.890625 -10.164062 19.445312 -9.453125 18.78125 -8.953125 C 18.125 -8.460938 17.410156 -8.3125 16.640625 -8.5 C 16.003906 -8.65625 15.421875 -9.09375 14.890625 -9.8125 C 14.359375 -10.539062 13.953125 -10.9375 13.671875 -11 C 13.171875 -11.125 12.726562 -10.828125 12.34375 -10.109375 C 11.96875 -9.398438 11.484375 -7.804688 10.890625 -5.328125 C 10.503906 -3.671875 10.28125 -2.597656 10.21875 -2.109375 C 10.15625 -1.617188 10.179688 -1.265625 10.296875 -1.046875 C 10.347656 -0.929688 10.675781 -0.644531 11.28125 -0.1875 C 11.894531 0.257812 12.132812 0.765625 12 1.328125 C 11.851562 1.929688 11.359375 2.265625 10.515625 2.328125 C 9.671875 2.398438 8.195312 2.1875 6.09375 1.6875 C 4.101562 1.207031 2.769531 0.753906 2.09375 0.328125 C 1.414062 -0.0976562 1.148438 -0.613281 1.296875 -1.21875 C 1.429688 -1.769531 1.914062 -2.132812 2.75 -2.3125 C 3.0625 -2.394531 3.285156 -2.457031 3.421875 -2.5 C 3.628906 -2.582031 3.820312 -2.847656 4 -3.296875 C 4.175781 -3.742188 4.460938 -4.800781 4.859375 -6.46875 Z M 4.859375 -6.46875 "/></g></g></g></g></g></g></g></svg>