<svg xmlns="http://www.w3.org/2000/svg" xmlns:xlink="http://www.w3.org/1999/xlink" width="794" zoomAndPan="magnify" viewBox="0 0 594.95996 842.24997" height="1123" preserveAspectRatio="xMidYMid meet" version="1.0"><defs><g/><clipPath id="bf78b2865d"><path d="M 1.207031 0.800781 L 454.179688 0.800781 L 454.179688 438.511719 L 1.207031 438.511719 Z M 1.207031 0.800781 " clip-rule="nonzero"/></clipPath><clipPath id="a3bc839905"><path d="M 29.738281 42.582031 L 425.890625 42.582031 L 425.890625 438.511719 L 29.738281 438.511719 Z M 29.738281 42.582031 " clip-rule="nonzero"/></clipPath><clipPath id="9475b0fe50"><path d="M 167.597656 111.25 L 286.761719 111.25 L 286.761719 265.84375 L 167.597656 265.84375 Z M 167.597656 111.25 " clip-rule="nonzero"/></clipPath><clipPath id="c5b89dfc55"><path d="M 167.597656 111.25 L 286.761719 111.25 L 286.761719 265.84375 L 167.597656 265.84375 Z M 167.597656 111.25 " clip-rule="nonzero"/></clipPath><clipPath id="c6bb1e04ed"><rect x="0" width="277" y="0" height="65"/></clipPath><clipPath id="375b8524dd"><rect x="0" width="455" y="0" height="439"/></clipPath></defs><g transform="matrix(1, 0, 0, 1, 70, 201)"><g clip-path="url(#375b8524dd)"><g clip-path="url(#bf78b2865d)"><path fill="#940b11" d="M 227.617188 0.894531 L 256.226562 19.082031 L 288.84375 9.042969 L 311.324219 34.027344 L 345.527344 32.878906 L 360.210938 62.808594 L 393.46875 70.636719 L 399.265625 103.292969 L 429.109375 119.519531 L 425.589844 152.476562 L 449.800781 175.894531 L 437.234375 206.714844 L 454.023438 235.585938 L 433.328125 261.976562 L 441.449219 294.167969 L 414.164062 314.175781 L 413.015625 347.289062 L 381.167969 359.429688 L 370.832031 391.015625 L 336.785156 394.386719 L 318.027344 422.105469 L 284.304688 416.457031 L 258.519531 438.246094 L 227.617188 423.996094 L 196.71875 438.246094 L 170.933594 416.457031 L 137.207031 422.105469 L 118.453125 394.386719 L 84.402344 391.015625 L 74.066406 359.429688 L 42.222656 347.289062 L 41.070312 314.175781 L 13.789062 294.167969 L 21.910156 261.976562 L 1.214844 235.585938 L 18.003906 206.714844 L 5.433594 175.894531 L 29.644531 152.476562 L 26.128906 119.519531 L 55.96875 103.292969 L 61.765625 70.636719 L 95.023438 62.808594 L 109.707031 32.878906 L 143.914062 34.027344 L 166.390625 9.042969 L 199.007812 19.082031 Z M 227.617188 0.894531 " fill-opacity="1" fill-rule="evenodd"/></g><g clip-path="url(#a3bc839905)"><path fill="#ffffff" d="M 425.417969 364.261719 C 425.132812 362.800781 424.199219 361.554688 422.878906 360.871094 C 410.71875 354.617188 397.984375 348.90625 384.972656 343.863281 L 392.457031 305.777344 C 393.714844 299.375 390.035156 292.910156 383.898438 290.730469 C 380.886719 289.664062 377.503906 288.53125 373.808594 287.363281 C 383.898438 259.394531 389.015625 230.121094 389.015625 200.277344 L 389.015625 91.996094 C 389.015625 89.320312 386.847656 87.152344 384.175781 87.152344 L 373.277344 87.152344 C 324.398438 87.152344 276.890625 73.089844 235.890625 46.484375 L 231.359375 43.542969 C 229.757812 42.5 227.691406 42.5 226.085938 43.542969 L 221.554688 46.484375 C 180.554688 73.089844 133.046875 87.152344 84.171875 87.152344 L 73.269531 87.152344 C 70.597656 87.152344 68.429688 89.320312 68.429688 91.996094 L 68.429688 200.277344 C 68.429688 229.714844 73.414062 258.609375 83.238281 286.246094 C 79.128906 287.683594 75.039062 289.179688 70.980469 290.742188 C 64.964844 293.058594 61.507812 299.335938 62.75 305.667969 L 70.257812 343.863281 C 57.242188 348.90625 44.507812 354.617188 32.347656 360.875 C 31.027344 361.554688 30.09375 362.804688 29.8125 364.261719 C 29.53125 365.722656 29.933594 367.230469 30.910156 368.351562 L 53.347656 394.203125 L 43.261719 431.980469 C 42.777344 433.796875 43.390625 435.730469 44.832031 436.9375 C 45.71875 437.683594 46.824219 438.070312 47.941406 438.070312 C 48.636719 438.070312 49.335938 437.921875 49.988281 437.617188 C 72.386719 427.171875 96.269531 418.710938 120.96875 412.472656 C 123.558594 411.816406 125.128906 409.183594 124.476562 406.59375 C 123.820312 404 121.183594 402.429688 118.59375 403.082031 C 96.710938 408.613281 75.449219 415.84375 55.246094 424.628906 L 63.363281 394.21875 C 63.78125 392.667969 63.398438 391.011719 62.34375 389.796875 L 42.300781 366.703125 C 51.964844 361.929688 61.96875 357.515625 72.15625 353.515625 L 75.488281 370.472656 C 76.222656 374.207031 78.527344 377.449219 81.8125 379.367188 C 83.859375 380.5625 86.164062 381.175781 88.484375 381.175781 C 89.875 381.175781 91.273438 380.953125 92.625 380.507812 C 105.566406 376.226562 118.75 372.597656 132.128906 369.597656 C 156.640625 397.597656 186.300781 419.535156 220.363281 434.789062 L 226.742188 437.648438 C 227.371094 437.929688 228.046875 438.070312 228.722656 438.070312 C 229.398438 438.070312 230.074219 437.929688 230.703125 437.648438 L 237.082031 434.789062 C 270.964844 419.617188 300.496094 397.824219 324.941406 370.023438 C 337.691406 372.941406 350.257812 376.425781 362.605469 380.507812 C 366.203125 381.695312 370.144531 381.28125 373.417969 379.367188 C 376.703125 377.449219 379.007812 374.207031 379.742188 370.472656 L 383.074219 353.515625 C 393.261719 357.515625 403.265625 361.929688 412.929688 366.699219 L 392.882812 389.796875 C 391.832031 391.011719 391.449219 392.667969 391.863281 394.21875 L 399.980469 424.628906 C 385.746094 418.441406 370.945312 413.003906 355.851562 408.421875 C 353.292969 407.644531 350.585938 409.089844 349.8125 411.648438 C 349.035156 414.207031 350.480469 416.910156 353.039062 417.6875 C 371.03125 423.152344 388.59375 429.855469 405.242188 437.617188 C 405.894531 437.921875 406.59375 438.070312 407.285156 438.070312 C 408.402344 438.070312 409.507812 437.683594 410.398438 436.9375 C 411.839844 435.730469 412.449219 433.796875 411.964844 431.980469 L 401.882812 394.203125 L 424.316406 368.351562 C 425.292969 367.230469 425.699219 365.722656 425.417969 364.261719 Z M 78.113281 200.277344 L 78.113281 96.835938 L 84.171875 96.835938 C 134.921875 96.835938 184.25 82.234375 226.828125 54.605469 L 228.722656 53.375 L 230.621094 54.605469 C 273.195312 82.234375 322.523438 96.835938 373.277344 96.835938 L 379.332031 96.835938 L 379.332031 200.277344 C 379.332031 229.164062 374.347656 257.488281 364.527344 284.546875 C 329.074219 274.195312 273.402344 262.269531 227.613281 262.269531 C 190.480469 262.269531 154.347656 266.660156 119.664062 275.351562 C 110.835938 251.230469 106.355469 226 106.355469 200.277344 L 106.355469 124.238281 C 149.25 120.953125 191.402344 107.972656 228.722656 86.539062 C 266.042969 107.972656 308.195312 120.953125 351.089844 124.238281 L 351.089844 200.277344 C 351.089844 220.816406 348.199219 241.226562 342.496094 260.945312 C 341.753906 263.515625 343.234375 266.199219 345.804688 266.941406 C 348.375 267.683594 351.058594 266.203125 351.800781 263.636719 C 357.753906 243.042969 360.773438 221.726562 360.773438 200.277344 L 360.773438 119.714844 C 360.773438 117.15625 358.777344 115.039062 356.222656 114.882812 C 312.339844 112.230469 269.097656 99.046875 231.175781 76.765625 C 229.660156 75.875 227.785156 75.875 226.269531 76.765625 C 188.347656 99.046875 145.105469 112.230469 101.222656 114.882812 C 98.667969 115.039062 96.671875 117.15625 96.671875 119.714844 L 96.671875 200.277344 C 96.671875 226.835938 101.242188 252.894531 110.253906 277.824219 C 104.261719 279.472656 98.316406 281.25 92.417969 283.160156 C 82.929688 256.519531 78.113281 228.660156 78.113281 200.277344 Z M 233.125 425.953125 L 228.722656 427.921875 L 224.320312 425.953125 C 193.214844 412.023438 165.917969 392.304688 143.054688 367.296875 C 150.40625 365.851562 157.820312 364.605469 165.28125 363.542969 C 182.132812 380.09375 201.339844 393.875 222.425781 404.503906 C 224.402344 405.496094 226.566406 405.996094 228.726562 405.996094 C 230.882812 405.996094 233.039062 405.5 235 404.511719 C 255.96875 393.945312 275.085938 380.257812 291.875 363.828125 C 299.320312 364.921875 306.714844 366.191406 314.050781 367.667969 C 291.253906 392.5 264.070312 412.09375 233.125 425.953125 Z M 177.683594 361.964844 C 194.117188 360.109375 210.777344 359.164062 227.613281 359.164062 C 245.128906 359.164062 262.457031 360.171875 279.527344 362.175781 C 264.835938 375.582031 248.433594 386.898438 230.640625 395.863281 C 229.441406 396.46875 228 396.46875 226.785156 395.855469 C 208.902344 386.839844 192.429688 375.457031 177.683594 361.964844 Z M 370.242188 368.605469 C 369.96875 369.984375 369.054688 370.703125 368.53125 371.007812 C 368.015625 371.308594 366.957031 371.746094 365.644531 371.3125 C 321.84375 356.824219 275.402344 349.480469 227.613281 349.480469 C 179.828125 349.480469 133.386719 356.824219 89.582031 371.3125 C 88.273438 371.746094 87.210938 371.308594 86.699219 371.007812 C 86.175781 370.703125 85.261719 369.984375 84.988281 368.605469 L 72.253906 303.800781 C 71.917969 302.09375 72.84375 300.402344 74.460938 299.777344 C 88.5 294.371094 102.847656 289.75 117.46875 285.910156 C 117.679688 285.875 117.890625 285.8125 118.097656 285.746094 C 153.207031 276.585938 189.875 271.953125 227.613281 271.953125 C 281.796875 271.953125 350.246094 289.070312 380.660156 299.859375 C 382.308594 300.441406 383.296875 302.183594 382.957031 303.910156 Z M 370.242188 368.605469 " fill-opacity="1" fill-rule="nonzero"/></g><g clip-path="url(#9475b0fe50)"><path fill="#ffffff" d="M 227.457031 111.324219 C 225.628906 111.445312 223.757812 112.097656 222.289062 113.140625 C 220.65625 114.285156 219.257812 116.691406 218.484375 119.671875 C 217.929688 121.816406 218.0625 122.738281 219.335938 125.589844 C 220.375 127.910156 220.53125 128.460938 220.53125 129.824219 C 220.53125 130.324219 220.507812 130.722656 220.488281 130.722656 C 220.46875 130.722656 220.355469 130.660156 220.242188 130.578125 C 220.128906 130.5 220.011719 130.449219 219.976562 130.476562 C 219.933594 130.5 219.566406 131.167969 219.160156 131.953125 C 218.746094 132.75 218.34375 133.445312 218.261719 133.5 C 218.042969 133.640625 216.558594 133.746094 215.855469 133.675781 C 214.6875 133.558594 214.160156 133.382812 211.890625 132.347656 C 209.105469 131.074219 208.472656 130.871094 205.238281 130.195312 C 201.878906 129.492188 200.78125 129.148438 198.925781 128.222656 C 196.289062 126.90625 194.242188 125.507812 190.050781 122.175781 C 181.355469 115.257812 179.542969 113.886719 178.136719 113.183594 C 177.214844 112.71875 176.609375 112.554688 175.816406 112.554688 C 174.589844 112.554688 173.839844 112.878906 171.246094 114.484375 C 169.488281 115.574219 168.828125 116.171875 168.363281 117.089844 C 167.632812 118.539062 167.667969 120.972656 168.441406 122.519531 C 169.21875 124.066406 170.351562 125.304688 171.230469 125.5625 C 172.109375 125.824219 172.625 125.429688 173.347656 123.945312 C 173.910156 122.808594 176.160156 119.363281 176.414062 119.265625 C 176.699219 119.160156 177.144531 119.160156 177.25 119.269531 C 177.296875 119.320312 178.050781 120.496094 178.910156 121.867188 C 180.941406 125.09375 182.171875 126.765625 183.492188 128.066406 C 184.574219 129.136719 185.550781 129.816406 187.984375 131.203125 C 190.109375 132.410156 190.382812 132.65625 190.523438 133.496094 C 190.566406 133.734375 190.65625 133.972656 190.726562 134.027344 C 190.824219 134.113281 190.855469 134.300781 190.882812 135.082031 C 190.929688 136.25 191.050781 136.726562 191.527344 137.71875 C 191.945312 138.570312 192.316406 139.140625 193.308594 140.417969 C 193.953125 141.25 194.023438 141.3125 197.003906 143.757812 C 201 147.035156 201.84375 147.90625 202.695312 149.601562 C 203.753906 151.730469 204.289062 154.601562 204.816406 160.992188 C 205.414062 168.242188 206.257812 169.773438 211.347656 172.769531 C 212.332031 173.351562 212.429688 173.429688 212.464844 173.632812 C 212.488281 173.757812 212.558594 174.519531 212.621094 175.335938 L 212.742188 176.8125 L 211.550781 179.167969 C 208.875 184.46875 208.171875 187.160156 207.628906 194.210938 C 207.496094 195.921875 207.496094 196.277344 207.621094 196.382812 C 207.671875 196.425781 208.78125 196.6875 210.074219 196.953125 C 211.375 197.222656 212.5 197.46875 212.566406 197.507812 C 212.636719 197.542969 212.902344 197.796875 213.164062 198.070312 L 213.625 198.570312 L 215.53125 198.570312 L 215.777344 198.957031 C 215.917969 199.167969 216.171875 199.589844 216.347656 199.886719 L 216.664062 200.433594 L 216.417969 201.304688 C 216.101562 202.445312 215.890625 203.535156 215.890625 204.0625 C 215.890625 205.011719 216.269531 205.160156 217.65625 204.757812 C 218.054688 204.644531 218.492188 204.546875 218.617188 204.546875 C 218.816406 204.546875 218.84375 204.566406 218.851562 204.738281 C 218.863281 205.058594 218.84375 205.195312 218.660156 205.796875 C 218.421875 206.585938 218.449219 206.742188 218.808594 206.824219 C 219.328125 206.945312 219.328125 206.9375 219.144531 209.59375 C 219.039062 211.253906 219.039062 211.382812 219.144531 211.488281 C 219.257812 211.597656 219.285156 211.597656 219.609375 211.480469 C 219.863281 211.386719 219.996094 211.375 220.09375 211.429688 C 220.507812 211.65625 221.402344 214.164062 221.65625 215.816406 C 221.753906 216.476562 221.675781 216.921875 221.332031 217.679688 C 220.953125 218.515625 220.960938 218.539062 221.929688 219.261719 C 222.542969 219.71875 222.710938 219.953125 222.710938 220.332031 C 222.710938 220.691406 222.542969 220.976562 221.59375 222.257812 C 220.425781 223.839844 220.019531 224.628906 219.695312 225.921875 C 219.203125 227.929688 219.210938 231.320312 219.714844 234.78125 C 220.292969 238.695312 221.71875 244.199219 224.199219 252.074219 L 224.761719 253.867188 L 224.726562 255.132812 L 224.6875 256.398438 L 224.488281 256.5625 C 223.53125 257.347656 223.179688 257.820312 222.90625 258.710938 C 222.730469 259.28125 222.757812 259.84375 222.976562 260.28125 C 223.167969 260.644531 223.785156 261.207031 224.609375 261.769531 C 225.535156 262.402344 226.007812 262.769531 226.824219 263.492188 C 228.328125 264.828125 229.15625 265.328125 230.375 265.652344 C 231.589844 265.96875 233.207031 265.996094 234.816406 265.722656 C 236.265625 265.46875 237.277344 265.082031 237.8125 264.570312 C 238.066406 264.316406 238.109375 264.238281 238.109375 263.976562 C 238.109375 263.15625 236.582031 261.230469 235.113281 260.203125 C 234.773438 259.972656 234.4375 259.695312 234.367188 259.597656 C 234.296875 259.5 234.078125 258.992188 233.890625 258.472656 C 233.472656 257.371094 233.039062 256.441406 232.855469 256.285156 C 232.601562 256.0625 232.378906 256.070312 232.097656 256.292969 C 231.765625 256.554688 231.667969 256.5625 231.546875 256.308594 C 231.261719 255.738281 230.71875 252.742188 230.875 252.609375 C 230.886719 252.59375 231.535156 252.144531 232.316406 251.597656 C 234.085938 250.351562 235.5625 249.390625 236.421875 248.90625 C 237.539062 248.277344 237.996094 247.695312 238.332031 246.484375 C 238.464844 245.988281 238.488281 245.753906 238.488281 244.410156 C 238.480469 243.582031 238.429688 242.230469 238.359375 241.421875 C 237.988281 236.8125 237.265625 229.324219 236.835938 225.605469 C 236.632812 223.855469 236.609375 223.472656 236.582031 220.789062 C 236.519531 215.78125 236.800781 211.699219 237.550781 206.585938 C 238.367188 201.019531 239.957031 193.289062 240.886719 190.375 L 241.132812 189.59375 L 245.082031 186.351562 C 247.261719 184.574219 249.835938 182.464844 250.796875 181.667969 C 251.769531 180.875 252.578125 180.222656 252.597656 180.222656 C 252.621094 180.222656 252.691406 180.796875 252.753906 181.5 C 253.019531 184.488281 253.714844 191.878906 253.746094 192.144531 C 253.78125 192.433594 253.765625 192.453125 253.148438 193.164062 C 252.34375 194.085938 251.859375 194.71875 251.664062 195.125 C 251.472656 195.511719 251.460938 196.109375 251.628906 196.441406 C 251.699219 196.566406 251.746094 196.730469 251.746094 196.804688 C 251.746094 197.011719 251.4375 197.339844 251.023438 197.578125 C 250.566406 197.839844 250.390625 198.03125 250.207031 198.429688 C 249.90625 199.121094 249.949219 199.816406 250.347656 200.632812 C 251.359375 202.691406 256.730469 209.273438 259.636719 212.007812 C 261.632812 213.882812 262.917969 214.925781 263.488281 215.128906 C 264.332031 215.425781 265.058594 215.078125 265.351562 214.242188 C 265.585938 213.589844 265.507812 213.140625 264.183594 207.746094 C 263.417969 204.601562 263.328125 204.148438 263.300781 203.457031 C 263.277344 203.027344 263.300781 202.445312 263.339844 202.15625 C 263.410156 201.644531 263.410156 201.621094 263.25 201.480469 C 263.160156 201.40625 262.828125 201.265625 262.511719 201.171875 L 261.941406 201.003906 L 261.941406 200.210938 C 261.941406 199.441406 261.949219 199.40625 262.105469 199.351562 C 262.1875 199.324219 263.410156 199.175781 264.816406 199.035156 C 266.222656 198.894531 267.441406 198.738281 267.515625 198.699219 C 267.65625 198.628906 267.65625 198.585938 267.609375 196.152344 C 267.488281 189.953125 267.230469 182.660156 267.003906 179.0625 C 266.625 173.085938 265.710938 166.617188 264.894531 164.105469 C 264.066406 161.582031 262.738281 160.0625 260.894531 159.558594 C 259.015625 159.035156 256.597656 159.324219 254.039062 160.367188 C 252.183594 161.125 250.335938 162.179688 247.058594 164.34375 L 244.933594 165.75 L 244.359375 165.675781 C 244.042969 165.632812 243.621094 165.597656 243.417969 165.597656 C 242.082031 165.597656 239.589844 166.425781 238.25 167.320312 C 237.515625 167.804688 237.195312 168.269531 237.089844 169 L 237.03125 169.335938 L 236.882812 169.160156 C 236.574219 168.796875 236.285156 168.753906 235.667969 168.972656 C 235.113281 169.167969 234.902344 169.152344 234.65625 168.910156 C 234.542969 168.796875 234.453125 168.675781 234.453125 168.640625 C 234.457031 168.613281 234.859375 168.324219 235.351562 168 C 237.1875 166.8125 237.890625 165.921875 238.207031 164.386719 C 238.382812 163.542969 238.355469 162.515625 238.136719 161.6875 C 237.714844 160.097656 237.726562 160.140625 237.820312 159.839844 C 237.875 159.632812 238.09375 159.347656 238.53125 158.882812 C 239.261719 158.109375 239.429688 157.804688 239.542969 157.132812 L 239.625 156.648438 L 246.902344 156.640625 C 254.382812 156.625 254.722656 156.617188 255.789062 156.34375 C 256.332031 156.203125 256.878906 155.929688 257.230469 155.632812 C 257.921875 155.042969 258.558594 153.695312 259.199219 151.484375 C 259.460938 150.601562 259.609375 150.191406 259.683594 150.171875 C 260.042969 150.058594 265.378906 149.410156 266.652344 149.320312 C 270.597656 149.039062 272.8125 148.574219 276.8125 147.191406 C 279.046875 146.417969 279.046875 146.417969 280.488281 145.636719 C 281.640625 145.011719 281.839844 144.925781 282.421875 144.820312 C 283.167969 144.679688 284.378906 144.214844 285.101562 143.789062 C 286.171875 143.160156 286.773438 142.28125 287.042969 140.988281 C 287.335938 139.5625 287.351562 137.460938 287.078125 133.183594 C 286.824219 129.128906 286.753906 128.601562 286.375 127.804688 C 286.128906 127.292969 285.980469 127.109375 285.742188 127.046875 C 285.53125 126.984375 285.363281 127.152344 285.082031 127.714844 C 284.828125 128.226562 284.828125 128.226562 284.449219 128.3125 C 283.96875 128.417969 283.714844 128.65625 283.535156 129.175781 C 283.363281 129.664062 283.210938 130.722656 283.105469 132.09375 C 283.019531 133.21875 282.816406 134.421875 282.472656 135.898438 C 281.980469 137.980469 281.183594 140.960938 281.101562 141.050781 C 280.996094 141.15625 279.070312 141.523438 277.164062 141.796875 C 274.195312 142.21875 272.769531 142.21875 270.160156 141.769531 C 269.253906 141.613281 268.144531 141.460938 267.699219 141.417969 C 266.808594 141.339844 264.148438 141.375 262.539062 141.480469 C 261.964844 141.515625 261.089844 141.566406 260.605469 141.585938 C 260.121094 141.601562 258.980469 141.664062 258.074219 141.726562 C 256.175781 141.847656 252.667969 141.867188 251.601562 141.761719 C 250.039062 141.609375 248.933594 141.304688 247.773438 140.722656 C 247.035156 140.355469 246.644531 140.097656 245.347656 139.132812 C 244.148438 138.234375 243.691406 138.023438 242.890625 137.980469 C 242.558594 137.964844 242.164062 137.988281 242.011719 138.023438 C 241.75 138.078125 241.671875 138.058594 240.984375 137.710938 C 239.691406 137.066406 238.917969 136.972656 237.511719 137.304688 C 234.957031 137.894531 234.316406 137.886719 232.855469 137.285156 L 232.378906 137.078125 L 232.335938 136.582031 C 232.265625 135.800781 232.167969 135.589844 231.632812 135.082031 L 231.148438 134.617188 L 231.675781 134.015625 C 232.277344 133.3125 232.144531 133.359375 233.785156 133.289062 C 236.554688 133.171875 237.65625 132.777344 237.796875 131.882812 C 237.863281 131.441406 237.792969 130.851562 237.617188 130.335938 C 237.207031 129.171875 237.207031 128.691406 237.617188 128.296875 C 237.875 128.050781 237.875 128.023438 237.644531 127.917969 L 237.453125 127.835938 L 237.644531 127.644531 C 237.855469 127.417969 237.875 127.195312 237.722656 126.6875 C 237.664062 126.492188 237.636719 126.316406 237.671875 126.28125 C 237.699219 126.253906 237.988281 126.195312 238.320312 126.160156 C 240.027344 125.964844 240.007812 125.515625 238.214844 123.671875 L 237.3125 122.742188 L 237.328125 121.617188 C 237.371094 118.539062 236.835938 116.796875 235.261719 114.917969 C 233.980469 113.378906 232.308594 112.210938 230.621094 111.675781 C 229.613281 111.355469 228.628906 111.242188 227.457031 111.324219 Z M 229.339844 111.535156 C 231.089844 111.796875 232.945312 112.78125 234.421875 114.242188 C 235.265625 115.082031 235.851562 115.882812 236.316406 116.832031 C 236.960938 118.152344 237.136719 119.101562 237.152344 121.316406 L 237.164062 122.84375 L 238.148438 123.855469 C 239.800781 125.542969 239.816406 125.867188 238.21875 126.007812 C 237.898438 126.042969 237.601562 126.082031 237.558594 126.113281 C 237.445312 126.183594 237.453125 126.316406 237.59375 126.886719 L 237.722656 127.363281 L 237.488281 127.554688 C 237.214844 127.785156 237.207031 127.890625 237.441406 127.996094 L 237.617188 128.074219 L 237.445312 128.257812 C 237.054688 128.671875 237.03125 129.050781 237.371094 130.085938 C 237.792969 131.378906 237.777344 131.949219 237.3125 132.398438 C 236.878906 132.820312 236.003906 133.003906 233.839844 133.121094 C 233.03125 133.164062 232.308594 133.21875 232.230469 133.242188 C 232.070312 133.289062 231.007812 134.492188 231.007812 134.617188 C 231.007812 134.667969 231.226562 134.914062 231.492188 135.167969 C 232.027344 135.679688 232.132812 135.90625 232.132812 136.546875 C 232.132812 136.75 232.167969 136.980469 232.207031 137.058594 C 232.25 137.136719 232.496094 137.296875 232.75 137.417969 C 233.910156 137.9375 235.027344 138.027344 236.386719 137.710938 C 239.050781 137.101562 239.480469 137.113281 241.046875 137.929688 C 241.671875 138.253906 241.6875 138.261719 242.046875 138.183594 C 242.742188 138.035156 243.429688 138.121094 244.054688 138.445312 C 244.21875 138.527344 244.738281 138.886719 245.214844 139.238281 C 247.699219 141.085938 248.949219 141.628906 251.429688 141.917969 C 252.519531 142.035156 256.164062 142.023438 258.425781 141.882812 C 263.164062 141.585938 264.410156 141.539062 266.351562 141.574219 C 268.25 141.601562 268.355469 141.609375 269.992188 141.894531 C 273.171875 142.445312 274.546875 142.410156 278.867188 141.683594 C 280.910156 141.339844 281.058594 141.3125 281.214844 141.152344 C 281.289062 141.074219 281.523438 140.3125 281.839844 139.089844 C 282.914062 134.898438 283.117188 133.902344 283.28125 131.941406 C 283.457031 129.832031 283.617188 129.09375 283.996094 128.714844 C 284.152344 128.558594 284.300781 128.472656 284.425781 128.472656 C 284.847656 128.472656 284.945312 128.398438 285.15625 127.917969 C 285.566406 127.027344 285.777344 126.996094 286.191406 127.769531 C 286.585938 128.503906 286.664062 129.09375 286.902344 132.9375 C 287.4375 141.503906 287.070312 142.878906 283.914062 144.1875 C 283.132812 144.511719 283 144.554688 282.289062 144.679688 C 281.789062 144.773438 281.542969 144.878906 280.355469 145.515625 C 279.183594 146.15625 278.761719 146.339844 277.304688 146.851562 C 272.734375 148.457031 270.660156 148.890625 265.984375 149.214844 C 264.8125 149.292969 259.734375 149.960938 259.550781 150.058594 C 259.480469 150.101562 259.402344 150.183594 259.382812 150.25 C 259.363281 150.320312 259.234375 150.769531 259.101562 151.253906 C 258.53125 153.285156 257.921875 154.679688 257.308594 155.316406 C 256.871094 155.769531 256.246094 156.085938 255.4375 156.261719 C 254.484375 156.464844 251.148438 156.535156 244.949219 156.476562 C 240.90625 156.441406 239.640625 156.457031 239.5625 156.519531 C 239.507812 156.5625 239.4375 156.78125 239.410156 157.003906 C 239.339844 157.617188 239.148438 157.953125 238.496094 158.65625 C 237.832031 159.367188 237.617188 159.734375 237.617188 160.15625 C 237.617188 160.308594 237.726562 160.808594 237.863281 161.273438 C 238.289062 162.707031 238.277344 163.882812 237.820312 165.140625 C 237.433594 166.203125 236.738281 166.925781 235.035156 168.03125 C 234.597656 168.316406 234.242188 168.570312 234.242188 168.59375 C 234.242188 168.726562 234.640625 169.140625 234.851562 169.226562 C 235.078125 169.324219 235.140625 169.316406 235.683594 169.140625 C 236.355469 168.914062 236.546875 168.949219 236.84375 169.359375 C 236.941406 169.492188 237.054688 169.605469 237.101562 169.605469 C 237.144531 169.605469 237.199219 169.421875 237.230469 169.160156 C 237.257812 168.921875 237.335938 168.597656 237.398438 168.445312 C 237.679688 167.804688 238.558594 167.191406 240.054688 166.589844 C 241.742188 165.90625 242.972656 165.675781 244.160156 165.816406 C 244.546875 165.855469 244.914062 165.878906 244.984375 165.863281 C 245.046875 165.84375 245.988281 165.246094 247.070312 164.527344 C 251.761719 161.421875 254.109375 160.253906 256.878906 159.65625 C 257.710938 159.480469 259.523438 159.4375 260.28125 159.578125 C 262.074219 159.914062 263.230469 160.863281 264.171875 162.75 C 264.882812 164.15625 265.359375 166.167969 265.90625 169.992188 C 266.800781 176.214844 267.089844 181.042969 267.46875 196.652344 L 267.515625 198.5625 L 267.347656 198.597656 C 267.257812 198.621094 266.054688 198.753906 264.683594 198.894531 C 263.3125 199.035156 262.109375 199.183594 262.011719 199.226562 C 261.851562 199.300781 261.828125 199.359375 261.78125 200.035156 C 261.695312 201.066406 261.703125 201.082031 262.511719 201.339844 L 263.171875 201.558594 L 263.164062 201.945312 C 263.101562 204.203125 263.011719 203.5625 264.058594 207.886719 C 264.945312 211.492188 265.234375 212.78125 265.296875 213.34375 C 265.351562 213.917969 265.183594 214.445312 264.824219 214.769531 C 264.191406 215.339844 263.617188 215.199219 262.328125 214.171875 C 259.996094 212.308594 257.386719 209.601562 254.378906 205.917969 C 252.445312 203.550781 251.003906 201.558594 250.476562 200.539062 C 250.277344 200.144531 250.242188 200 250.214844 199.449219 C 250.195312 198.867188 250.207031 198.789062 250.390625 198.429688 C 250.539062 198.136719 250.671875 197.996094 250.9375 197.832031 C 251.128906 197.714844 251.425781 197.488281 251.585938 197.332031 C 251.917969 197.015625 251.980469 196.730469 251.78125 196.390625 C 251.636719 196.136719 251.65625 195.570312 251.824219 195.195312 C 251.992188 194.824219 252.550781 194.078125 253.125 193.4375 C 253.359375 193.183594 253.632812 192.863281 253.738281 192.722656 L 253.933594 192.46875 L 253.679688 189.769531 C 253.546875 188.285156 253.289062 185.507812 253.113281 183.59375 C 252.9375 181.683594 252.761719 180.085938 252.726562 180.050781 C 252.691406 180.011719 252.570312 180.058594 252.421875 180.15625 C 252.289062 180.25 249.75 182.316406 246.785156 184.75 C 243.816406 187.179688 241.300781 189.214844 241.195312 189.269531 C 241.082031 189.324219 240.992188 189.394531 240.992188 189.429688 C 240.992188 189.460938 240.792969 189.65625 240.554688 189.851562 C 240.308594 190.058594 240.105469 190.246094 240.089844 190.28125 C 240.035156 190.421875 240.246094 190.332031 240.519531 190.097656 C 240.675781 189.964844 240.816406 189.867188 240.828125 189.875 C 240.84375 189.886719 240.679688 190.5 240.46875 191.230469 C 239.613281 194.210938 238.21875 201.074219 237.511719 205.777344 C 236.777344 210.59375 236.492188 214.03125 236.378906 219.066406 C 236.320312 221.632812 236.398438 223.015625 236.773438 226.421875 C 237.644531 234.484375 238.332031 242.332031 238.339844 244.375 C 238.339844 245.847656 238.234375 246.5 237.875 247.257812 C 237.550781 247.925781 237.214844 248.25 236.195312 248.847656 C 235.28125 249.382812 233.328125 250.683594 231.675781 251.851562 L 230.691406 252.554688 L 230.703125 252.996094 C 230.71875 253.621094 231.191406 255.914062 231.378906 256.292969 C 231.578125 256.6875 231.757812 256.730469 232.140625 256.460938 C 232.554688 256.175781 232.722656 256.265625 233.058594 256.925781 C 233.207031 257.214844 233.425781 257.707031 233.539062 258.015625 C 233.65625 258.324219 233.832031 258.796875 233.9375 259.0625 C 234.164062 259.65625 234.402344 259.9375 235.042969 260.351562 C 236.222656 261.109375 237.804688 263.050781 237.945312 263.90625 C 238.074219 264.714844 236.144531 265.496094 233.488281 265.714844 C 231.582031 265.871094 230.113281 265.582031 228.800781 264.808594 C 228.277344 264.5 227.808594 264.125 226.535156 263.015625 C 226.226562 262.753906 225.523438 262.214844 224.960938 261.828125 C 223.808594 261.019531 223.316406 260.589844 223.132812 260.230469 C 222.625 259.226562 223.179688 257.8125 224.539062 256.707031 L 224.839844 256.460938 L 224.898438 255.210938 L 224.953125 253.960938 L 224.574219 252.75 C 221.808594 243.960938 220.417969 238.589844 219.835938 234.464844 C 219.566406 232.585938 219.511719 231.75 219.519531 229.683594 C 219.527344 227.925781 219.546875 227.53125 219.671875 226.835938 C 220.019531 224.9375 220.503906 223.925781 221.972656 222.019531 C 223.140625 220.507812 223.167969 219.972656 222.125 219.207031 C 221.21875 218.539062 221.21875 218.539062 221.253906 218.335938 C 221.277344 218.234375 221.410156 217.882812 221.558594 217.554688 C 221.808594 216.992188 221.832031 216.914062 221.824219 216.289062 C 221.824219 214.832031 220.75 211.632812 220.160156 211.296875 C 219.988281 211.207031 219.933594 211.207031 219.636719 211.3125 C 219.457031 211.382812 219.28125 211.410156 219.246094 211.375 C 219.214844 211.347656 219.238281 210.628906 219.300781 209.785156 C 219.433594 207.800781 219.441406 207.085938 219.300781 206.886719 C 219.238281 206.796875 219.082031 206.71875 218.90625 206.691406 C 218.570312 206.636719 218.570312 206.65625 218.878906 205.617188 C 219.195312 204.527344 219.027344 204.222656 218.21875 204.441406 C 216.847656 204.808594 216.671875 204.84375 216.425781 204.800781 C 216.207031 204.757812 216.164062 204.714844 216.09375 204.457031 C 215.988281 204.046875 216.109375 203.183594 216.46875 201.8125 C 216.621094 201.207031 216.769531 200.632812 216.785156 200.53125 C 216.820312 200.355469 216.691406 200.132812 215.6875 198.507812 C 215.644531 198.4375 215.417969 198.417969 214.695312 198.421875 L 213.761719 198.4375 L 213.191406 197.882812 C 212.683594 197.390625 212.578125 197.3125 212.234375 197.234375 C 212.023438 197.191406 210.914062 196.960938 209.773438 196.722656 L 207.699219 196.285156 L 207.714844 195.617188 C 207.761719 193.859375 208.121094 190.351562 208.4375 188.480469 C 209.007812 185.175781 209.730469 183.109375 211.734375 179.144531 L 212.894531 176.839844 L 212.769531 175.195312 C 212.707031 174.292969 212.628906 173.5 212.613281 173.421875 C 212.59375 173.351562 212.253906 173.113281 211.832031 172.875 C 209.992188 171.824219 208.171875 170.503906 207.460938 169.703125 C 205.992188 168.042969 205.40625 166.082031 205.027344 161.496094 C 204.277344 152.5625 203.636719 150.042969 201.464844 147.476562 C 200.71875 146.59375 200.613281 146.507812 195.359375 142.199219 C 194.214844 141.261719 193.984375 141.03125 193.421875 140.308594 C 191.632812 137.992188 191.113281 136.863281 191.023438 135.054688 C 190.972656 134.148438 190.953125 134.175781 191.367188 134.464844 C 191.464844 134.535156 191.585938 134.589844 191.628906 134.589844 C 191.796875 134.589844 191.691406 134.464844 191.347656 134.246094 C 191.035156 134.054688 190.996094 134 191.03125 133.851562 C 191.066406 133.726562 191.042969 133.675781 190.964844 133.675781 C 190.910156 133.675781 190.859375 133.726562 190.859375 133.78125 C 190.859375 133.839844 190.832031 133.886719 190.796875 133.886719 C 190.769531 133.886719 190.71875 133.734375 190.699219 133.535156 C 190.585938 132.601562 190.261719 132.300781 187.984375 131.011719 C 185.652344 129.699219 184.828125 129.121094 183.695312 128.023438 C 182.25 126.617188 181.242188 125.269531 179.019531 121.738281 C 178.136719 120.332031 177.339844 119.136719 177.25 119.082031 C 177.011719 118.917969 176.335938 119.058594 176.089844 119.320312 C 175.714844 119.714844 173.628906 123.003906 173.207031 123.875 C 172.707031 124.902344 172.285156 125.410156 171.878906 125.464844 C 171.082031 125.585938 170.113281 124.867188 169.179688 123.46875 C 168.257812 122.082031 167.976562 121.085938 168.03125 119.40625 C 168.066406 118.285156 168.1875 117.753906 168.585938 117 C 168.832031 116.527344 169.460938 115.875 170.078125 115.433594 C 170.851562 114.882812 172.953125 113.625 173.671875 113.28125 C 174.550781 112.867188 175.078125 112.726562 175.816406 112.726562 C 176.769531 112.726562 177.609375 113.011719 178.875 113.78125 C 180.082031 114.511719 182.65625 116.492188 190.507812 122.742188 C 193.40625 125.042969 194.980469 126.167969 197.011719 127.363281 C 199.839844 129.03125 201.246094 129.542969 205.289062 130.371094 C 208.253906 130.976562 209.105469 131.25 211.875 132.515625 C 214.195312 133.570312 214.855469 133.78125 216.101562 133.859375 C 216.820312 133.910156 218.019531 133.804688 218.316406 133.664062 C 218.449219 133.601562 218.667969 133.242188 219.210938 132.207031 C 219.597656 131.449219 219.949219 130.789062 219.988281 130.746094 C 220.039062 130.675781 220.101562 130.6875 220.265625 130.808594 C 220.46875 130.949219 220.472656 130.96875 220.433594 131.363281 C 220.40625 131.609375 220.410156 131.777344 220.445312 131.777344 C 220.523438 131.777344 220.601562 131.539062 220.601562 131.265625 C 220.601562 131.027344 220.636719 131.027344 221.023438 131.285156 C 221.332031 131.492188 221.515625 131.554688 221.515625 131.441406 C 221.515625 131.414062 221.332031 131.28125 221.105469 131.144531 L 220.707031 130.894531 L 220.699219 129.84375 C 220.683594 128.390625 220.515625 127.800781 219.414062 125.359375 C 219.140625 124.753906 218.792969 123.910156 218.648438 123.496094 C 218.394531 122.757812 218.394531 122.722656 218.386719 121.6875 C 218.386719 120.683594 218.402344 120.585938 218.652344 119.65625 C 219.484375 116.597656 220.839844 114.320312 222.484375 113.203125 C 223.742188 112.351562 225.488281 111.699219 227.035156 111.507812 C 227.503906 111.445312 228.871094 111.464844 229.339844 111.535156 Z M 229.339844 111.535156 " fill-opacity="1" fill-rule="nonzero"/></g><path fill="#ffffff" d="M 171.914062 119.6875 C 171.570312 119.882812 171.257812 120.078125 171.230469 120.128906 C 171.148438 120.261719 171.160156 120.675781 171.28125 121.414062 C 171.34375 121.789062 171.371094 122.144531 171.351562 122.222656 C 171.289062 122.414062 171.484375 122.398438 171.617188 122.195312 C 171.738281 122.011719 172.722656 119.53125 172.722656 119.410156 C 172.722656 119.269531 172.554688 119.328125 171.914062 119.6875 Z M 172.046875 120.777344 C 171.703125 121.640625 171.5625 121.921875 171.527344 121.824219 C 171.441406 121.585938 171.292969 120.402344 171.335938 120.289062 C 171.378906 120.191406 172.441406 119.523438 172.488281 119.574219 C 172.503906 119.582031 172.300781 120.128906 172.046875 120.777344 Z M 172.046875 120.777344 " fill-opacity="1" fill-rule="nonzero"/><g clip-path="url(#c5b89dfc55)"><path fill="#ffffff" d="M 172.5 119.5625 C 172.3125 120.097656 171.703125 121.628906 171.519531 122.023438 C 171.511719 121.847656 171.484375 121.613281 171.445312 121.386719 C 171.324219 120.648438 171.328125 120.3125 171.367188 120.226562 C 171.425781 120.171875 171.679688 120.011719 171.996094 119.832031 C 172.234375 119.695312 172.398438 119.613281 172.5 119.5625 Z M 190.695312 133.789062 C 190.695312 133.789062 190.691406 133.792969 190.691406 133.792969 C 190.691406 133.792969 190.691406 133.789062 190.695312 133.789062 Z M 190.921875 133.785156 C 190.925781 133.789062 190.925781 133.792969 190.925781 133.792969 C 190.925781 133.792969 190.925781 133.792969 190.921875 133.785156 Z M 234.367188 168.699219 C 234.363281 168.707031 234.359375 168.707031 234.359375 168.707031 L 234.355469 168.707031 C 234.355469 168.707031 234.359375 168.707031 234.367188 168.699219 Z M 227.941406 111.304688 C 227.570312 111.304688 227.21875 111.316406 227.011719 111.34375 C 225.441406 111.539062 223.671875 112.199219 222.390625 113.066406 C 220.699219 114.214844 219.328125 116.539062 218.492188 119.613281 C 218.234375 120.554688 218.21875 120.667969 218.21875 121.6875 L 218.21875 121.695312 C 218.226562 122.734375 218.230469 122.792969 218.488281 123.550781 C 218.640625 123.972656 218.984375 124.820312 219.261719 125.429688 C 220.363281 127.863281 220.519531 128.425781 220.535156 129.847656 L 220.53125 129.847656 L 220.539062 130.828125 C 220.5 130.777344 220.441406 130.730469 220.363281 130.675781 C 220.289062 130.621094 220.210938 130.570312 220.136719 130.546875 C 220.113281 130.542969 220.089844 130.535156 220.058594 130.535156 C 219.964844 130.535156 219.898438 130.585938 219.859375 130.640625 C 219.855469 130.648438 219.851562 130.652344 219.847656 130.65625 C 219.773438 130.753906 219.425781 131.410156 219.0625 132.132812 C 218.511719 133.175781 218.320312 133.46875 218.246094 133.511719 C 218.039062 133.609375 217.207031 133.707031 216.503906 133.707031 C 216.363281 133.707031 216.230469 133.703125 216.113281 133.695312 C 214.898438 133.617188 214.261719 133.417969 211.945312 132.367188 C 209.164062 131.09375 208.300781 130.816406 205.320312 130.210938 C 201.292969 129.382812 199.90625 128.875 197.097656 127.21875 C 195.074219 126.03125 193.507812 124.910156 190.613281 122.613281 C 182.765625 116.367188 180.179688 114.375 178.960938 113.636719 C 177.679688 112.863281 176.8125 112.558594 175.816406 112.558594 C 175.046875 112.558594 174.492188 112.707031 173.601562 113.128906 L 173.597656 113.128906 C 172.871094 113.480469 170.761719 114.742188 169.980469 115.296875 C 169.351562 115.75 168.703125 116.421875 168.441406 116.921875 C 168.023438 117.703125 167.902344 118.265625 167.867188 119.398438 C 167.808594 121.113281 168.097656 122.144531 169.039062 123.558594 L 169.039062 123.5625 C 169.910156 124.863281 170.851562 125.644531 171.703125 125.644531 C 171.769531 125.644531 171.835938 125.640625 171.902344 125.628906 C 172.410156 125.558594 172.867188 124.957031 173.355469 123.949219 C 173.773438 123.082031 175.855469 119.808594 176.210938 119.433594 C 176.339844 119.296875 176.675781 119.179688 176.949219 119.179688 C 177.054688 119.179688 177.121094 119.195312 177.152344 119.214844 C 177.28125 119.351562 178.027344 120.472656 178.878906 121.828125 C 181.101562 125.359375 182.117188 126.722656 183.582031 128.144531 C 184.726562 129.253906 185.5625 129.839844 187.902344 131.15625 C 190.195312 132.453125 190.433594 132.71875 190.535156 133.554688 C 190.550781 133.710938 190.585938 133.863281 190.628906 133.941406 C 190.628906 133.949219 190.683594 134.054688 190.796875 134.054688 C 190.824219 134.054688 190.851562 134.050781 190.871094 134.042969 L 190.875 134.042969 C 190.878906 134.050781 190.882812 134.0625 190.886719 134.070312 C 190.902344 134.101562 190.921875 134.128906 190.945312 134.15625 L 190.941406 134.15625 C 190.894531 134.191406 190.863281 134.242188 190.851562 134.285156 C 190.832031 134.347656 190.832031 134.417969 190.832031 134.492188 C 190.832031 134.597656 190.839844 134.742188 190.847656 134.925781 C 190.851562 134.972656 190.855469 135.011719 190.855469 135.0625 C 190.949219 136.917969 191.492188 138.085938 193.289062 140.410156 C 193.863281 141.148438 194.105469 141.386719 195.253906 142.328125 L 195.378906 142.429688 L 195.496094 142.527344 C 200.519531 146.644531 200.613281 146.730469 201.335938 147.585938 C 203.46875 150.105469 204.109375 152.570312 204.863281 161.511719 C 205.242188 166.101562 205.828125 168.109375 207.335938 169.8125 C 208.066406 170.636719 209.90625 171.96875 211.75 173.019531 C 212.117188 173.226562 212.382812 173.414062 212.457031 173.484375 C 212.476562 173.660156 212.546875 174.382812 212.601562 175.207031 L 212.726562 176.804688 L 211.585938 179.070312 C 209.578125 183.046875 208.847656 185.128906 208.273438 188.453125 C 207.957031 190.332031 207.597656 193.847656 207.546875 195.613281 L 207.535156 196.28125 C 207.53125 196.363281 207.585938 196.433594 207.664062 196.449219 L 209.738281 196.886719 C 210.882812 197.125 211.984375 197.355469 212.203125 197.398438 C 212.496094 197.464844 212.574219 197.511719 213.074219 198 L 213.644531 198.554688 C 213.675781 198.585938 213.71875 198.605469 213.761719 198.605469 L 214.695312 198.589844 C 214.785156 198.589844 214.859375 198.589844 214.933594 198.589844 C 215.34375 198.589844 215.507812 198.605469 215.5625 198.621094 C 216.585938 200.273438 216.636719 200.410156 216.621094 200.5 L 216.617188 200.507812 C 216.605469 200.59375 216.46875 201.140625 216.3125 201.742188 L 216.304688 201.769531 C 215.949219 203.128906 215.816406 204.039062 215.933594 204.496094 L 215.933594 204.5 C 216.015625 204.804688 216.097656 204.90625 216.394531 204.964844 L 216.398438 204.964844 C 216.453125 204.972656 216.511719 204.980469 216.578125 204.980469 C 216.820312 204.980469 217.183594 204.890625 218.261719 204.601562 C 218.417969 204.5625 218.535156 204.542969 218.625 204.542969 C 218.792969 204.542969 218.863281 204.589844 218.863281 204.820312 C 218.863281 204.992188 218.816406 205.234375 218.71875 205.570312 L 218.6875 205.671875 C 218.546875 206.148438 218.457031 206.4375 218.492188 206.601562 C 218.511719 206.691406 218.566406 206.757812 218.640625 206.792969 C 218.664062 206.808594 218.6875 206.816406 218.710938 206.820312 C 218.757812 206.835938 218.8125 206.84375 218.859375 206.851562 L 218.878906 206.855469 L 218.90625 206.859375 L 218.882812 206.855469 C 219.039062 206.882812 219.136719 206.945312 219.164062 206.984375 C 219.261719 207.117188 219.273438 207.738281 219.132812 209.773438 C 219.078125 210.542969 219.050781 211.238281 219.074219 211.382812 C 219.074219 211.386719 219.082031 211.449219 219.125 211.492188 L 219.230469 211.535156 L 219.128906 211.492188 C 219.175781 211.542969 219.238281 211.550781 219.265625 211.554688 C 219.28125 211.554688 219.292969 211.554688 219.308594 211.554688 C 219.410156 211.554688 219.558594 211.519531 219.695312 211.46875 C 219.851562 211.410156 219.914062 211.394531 219.953125 211.394531 C 219.976562 211.394531 220.003906 211.402344 220.078125 211.441406 C 220.582031 211.742188 221.65625 214.835938 221.65625 216.289062 C 221.664062 216.890625 221.648438 216.945312 221.40625 217.484375 C 221.257812 217.8125 221.117188 218.179688 221.09375 218.300781 L 221.089844 218.304688 C 221.035156 218.640625 221.179688 218.714844 222.027344 219.339844 C 222.902344 219.984375 222.976562 220.382812 222.039062 221.65625 C 221.976562 221.742188 221.910156 221.824219 221.839844 221.917969 C 220.359375 223.839844 219.859375 224.875 219.507812 226.804688 C 219.378906 227.515625 219.359375 227.925781 219.351562 229.679688 L 219.351562 229.683594 C 219.34375 231.757812 219.402344 232.601562 219.671875 234.488281 C 220.253906 238.628906 221.652344 244.011719 224.414062 252.800781 L 224.785156 253.980469 L 224.730469 255.203125 L 224.679688 256.378906 L 224.433594 256.578125 C 223.054688 257.699219 222.421875 259.191406 222.984375 260.304688 C 223.1875 260.710938 223.722656 261.164062 224.863281 261.964844 L 224.867188 261.964844 C 225.425781 262.347656 226.121094 262.886719 226.429688 263.140625 C 227.699219 264.25 228.179688 264.632812 228.714844 264.949219 L 228.714844 264.953125 C 229.832031 265.609375 231.054688 265.921875 232.535156 265.921875 C 232.847656 265.921875 233.167969 265.90625 233.503906 265.882812 C 236.027344 265.671875 238.199219 264.929688 238.117188 263.929688 C 238.113281 263.914062 238.113281 263.898438 238.109375 263.882812 C 237.957031 262.957031 236.332031 260.980469 235.132812 260.210938 C 234.515625 259.8125 234.304688 259.554688 234.09375 259.003906 C 234.03125 258.847656 233.949219 258.628906 233.863281 258.40625 C 233.804688 258.242188 233.746094 258.09375 233.695312 257.960938 C 233.578125 257.644531 233.359375 257.144531 233.207031 256.851562 C 233.003906 256.453125 232.8125 256.140625 232.5 256.140625 C 232.34375 256.140625 232.191406 256.222656 232.042969 256.324219 L 232.042969 256.328125 C 231.886719 256.4375 231.800781 256.464844 231.75 256.464844 C 231.710938 256.464844 231.640625 256.445312 231.527344 256.21875 C 231.351562 255.871094 230.882812 253.605469 230.871094 252.992188 L 230.859375 252.636719 L 231.769531 251.984375 C 233.421875 250.820312 235.371094 249.523438 236.28125 248.992188 C 237.3125 248.386719 237.683594 248.042969 238.027344 247.332031 C 238.402344 246.539062 238.507812 245.855469 238.507812 244.375 C 238.5 242.320312 237.808594 234.464844 236.9375 226.402344 C 236.566406 223.003906 236.488281 221.625 236.542969 219.070312 C 236.65625 214.042969 236.945312 210.613281 237.675781 205.800781 C 238.382812 201.101562 239.773438 194.25 240.628906 191.277344 C 240.816406 190.628906 240.972656 190.050781 240.992188 189.917969 C 240.996094 189.917969 241.007812 189.820312 240.945312 189.757812 C 240.941406 189.75 240.9375 189.746094 240.933594 189.742188 L 240.929688 189.742188 C 241.019531 189.660156 241.089844 189.585938 241.117188 189.542969 C 241.117188 189.542969 241.132812 189.527344 241.144531 189.496094 C 241.160156 189.480469 241.207031 189.449219 241.269531 189.417969 L 241.273438 189.417969 C 241.28125 189.414062 241.285156 189.410156 241.289062 189.40625 C 241.464844 189.292969 243.96875 187.273438 246.890625 184.878906 C 249.847656 182.453125 252.363281 180.402344 252.515625 180.296875 C 252.542969 180.277344 252.570312 180.261719 252.59375 180.246094 C 252.65625 180.683594 252.800781 182.027344 252.945312 183.609375 C 253.011719 184.335938 253.097656 185.246094 253.175781 186.109375 C 253.257812 186.992188 253.339844 187.886719 253.410156 188.648438 C 253.449219 189.0625 253.488281 189.46875 253.515625 189.785156 L 253.761719 192.417969 L 253.605469 192.621094 C 253.503906 192.757812 253.234375 193.074219 253.003906 193.324219 L 253 193.328125 C 252.425781 193.96875 251.855469 194.730469 251.671875 195.128906 C 251.492188 195.527344 251.453125 196.160156 251.640625 196.476562 C 251.789062 196.730469 251.761719 196.9375 251.472656 197.214844 C 251.316406 197.359375 251.03125 197.578125 250.851562 197.691406 C 250.558594 197.871094 250.402344 198.035156 250.242188 198.355469 C 250.042969 198.746094 250.027344 198.855469 250.046875 199.457031 C 250.078125 200.023438 250.117188 200.195312 250.324219 200.613281 L 250.328125 200.617188 C 250.863281 201.652344 252.316406 203.65625 254.25 206.023438 C 257.261719 209.710938 259.878906 212.429688 262.226562 214.300781 C 263.011719 214.929688 263.582031 215.269531 264.078125 215.269531 C 264.402344 215.269531 264.675781 215.128906 264.9375 214.894531 C 265.34375 214.527344 265.519531 213.941406 265.460938 213.328125 L 265.460938 213.324219 C 265.394531 212.746094 265.105469 211.449219 264.21875 207.847656 C 264.125 207.453125 264.027344 207.050781 263.949219 206.738281 C 263.882812 206.460938 263.828125 206.242188 263.773438 206.011719 C 263.265625 203.914062 263.273438 203.800781 263.316406 202.476562 C 263.320312 202.316406 263.328125 202.148438 263.332031 201.949219 L 263.339844 201.5625 C 263.339844 201.488281 263.292969 201.425781 263.226562 201.402344 L 262.5625 201.183594 C 261.847656 200.953125 261.867188 201.027344 261.945312 200.046875 C 261.996094 199.382812 262.023438 199.394531 262.074219 199.378906 C 262.214844 199.339844 263.359375 199.199219 264.699219 199.058594 C 266.050781 198.921875 267.257812 198.789062 267.378906 198.761719 C 267.382812 198.761719 267.382812 198.761719 267.382812 198.761719 L 267.550781 198.726562 C 267.628906 198.710938 267.6875 198.640625 267.683594 198.558594 L 267.632812 196.648438 C 267.253906 181.039062 266.964844 176.199219 266.074219 169.96875 C 265.523438 166.144531 265.042969 164.109375 264.320312 162.675781 C 263.359375 160.753906 262.167969 159.761719 260.3125 159.414062 L 260.289062 159.414062 L 260.3125 159.414062 C 259.988281 159.355469 259.492188 159.328125 258.96875 159.328125 C 258.207031 159.328125 257.355469 159.386719 256.84375 159.492188 C 254.042969 160.097656 251.671875 161.277344 246.980469 164.390625 C 245.96875 165.058594 245.097656 165.613281 244.9375 165.703125 C 244.929688 165.703125 244.917969 165.703125 244.902344 165.703125 C 244.769531 165.703125 244.484375 165.683594 244.179688 165.648438 C 243.953125 165.621094 243.726562 165.609375 243.496094 165.609375 C 242.472656 165.609375 241.378906 165.875 239.992188 166.433594 C 238.496094 167.039062 237.554688 167.667969 237.246094 168.378906 L 237.238281 168.402344 L 237.238281 168.394531 C 237.167969 168.570312 237.09375 168.898438 237.0625 169.140625 L 237.0625 169.144531 C 237.054688 169.21875 237.046875 169.28125 237.035156 169.335938 C 237.015625 169.3125 236.996094 169.289062 236.976562 169.261719 C 236.789062 169 236.605469 168.835938 236.296875 168.835938 C 236.113281 168.835938 235.898438 168.894531 235.628906 168.980469 L 235.628906 168.984375 C 235.304688 169.089844 235.179688 169.121094 235.09375 169.121094 C 235.046875 169.121094 235.007812 169.109375 234.917969 169.070312 L 234.914062 169.070312 C 234.78125 169.015625 234.535156 168.777344 234.441406 168.640625 C 234.566406 168.546875 234.820312 168.371094 235.125 168.167969 C 236.835938 167.058594 237.570312 166.308594 237.976562 165.195312 C 238.445312 163.902344 238.460938 162.691406 238.023438 161.226562 C 237.886719 160.757812 237.78125 160.28125 237.78125 160.15625 C 237.78125 159.804688 237.953125 159.484375 238.617188 158.769531 C 239.28125 158.054688 239.496094 157.6875 239.574219 157.027344 C 239.59375 156.859375 239.636719 156.722656 239.664062 156.664062 C 239.816406 156.640625 240.363281 156.625 241.609375 156.625 C 242.414062 156.625 243.503906 156.632812 244.949219 156.644531 C 246.308594 156.65625 247.554688 156.664062 248.644531 156.664062 C 252.496094 156.664062 254.707031 156.585938 255.472656 156.421875 C 256.304688 156.242188 256.964844 155.914062 257.429688 155.433594 C 258.074219 154.757812 258.691406 153.328125 259.261719 151.296875 C 259.394531 150.824219 259.515625 150.386719 259.539062 150.300781 C 259.546875 150.285156 259.585938 150.238281 259.625 150.207031 C 259.976562 150.097656 264.839844 149.457031 265.996094 149.382812 C 270.6875 149.054688 272.777344 148.617188 277.359375 147.007812 C 278.820312 146.492188 279.253906 146.308594 280.433594 145.664062 C 281.625 145.023438 281.847656 144.929688 282.320312 144.84375 C 283.042969 144.714844 283.1875 144.667969 283.976562 144.339844 C 287.257812 142.984375 287.601562 141.464844 287.066406 132.929688 C 286.828125 129.101562 286.753906 128.464844 286.339844 127.691406 C 286.160156 127.359375 285.964844 127.050781 285.695312 127.050781 C 285.402344 127.050781 285.199219 127.425781 285.007812 127.847656 L 285.003906 127.851562 C 284.8125 128.289062 284.765625 128.308594 284.425781 128.308594 C 284.230469 128.308594 284.042969 128.433594 283.878906 128.59375 C 283.449219 129.027344 283.289062 129.84375 283.113281 131.925781 C 282.953125 133.871094 282.753906 134.859375 281.679688 139.050781 C 281.371094 140.238281 281.152344 140.941406 281.085938 141.042969 C 280.984375 141.144531 280.875 141.179688 278.835938 141.519531 C 276.46875 141.917969 275 142.105469 273.632812 142.105469 C 272.507812 142.105469 271.453125 141.980469 270.019531 141.730469 C 268.371094 141.441406 268.257812 141.433594 266.351562 141.40625 C 266.007812 141.398438 265.683594 141.394531 265.355469 141.394531 C 263.851562 141.394531 262.3125 141.472656 258.417969 141.714844 C 257.183594 141.792969 255.535156 141.832031 254.117188 141.832031 C 252.941406 141.832031 251.933594 141.804688 251.449219 141.75 C 249.003906 141.46875 247.78125 140.941406 245.316406 139.105469 C 244.839844 138.753906 244.308594 138.386719 244.132812 138.296875 C 243.679688 138.0625 243.199219 137.945312 242.703125 137.945312 C 242.472656 137.945312 242.242188 137.972656 242.011719 138.019531 C 242.011719 138.019531 242.007812 138.019531 242.007812 138.019531 C 241.890625 138.046875 241.832031 138.058594 241.777344 138.058594 C 241.667969 138.058594 241.570312 138.011719 241.125 137.78125 C 240.269531 137.339844 239.726562 137.117188 238.96875 137.117188 C 238.339844 137.117188 237.566406 137.269531 236.347656 137.550781 C 235.835938 137.667969 235.363281 137.730469 234.910156 137.730469 C 234.191406 137.730469 233.515625 137.578125 232.820312 137.265625 C 232.589844 137.15625 232.398438 137.027344 232.355469 136.976562 C 232.332031 136.933594 232.296875 136.742188 232.296875 136.546875 C 232.296875 135.851562 232.167969 135.585938 231.605469 135.046875 C 231.410156 134.863281 231.257812 134.695312 231.195312 134.613281 L 231.191406 134.613281 C 231.355469 134.355469 232.109375 133.511719 232.285156 133.398438 L 232.28125 133.398438 C 232.40625 133.378906 233.078125 133.328125 233.847656 133.289062 C 235.992188 133.167969 236.9375 132.992188 237.429688 132.515625 C 237.972656 131.988281 237.949219 131.324219 237.527344 130.03125 C 237.191406 129.007812 237.242188 128.714844 237.566406 128.371094 L 237.570312 128.367188 L 237.738281 128.1875 C 237.773438 128.148438 237.789062 128.09375 237.777344 128.039062 C 237.769531 127.988281 237.730469 127.941406 237.683594 127.921875 L 237.507812 127.84375 C 237.484375 127.832031 237.46875 127.824219 237.457031 127.816406 C 237.476562 127.789062 237.519531 127.746094 237.59375 127.683594 L 237.828125 127.492188 C 237.878906 127.449219 237.898438 127.382812 237.882812 127.320312 L 237.753906 126.84375 C 237.65625 126.433594 237.640625 126.300781 237.648438 126.257812 C 237.722656 126.234375 237.953125 126.203125 238.234375 126.171875 C 238.957031 126.109375 239.613281 126.003906 239.566406 125.476562 C 239.535156 125.089844 239.054688 124.539062 238.269531 123.738281 L 237.332031 122.773438 L 237.316406 121.316406 C 237.304688 119.085938 237.125 118.109375 236.464844 116.757812 C 235.992188 115.789062 235.394531 114.972656 234.539062 114.125 C 233.042969 112.644531 231.15625 111.636719 229.363281 111.371094 C 229.074219 111.328125 228.472656 111.304688 227.941406 111.304688 Z M 227.941406 111.304688 " fill-opacity="1" fill-rule="nonzero"/></g><g transform="matrix(1, 0, 0, 1, 86, 285)"><g clip-path="url(#c6bb1e04ed)"><g fill="#ffffff" fill-opacity="1"><g transform="translate(9.473191, 55.01643)"><g><path d="M 14.4375 -30.484375 C 14.625 -30.703125 14.820312 -30.882812 15.03125 -31.03125 C 15.25 -31.175781 15.472656 -31.273438 15.703125 -31.328125 C 16.410156 -31.503906 17.195312 -31.109375 18.0625 -30.140625 C 18.925781 -29.179688 19.539062 -27.988281 19.90625 -26.5625 C 20.050781 -25.957031 20.015625 -25.445312 19.796875 -25.03125 C 19.585938 -24.613281 19.21875 -24.335938 18.6875 -24.203125 C 18.207031 -24.085938 17.507812 -24.316406 16.59375 -24.890625 C 16.4375 -24.992188 16.328125 -25.066406 16.265625 -25.109375 C 14.710938 -26.078125 13.351562 -26.675781 12.1875 -26.90625 C 11.03125 -27.144531 9.796875 -27.097656 8.484375 -26.765625 C 6.398438 -26.234375 4.972656 -25.144531 4.203125 -23.5 C 3.441406 -21.863281 3.382812 -19.765625 4.03125 -17.203125 C 4.957031 -13.523438 6.460938 -10.875 8.546875 -9.25 C 10.640625 -7.625 13.125 -7.175781 16 -7.90625 C 16.914062 -8.132812 17.71875 -8.472656 18.40625 -8.921875 C 19.101562 -9.378906 19.660156 -9.9375 20.078125 -10.59375 C 20.234375 -10.84375 20.425781 -11.207031 20.65625 -11.6875 C 21.050781 -12.507812 21.445312 -12.972656 21.84375 -13.078125 C 22.300781 -13.191406 22.71875 -13.078125 23.09375 -12.734375 C 23.46875 -12.390625 23.742188 -11.867188 23.921875 -11.171875 C 24.179688 -10.160156 24.207031 -9.238281 24 -8.40625 C 23.789062 -7.582031 23.421875 -7.101562 22.890625 -6.96875 C 22.671875 -6.925781 22.445312 -6.894531 22.21875 -6.875 C 22 -6.851562 21.769531 -6.859375 21.53125 -6.890625 C 20.53125 -5.898438 19.46875 -5.082031 18.34375 -4.4375 C 17.226562 -3.800781 16.050781 -3.328125 14.8125 -3.015625 C 13.28125 -2.628906 11.753906 -2.460938 10.234375 -2.515625 C 8.722656 -2.578125 7.34375 -2.847656 6.09375 -3.328125 C 4.019531 -4.128906 2.242188 -5.421875 0.765625 -7.203125 C -0.703125 -8.992188 -1.75 -11.125 -2.375 -13.59375 C -2.757812 -15.125 -2.90625 -16.628906 -2.8125 -18.109375 C -2.726562 -19.597656 -2.390625 -21.023438 -1.796875 -22.390625 C -1.015625 -24.273438 0.238281 -25.914062 1.96875 -27.3125 C 3.707031 -28.707031 5.726562 -29.691406 8.03125 -30.265625 C 9.050781 -30.523438 10.09375 -30.671875 11.15625 -30.703125 C 12.21875 -30.734375 13.3125 -30.660156 14.4375 -30.484375 Z M 14.4375 -30.484375 "/></g></g></g><g fill="#ffffff" fill-opacity="1"><g transform="translate(34.640226, 48.694277)"><g><path d="M -0.84375 -9.125 C -1.144531 -10.59375 -1.148438 -12 -0.859375 -13.34375 C -0.578125 -14.6875 -0.0234375 -15.925781 0.796875 -17.0625 C 1.597656 -18.144531 2.554688 -19.035156 3.671875 -19.734375 C 4.796875 -20.429688 6.039062 -20.914062 7.40625 -21.1875 C 10.164062 -21.738281 12.609375 -21.316406 14.734375 -19.921875 C 16.859375 -18.535156 18.191406 -16.476562 18.734375 -13.75 C 19.015625 -12.320312 19.035156 -10.953125 18.796875 -9.640625 C 18.554688 -8.328125 18.0625 -7.109375 17.3125 -5.984375 C 16.53125 -4.816406 15.582031 -3.867188 14.46875 -3.140625 C 13.363281 -2.410156 12.109375 -1.90625 10.703125 -1.625 C 7.847656 -1.050781 5.347656 -1.457031 3.203125 -2.84375 C 1.054688 -4.238281 -0.289062 -6.332031 -0.84375 -9.125 Z M 10.921875 -5.109375 C 11.796875 -5.285156 12.394531 -5.785156 12.71875 -6.609375 C 13.050781 -7.441406 13.085938 -8.507812 12.828125 -9.8125 C 12.347656 -12.226562 11.507812 -14.195312 10.3125 -15.71875 C 9.113281 -17.238281 7.953125 -17.890625 6.828125 -17.671875 C 6.015625 -17.503906 5.457031 -16.988281 5.15625 -16.125 C 4.863281 -15.257812 4.859375 -14.125 5.140625 -12.71875 C 5.609375 -10.394531 6.421875 -8.492188 7.578125 -7.015625 C 8.742188 -5.535156 9.859375 -4.898438 10.921875 -5.109375 Z M 10.921875 -5.109375 "/></g></g></g><g fill="#ffffff" fill-opacity="1"><g transform="translate(55.521689, 44.284633)"><g><path d="M 6.703125 -18.84375 L 6.859375 -17.71875 C 6.878906 -17.550781 6.910156 -17.421875 6.953125 -17.328125 C 7.003906 -17.242188 7.066406 -17.207031 7.140625 -17.21875 C 7.335938 -17.238281 7.582031 -17.5 7.875 -18 C 8.09375 -18.34375 8.273438 -18.613281 8.421875 -18.8125 C 8.867188 -19.40625 9.421875 -19.882812 10.078125 -20.25 C 10.742188 -20.613281 11.507812 -20.851562 12.375 -20.96875 C 13.226562 -21.09375 14.023438 -21.066406 14.765625 -20.890625 C 15.503906 -20.722656 16.253906 -20.40625 17.015625 -19.9375 C 17.335938 -19.75 17.660156 -19.476562 17.984375 -19.125 C 18.316406 -18.78125 18.535156 -18.613281 18.640625 -18.625 C 18.804688 -18.644531 19.039062 -18.847656 19.34375 -19.234375 C 19.46875 -19.398438 19.566406 -19.53125 19.640625 -19.625 C 20.347656 -20.519531 21.09375 -21.210938 21.875 -21.703125 C 22.65625 -22.203125 23.523438 -22.515625 24.484375 -22.640625 C 25.460938 -22.773438 26.394531 -22.71875 27.28125 -22.46875 C 28.175781 -22.226562 28.929688 -21.820312 29.546875 -21.25 C 30.179688 -20.65625 30.6875 -19.875 31.0625 -18.90625 C 31.4375 -17.9375 31.75 -16.554688 32 -14.765625 L 32.390625 -11.96875 C 32.585938 -10.5625 32.742188 -9.59375 32.859375 -9.0625 C 32.984375 -8.53125 33.117188 -8.191406 33.265625 -8.046875 C 33.335938 -7.972656 33.695312 -7.816406 34.34375 -7.578125 C 34.988281 -7.335938 35.347656 -6.953125 35.421875 -6.421875 C 35.503906 -5.796875 35.1875 -5.300781 34.46875 -4.9375 C 33.757812 -4.570312 32.40625 -4.25 30.40625 -3.96875 C 28.382812 -3.695312 26.976562 -3.640625 26.1875 -3.796875 C 25.394531 -3.953125 24.957031 -4.34375 24.875 -4.96875 C 24.789062 -5.53125 25.109375 -6.039062 25.828125 -6.5 C 26.097656 -6.675781 26.285156 -6.816406 26.390625 -6.921875 C 26.546875 -7.085938 26.617188 -7.429688 26.609375 -7.953125 C 26.609375 -8.484375 26.503906 -9.515625 26.296875 -11.046875 C 25.878906 -14.023438 25.40625 -15.914062 24.875 -16.71875 C 24.351562 -17.519531 23.5625 -17.847656 22.5 -17.703125 C 21.414062 -17.554688 20.675781 -16.9375 20.28125 -15.84375 C 19.894531 -14.757812 19.847656 -13.175781 20.140625 -11.09375 C 20.359375 -9.519531 20.539062 -8.390625 20.6875 -7.703125 C 20.84375 -7.015625 21 -6.570312 21.15625 -6.375 C 21.238281 -6.300781 21.601562 -6.144531 22.25 -5.90625 C 22.90625 -5.664062 23.269531 -5.28125 23.34375 -4.75 C 23.425781 -4.125 23.097656 -3.628906 22.359375 -3.265625 C 21.628906 -2.898438 20.265625 -2.578125 18.265625 -2.296875 C 16.273438 -2.023438 14.878906 -1.96875 14.078125 -2.125 C 13.285156 -2.28125 12.847656 -2.671875 12.765625 -3.296875 C 12.679688 -3.859375 12.992188 -4.367188 13.703125 -4.828125 C 13.960938 -4.992188 14.144531 -5.132812 14.25 -5.25 C 14.40625 -5.4375 14.484375 -5.8125 14.484375 -6.375 C 14.492188 -6.945312 14.398438 -7.945312 14.203125 -9.375 C 13.796875 -12.3125 13.328125 -14.191406 12.796875 -15.015625 C 12.265625 -15.835938 11.453125 -16.175781 10.359375 -16.03125 C 9.265625 -15.882812 8.523438 -15.25 8.140625 -14.125 C 7.765625 -13 7.734375 -11.304688 8.046875 -9.046875 C 8.242188 -7.609375 8.414062 -6.566406 8.5625 -5.921875 C 8.71875 -5.273438 8.867188 -4.875 9.015625 -4.71875 C 9.097656 -4.632812 9.457031 -4.46875 10.09375 -4.21875 C 10.726562 -3.976562 11.082031 -3.59375 11.15625 -3.0625 C 11.238281 -2.4375 10.921875 -1.941406 10.203125 -1.578125 C 9.484375 -1.210938 8.125 -0.894531 6.125 -0.625 C 4.132812 -0.34375 2.738281 -0.28125 1.9375 -0.4375 C 1.132812 -0.59375 0.691406 -0.984375 0.609375 -1.609375 C 0.523438 -2.171875 0.84375 -2.679688 1.5625 -3.140625 C 1.832031 -3.316406 2.015625 -3.460938 2.109375 -3.578125 C 2.273438 -3.742188 2.351562 -4.117188 2.34375 -4.703125 C 2.34375 -5.285156 2.195312 -6.632812 1.90625 -8.75 C 1.59375 -11.039062 1.335938 -12.535156 1.140625 -13.234375 C 0.953125 -13.941406 0.734375 -14.359375 0.484375 -14.484375 C 0.421875 -14.523438 0.046875 -14.601562 -0.640625 -14.71875 C -1.335938 -14.832031 -1.726562 -15.179688 -1.8125 -15.765625 C -1.851562 -16.046875 -1.769531 -16.332031 -1.5625 -16.625 C -1.351562 -16.925781 -1.015625 -17.222656 -0.546875 -17.515625 C 0.472656 -18.171875 1.503906 -18.71875 2.546875 -19.15625 C 3.597656 -19.601562 4.507812 -19.882812 5.28125 -20 C 5.757812 -20.0625 6.097656 -20.007812 6.296875 -19.84375 C 6.492188 -19.6875 6.628906 -19.351562 6.703125 -18.84375 Z M 6.703125 -18.84375 "/></g></g></g><g fill="#ffffff" fill-opacity="1"><g transform="translate(90.508336, 39.666592)"><g><path d="M 16.859375 -10.4375 L 7.84375 -9.71875 C 7.425781 -9.6875 7.164062 -9.625 7.0625 -9.53125 C 6.957031 -9.445312 6.914062 -9.289062 6.9375 -9.0625 C 7.039062 -7.800781 7.597656 -6.738281 8.609375 -5.875 C 9.628906 -5.007812 10.8125 -4.628906 12.15625 -4.734375 C 13.164062 -4.816406 14.207031 -5.164062 15.28125 -5.78125 C 16.351562 -6.394531 16.976562 -6.707031 17.15625 -6.71875 C 17.5 -6.75 17.800781 -6.671875 18.0625 -6.484375 C 18.320312 -6.296875 18.460938 -6.054688 18.484375 -5.765625 C 18.523438 -5.285156 18.4375 -4.835938 18.21875 -4.421875 C 18.007812 -4.003906 17.628906 -3.535156 17.078125 -3.015625 C 16.242188 -2.242188 15.28125 -1.628906 14.1875 -1.171875 C 13.101562 -0.710938 11.945312 -0.429688 10.71875 -0.328125 C 7.832031 -0.0976562 5.414062 -0.8125 3.46875 -2.46875 C 1.53125 -4.132812 0.445312 -6.398438 0.21875 -9.265625 C -0.0078125 -12.171875 0.726562 -14.632812 2.4375 -16.65625 C 4.144531 -18.6875 6.429688 -19.816406 9.296875 -20.046875 C 11.785156 -20.242188 13.882812 -19.707031 15.59375 -18.4375 C 17.300781 -17.164062 18.238281 -15.453125 18.40625 -13.296875 C 18.5 -12.160156 18.4375 -11.410156 18.21875 -11.046875 C 18 -10.691406 17.546875 -10.488281 16.859375 -10.4375 Z M 7.265625 -12.390625 L 12 -12.765625 C 12.25 -12.785156 12.425781 -12.84375 12.53125 -12.9375 C 12.632812 -13.039062 12.675781 -13.21875 12.65625 -13.46875 C 12.570312 -14.570312 12.207031 -15.445312 11.5625 -16.09375 C 10.925781 -16.75 10.15625 -17.039062 9.25 -16.96875 C 8.414062 -16.90625 7.734375 -16.472656 7.203125 -15.671875 C 6.671875 -14.867188 6.445312 -13.925781 6.53125 -12.84375 C 6.539062 -12.65625 6.597656 -12.53125 6.703125 -12.46875 C 6.804688 -12.40625 6.992188 -12.378906 7.265625 -12.390625 Z M 7.265625 -12.390625 "/></g></g></g><g fill="#ffffff" fill-opacity="1"><g transform="translate(109.992228, 38.076509)"><g><path d="M 8.140625 -8.15625 C 8.191406 -6.664062 8.453125 -5.628906 8.921875 -5.046875 C 9.398438 -4.472656 10.171875 -4.203125 11.234375 -4.234375 C 12.429688 -4.273438 13.367188 -4.804688 14.046875 -5.828125 C 14.722656 -6.847656 15.03125 -8.21875 14.96875 -9.9375 C 14.90625 -11.726562 14.492188 -13.140625 13.734375 -14.171875 C 12.972656 -15.203125 11.992188 -15.695312 10.796875 -15.65625 C 9.835938 -15.625 9.117188 -15.3125 8.640625 -14.71875 C 8.171875 -14.125 7.957031 -13.273438 8 -12.171875 Z M 7.78125 -18.578125 C 7.789062 -18.273438 7.816406 -18.050781 7.859375 -17.90625 C 7.910156 -17.769531 7.984375 -17.703125 8.078125 -17.703125 C 8.171875 -17.703125 8.394531 -17.820312 8.75 -18.0625 C 10.363281 -19.070312 11.953125 -19.601562 13.515625 -19.65625 C 15.835938 -19.738281 17.757812 -18.984375 19.28125 -17.390625 C 20.800781 -15.804688 21.601562 -13.734375 21.6875 -11.171875 C 21.726562 -9.984375 21.578125 -8.816406 21.234375 -7.671875 C 20.898438 -6.523438 20.390625 -5.441406 19.703125 -4.421875 C 18.765625 -3.023438 17.597656 -1.941406 16.203125 -1.171875 C 14.804688 -0.410156 13.257812 0 11.5625 0.0625 C 10.351562 0.101562 9.203125 -0.0351562 8.109375 -0.359375 C 7.023438 -0.679688 6.015625 -1.179688 5.078125 -1.859375 C 4.585938 -1.453125 4.117188 -1.140625 3.671875 -0.921875 C 3.222656 -0.703125 2.816406 -0.582031 2.453125 -0.5625 C 2.148438 -0.550781 1.90625 -0.613281 1.71875 -0.75 C 1.539062 -0.894531 1.445312 -1.09375 1.4375 -1.34375 C 1.4375 -1.445312 1.507812 -1.722656 1.65625 -2.171875 C 1.800781 -2.617188 1.890625 -3.023438 1.921875 -3.390625 C 1.972656 -4.328125 1.992188 -5.671875 1.984375 -7.421875 C 1.984375 -9.171875 1.945312 -11.097656 1.875 -13.203125 L 1.734375 -17.40625 C 1.660156 -19.300781 1.566406 -20.597656 1.453125 -21.296875 C 1.335938 -21.992188 1.164062 -22.429688 0.9375 -22.609375 C 0.882812 -22.648438 0.523438 -22.757812 -0.140625 -22.9375 C -0.816406 -23.113281 -1.164062 -23.5 -1.1875 -24.09375 C -1.195312 -24.382812 -1.085938 -24.660156 -0.859375 -24.921875 C -0.628906 -25.179688 -0.273438 -25.421875 0.203125 -25.640625 C 1.335938 -26.222656 2.4375 -26.679688 3.5 -27.015625 C 4.570312 -27.359375 5.488281 -27.546875 6.25 -27.578125 C 6.8125 -27.597656 7.175781 -27.515625 7.34375 -27.328125 C 7.507812 -27.140625 7.601562 -26.734375 7.625 -26.109375 C 7.632812 -25.773438 7.640625 -25.054688 7.640625 -23.953125 C 7.640625 -22.847656 7.65625 -21.914062 7.6875 -21.15625 Z M 7.78125 -18.578125 "/></g></g></g><g fill="#ffffff" fill-opacity="1"><g transform="translate(132.507192, 37.314292)"><g><path d="M 12.625 -11.125 L 12.640625 -12.84375 C 12.648438 -14.03125 12.507812 -14.851562 12.21875 -15.3125 C 11.9375 -15.769531 11.425781 -16.003906 10.6875 -16.015625 C 9.90625 -16.015625 9.039062 -15.5625 8.09375 -14.65625 C 8.007812 -14.582031 7.945312 -14.53125 7.90625 -14.5 C 7.851562 -14.457031 7.785156 -14.394531 7.703125 -14.3125 C 6.410156 -13.113281 5.265625 -12.519531 4.265625 -12.53125 C 3.628906 -12.539062 3.128906 -12.722656 2.765625 -13.078125 C 2.398438 -13.429688 2.222656 -13.910156 2.234375 -14.515625 C 2.242188 -15.804688 3.128906 -16.921875 4.890625 -17.859375 C 6.648438 -18.804688 8.816406 -19.265625 11.390625 -19.234375 C 13.972656 -19.210938 15.851562 -18.695312 17.03125 -17.6875 C 18.207031 -16.6875 18.785156 -15.113281 18.765625 -12.96875 C 18.753906 -12.3125 18.71875 -11.484375 18.65625 -10.484375 C 18.601562 -9.492188 18.578125 -8.820312 18.578125 -8.46875 L 18.546875 -5.78125 C 18.546875 -5.25 18.570312 -4.863281 18.625 -4.625 C 18.675781 -4.382812 18.78125 -4.21875 18.9375 -4.125 C 19.070312 -4.019531 19.460938 -3.859375 20.109375 -3.640625 C 20.765625 -3.421875 21.09375 -3.085938 21.09375 -2.640625 C 21.09375 -2.203125 20.929688 -1.785156 20.609375 -1.390625 C 20.285156 -1.003906 19.785156 -0.625 19.109375 -0.25 C 18.566406 0.0625 18.019531 0.296875 17.46875 0.453125 C 16.925781 0.617188 16.429688 0.695312 15.984375 0.6875 C 15.304688 0.675781 14.640625 0.328125 13.984375 -0.359375 C 13.328125 -1.054688 12.960938 -1.40625 12.890625 -1.40625 C 12.835938 -1.40625 12.671875 -1.304688 12.390625 -1.109375 C 10.804688 0.046875 9.113281 0.613281 7.3125 0.59375 C 5.351562 0.570312 3.789062 0.0351562 2.625 -1.015625 C 1.457031 -2.078125 0.882812 -3.476562 0.90625 -5.21875 C 0.925781 -7.195312 1.691406 -8.722656 3.203125 -9.796875 C 4.710938 -10.867188 6.820312 -11.390625 9.53125 -11.359375 C 9.957031 -11.359375 10.425781 -11.335938 10.9375 -11.296875 C 11.457031 -11.253906 12.019531 -11.195312 12.625 -11.125 Z M 12.53125 -5.5625 L 12.5625 -8.453125 C 12.332031 -8.523438 12.097656 -8.570312 11.859375 -8.59375 C 11.617188 -8.625 11.347656 -8.640625 11.046875 -8.640625 C 9.929688 -8.660156 9.070312 -8.421875 8.46875 -7.921875 C 7.875 -7.429688 7.570312 -6.710938 7.5625 -5.765625 C 7.550781 -4.941406 7.757812 -4.289062 8.1875 -3.8125 C 8.625 -3.34375 9.226562 -3.101562 10 -3.09375 C 10.84375 -3.082031 11.472656 -3.28125 11.890625 -3.6875 C 12.304688 -4.09375 12.519531 -4.71875 12.53125 -5.5625 Z M 12.53125 -5.5625 "/></g></g></g><g fill="#ffffff" fill-opacity="1"><g transform="translate(152.753561, 37.539919)"><g><path d="M 1.4375 -9.046875 C 1.582031 -11.984375 2.707031 -14.359375 4.8125 -16.171875 C 6.914062 -17.992188 9.492188 -18.820312 12.546875 -18.65625 C 14.703125 -18.550781 16.457031 -17.941406 17.8125 -16.828125 C 19.175781 -15.710938 19.820312 -14.398438 19.75 -12.890625 C 19.695312 -12.015625 19.382812 -11.316406 18.8125 -10.796875 C 18.238281 -10.285156 17.515625 -10.050781 16.640625 -10.09375 C 15.910156 -10.132812 15.316406 -10.382812 14.859375 -10.84375 C 14.410156 -11.300781 13.910156 -12.320312 13.359375 -13.90625 C 13.203125 -14.394531 12.914062 -14.785156 12.5 -15.078125 C 12.09375 -15.378906 11.617188 -15.546875 11.078125 -15.578125 C 10.140625 -15.617188 9.394531 -15.269531 8.84375 -14.53125 C 8.289062 -13.800781 7.976562 -12.734375 7.90625 -11.328125 C 7.789062 -9.046875 8.21875 -7.148438 9.1875 -5.640625 C 10.164062 -4.140625 11.472656 -3.347656 13.109375 -3.265625 C 13.890625 -3.222656 14.8125 -3.421875 15.875 -3.859375 C 16.945312 -4.296875 17.628906 -4.507812 17.921875 -4.5 C 18.296875 -4.476562 18.597656 -4.34375 18.828125 -4.09375 C 19.066406 -3.851562 19.175781 -3.554688 19.15625 -3.203125 C 19.132812 -2.835938 18.984375 -2.453125 18.703125 -2.046875 C 18.421875 -1.648438 18.050781 -1.285156 17.59375 -0.953125 C 16.5 -0.203125 15.40625 0.335938 14.3125 0.671875 C 13.21875 1.015625 12.046875 1.148438 10.796875 1.078125 C 7.867188 0.929688 5.535156 -0.078125 3.796875 -1.953125 C 2.066406 -3.835938 1.28125 -6.203125 1.4375 -9.046875 Z M 1.4375 -9.046875 "/></g></g></g><g fill="#ffffff" fill-opacity="1"><g transform="translate(171.510548, 38.465338)"><g><path d="M 10.765625 -15.609375 L 10.359375 -11.375 C 10.335938 -11.144531 10.347656 -10.988281 10.390625 -10.90625 C 10.429688 -10.832031 10.515625 -10.789062 10.640625 -10.78125 C 10.734375 -10.769531 10.847656 -10.804688 10.984375 -10.890625 C 11.128906 -10.972656 11.382812 -11.148438 11.75 -11.421875 L 14.21875 -13.3125 C 14.570312 -13.582031 14.816406 -13.796875 14.953125 -13.953125 C 15.085938 -14.109375 15.164062 -14.265625 15.1875 -14.421875 C 15.195312 -14.617188 15.117188 -14.898438 14.953125 -15.265625 C 14.796875 -15.640625 14.722656 -15.910156 14.734375 -16.078125 C 14.785156 -16.578125 15.175781 -16.910156 15.90625 -17.078125 C 16.644531 -17.242188 17.773438 -17.253906 19.296875 -17.109375 C 20.679688 -16.972656 21.664062 -16.738281 22.25 -16.40625 C 22.84375 -16.082031 23.113281 -15.625 23.0625 -15.03125 C 23.03125 -14.738281 22.9375 -14.503906 22.78125 -14.328125 C 22.632812 -14.148438 22.445312 -14.054688 22.21875 -14.046875 L 20.65625 -13.9375 C 20.601562 -13.925781 20.53125 -13.921875 20.4375 -13.921875 C 19.46875 -13.878906 18.503906 -13.484375 17.546875 -12.734375 L 16.5 -11.890625 C 16.382812 -11.816406 16.257812 -11.710938 16.125 -11.578125 C 15.789062 -11.328125 15.617188 -11.148438 15.609375 -11.046875 C 15.597656 -10.898438 15.707031 -10.617188 15.9375 -10.203125 C 16.175781 -9.785156 16.554688 -9.203125 17.078125 -8.453125 C 18.023438 -7.128906 18.921875 -5.894531 19.765625 -4.75 C 20.617188 -3.601562 21.316406 -2.707031 21.859375 -2.0625 C 22.441406 -1.375 23.160156 -0.875 24.015625 -0.5625 C 24.140625 -0.519531 24.226562 -0.488281 24.28125 -0.46875 C 24.5625 -0.320312 24.773438 -0.144531 24.921875 0.0625 C 25.078125 0.28125 25.140625 0.515625 25.109375 0.765625 C 25.046875 1.398438 24.65625 1.804688 23.9375 1.984375 C 23.21875 2.160156 21.8125 2.144531 19.71875 1.9375 L 18.875 1.859375 C 18.03125 1.773438 17.414062 1.613281 17.03125 1.375 C 16.644531 1.132812 16.222656 0.703125 15.765625 0.078125 C 14.796875 -1.273438 13.703125 -2.882812 12.484375 -4.75 C 11.265625 -6.625 10.554688 -7.570312 10.359375 -7.59375 C 10.273438 -7.601562 10.207031 -7.566406 10.15625 -7.484375 C 10.101562 -7.398438 10.066406 -7.234375 10.046875 -6.984375 L 9.90625 -5.46875 C 9.800781 -4.414062 9.757812 -3.660156 9.78125 -3.203125 C 9.8125 -2.742188 9.910156 -2.4375 10.078125 -2.28125 C 10.179688 -2.175781 10.375 -2.046875 10.65625 -1.890625 C 11.394531 -1.453125 11.734375 -0.957031 11.671875 -0.40625 C 11.609375 0.226562 11.179688 0.640625 10.390625 0.828125 C 9.609375 1.015625 8.207031 1.007812 6.1875 0.8125 C 4.175781 0.625 2.800781 0.363281 2.0625 0.03125 C 1.332031 -0.300781 1 -0.785156 1.0625 -1.421875 C 1.113281 -1.941406 1.453125 -2.335938 2.078125 -2.609375 C 2.703125 -2.890625 3.050781 -3.070312 3.125 -3.15625 C 3.28125 -3.332031 3.425781 -3.832031 3.5625 -4.65625 C 3.695312 -5.488281 3.914062 -7.476562 4.21875 -10.625 L 4.625 -14.78125 C 4.882812 -17.519531 5.023438 -19.351562 5.046875 -20.28125 C 5.066406 -21.21875 5.003906 -21.800781 4.859375 -22.03125 C 4.785156 -22.164062 4.40625 -22.375 3.71875 -22.65625 C 3.03125 -22.945312 2.71875 -23.382812 2.78125 -23.96875 C 2.800781 -24.25 2.945312 -24.5 3.21875 -24.71875 C 3.488281 -24.945312 3.890625 -25.144531 4.421875 -25.3125 C 5.609375 -25.738281 6.757812 -26.050781 7.875 -26.25 C 9 -26.445312 9.941406 -26.507812 10.703125 -26.4375 C 11.210938 -26.382812 11.539062 -26.222656 11.6875 -25.953125 C 11.84375 -25.691406 11.878906 -25.15625 11.796875 -24.34375 C 11.773438 -24.070312 11.640625 -22.960938 11.390625 -21.015625 C 11.140625 -19.066406 10.929688 -17.265625 10.765625 -15.609375 Z M 10.765625 -15.609375 "/></g></g></g><g fill="#ffffff" fill-opacity="1"><g transform="translate(194.28502, 40.77419)"><g/></g></g><g fill="#ffffff" fill-opacity="1"><g transform="translate(204.670273, 41.970516)"><g><path d="M 17.671875 -13 C 17.535156 -12.914062 17.4375 -12.835938 17.375 -12.765625 C 17.320312 -12.703125 17.285156 -12.632812 17.265625 -12.5625 C 17.253906 -12.488281 17.265625 -12.40625 17.296875 -12.3125 C 17.328125 -12.21875 17.378906 -12.117188 17.453125 -12.015625 L 20.3125 -7.28125 C 22.289062 -4.03125 23.644531 -1.878906 24.375 -0.828125 C 25.101562 0.210938 25.679688 0.878906 26.109375 1.171875 C 26.234375 1.265625 26.453125 1.375 26.765625 1.5 C 27.609375 1.832031 27.960938 2.390625 27.828125 3.171875 C 27.703125 3.890625 27.351562 4.320312 26.78125 4.46875 C 26.21875 4.625 24.863281 4.515625 22.71875 4.140625 C 21.582031 3.941406 20.832031 3.78125 20.46875 3.65625 C 20.113281 3.53125 19.84375 3.375 19.65625 3.1875 C 19.300781 2.8125 18.710938 1.992188 17.890625 0.734375 C 17.078125 -0.523438 16.015625 -2.265625 14.703125 -4.484375 L 12.390625 -8.40625 C 12.328125 -8.5 12.265625 -8.578125 12.203125 -8.640625 C 12.148438 -8.710938 12.09375 -8.753906 12.03125 -8.765625 C 11.90625 -8.785156 11.796875 -8.679688 11.703125 -8.453125 C 11.609375 -8.222656 11.519531 -7.847656 11.4375 -7.328125 C 11.15625 -5.710938 10.988281 -4.453125 10.9375 -3.546875 C 10.882812 -2.640625 10.953125 -2.082031 11.140625 -1.875 C 11.273438 -1.738281 11.5 -1.5625 11.8125 -1.34375 C 12.613281 -0.78125 12.957031 -0.171875 12.84375 0.484375 C 12.71875 1.179688 12.222656 1.597656 11.359375 1.734375 C 10.492188 1.867188 8.929688 1.742188 6.671875 1.359375 C 4.378906 0.953125 2.847656 0.535156 2.078125 0.109375 C 1.316406 -0.304688 1 -0.863281 1.125 -1.5625 C 1.226562 -2.1875 1.664062 -2.613281 2.4375 -2.84375 C 3.21875 -3.082031 3.660156 -3.25 3.765625 -3.34375 C 3.984375 -3.570312 4.296875 -4.578125 4.703125 -6.359375 C 5.117188 -8.148438 5.59375 -10.570312 6.125 -13.625 C 6.539062 -16.039062 6.828125 -17.984375 6.984375 -19.453125 C 7.140625 -20.921875 7.15625 -21.796875 7.03125 -22.078125 C 6.945312 -22.210938 6.582031 -22.515625 5.9375 -22.984375 C 5.289062 -23.460938 5.023438 -24.019531 5.140625 -24.65625 C 5.265625 -25.363281 5.75 -25.78125 6.59375 -25.90625 C 7.4375 -26.039062 9.019531 -25.90625 11.34375 -25.5 C 13.65625 -25.101562 15.179688 -24.695312 15.921875 -24.28125 C 16.671875 -23.875 16.984375 -23.316406 16.859375 -22.609375 C 16.742188 -21.941406 16.210938 -21.488281 15.265625 -21.25 C 14.910156 -21.15625 14.644531 -21.054688 14.46875 -20.953125 C 14.269531 -20.859375 14.050781 -20.503906 13.8125 -19.890625 C 13.582031 -19.273438 13.390625 -18.519531 13.234375 -17.625 L 12.828125 -15.25 C 12.742188 -14.757812 12.71875 -14.429688 12.75 -14.265625 C 12.789062 -14.109375 12.890625 -14.015625 13.046875 -13.984375 C 13.128906 -13.972656 13.28125 -14.023438 13.5 -14.140625 C 13.726562 -14.253906 13.984375 -14.414062 14.265625 -14.625 L 18.6875 -17.90625 C 19.320312 -18.375 19.78125 -18.75 20.0625 -19.03125 C 20.351562 -19.3125 20.507812 -19.523438 20.53125 -19.671875 C 20.582031 -19.953125 20.460938 -20.195312 20.171875 -20.40625 C 20.117188 -20.445312 20.078125 -20.488281 20.046875 -20.53125 C 19.554688 -20.863281 19.25 -21.148438 19.125 -21.390625 C 19.007812 -21.628906 18.976562 -21.921875 19.03125 -22.265625 C 19.144531 -22.898438 19.632812 -23.296875 20.5 -23.453125 C 21.363281 -23.609375 22.679688 -23.535156 24.453125 -23.234375 C 26.597656 -22.859375 28.082031 -22.445312 28.90625 -22 C 29.726562 -21.550781 30.082031 -20.992188 29.96875 -20.328125 C 29.90625 -19.984375 29.695312 -19.675781 29.34375 -19.40625 C 28.988281 -19.132812 28.695312 -19.019531 28.46875 -19.0625 C 27.007812 -19.320312 24.734375 -18.285156 21.640625 -15.953125 L 21.109375 -15.546875 Z M 17.671875 -13 "/></g></g></g><g fill="#ffffff" fill-opacity="1"><g transform="translate(231.668346, 46.819426)"><g><path d="M 7.109375 -23.171875 C 7.296875 -24.023438 7.851562 -24.671875 8.78125 -25.109375 C 9.707031 -25.546875 10.742188 -25.640625 11.890625 -25.390625 C 12.953125 -25.160156 13.769531 -24.695312 14.34375 -24 C 14.925781 -23.3125 15.128906 -22.554688 14.953125 -21.734375 C 14.765625 -20.898438 14.222656 -20.273438 13.328125 -19.859375 C 12.429688 -19.453125 11.410156 -19.375 10.265625 -19.625 C 9.160156 -19.863281 8.316406 -20.316406 7.734375 -20.984375 C 7.148438 -21.660156 6.941406 -22.390625 7.109375 -23.171875 Z M 11.875 -9.53125 L 10.890625 -5.015625 C 10.578125 -3.566406 10.398438 -2.585938 10.359375 -2.078125 C 10.328125 -1.566406 10.378906 -1.21875 10.515625 -1.03125 C 10.617188 -0.914062 10.800781 -0.765625 11.0625 -0.578125 C 11.726562 -0.0546875 12.003906 0.476562 11.890625 1.03125 C 11.753906 1.65625 11.28125 2.007812 10.46875 2.09375 C 9.664062 2.1875 8.273438 2.019531 6.296875 1.59375 C 4.328125 1.164062 3 0.742188 2.3125 0.328125 C 1.625 -0.0859375 1.347656 -0.609375 1.484375 -1.234375 C 1.597656 -1.785156 2.0625 -2.160156 2.875 -2.359375 C 3.175781 -2.421875 3.398438 -2.484375 3.546875 -2.546875 C 3.765625 -2.671875 3.96875 -3.003906 4.15625 -3.546875 C 4.351562 -4.097656 4.632812 -5.222656 5 -6.921875 C 5.570312 -9.566406 5.882812 -11.242188 5.9375 -11.953125 C 6 -12.671875 5.929688 -13.160156 5.734375 -13.421875 C 5.691406 -13.453125 5.367188 -13.632812 4.765625 -13.96875 C 4.171875 -14.3125 3.9375 -14.773438 4.0625 -15.359375 C 4.113281 -15.628906 4.285156 -15.863281 4.578125 -16.0625 C 4.878906 -16.269531 5.296875 -16.4375 5.828125 -16.5625 C 7.023438 -16.820312 8.191406 -16.976562 9.328125 -17.03125 C 10.460938 -17.09375 11.40625 -17.039062 12.15625 -16.875 C 12.6875 -16.757812 13.015625 -16.578125 13.140625 -16.328125 C 13.265625 -16.078125 13.25 -15.59375 13.09375 -14.875 C 13.070312 -14.757812 13.007812 -14.5 12.90625 -14.09375 C 12.53125 -12.488281 12.1875 -10.96875 11.875 -9.53125 Z M 11.875 -9.53125 "/></g></g></g><g fill="#ffffff" fill-opacity="1"><g transform="translate(243.310702, 49.23644)"><g><path d="M 16.984375 -7.421875 C 17.359375 -8.890625 17.398438 -9.957031 17.109375 -10.625 C 16.828125 -11.300781 16.164062 -11.773438 15.125 -12.046875 C 13.96875 -12.335938 12.910156 -12.078125 11.953125 -11.265625 C 11.003906 -10.453125 10.316406 -9.21875 9.890625 -7.5625 C 9.441406 -5.800781 9.4375 -4.3125 9.875 -3.09375 C 10.3125 -1.875 11.113281 -1.113281 12.28125 -0.8125 C 13.195312 -0.582031 13.96875 -0.691406 14.59375 -1.140625 C 15.226562 -1.585938 15.6875 -2.359375 15.96875 -3.453125 Z M 14.359375 2.8125 L 14.484375 2.34375 C 14.535156 2.144531 14.550781 2.007812 14.53125 1.9375 C 14.519531 1.863281 14.472656 1.816406 14.390625 1.796875 C 14.242188 1.753906 14 1.832031 13.65625 2.03125 C 13.539062 2.09375 13.453125 2.140625 13.390625 2.171875 C 12.679688 2.535156 11.910156 2.757812 11.078125 2.84375 C 10.253906 2.9375 9.421875 2.875 8.578125 2.65625 C 6.421875 2.101562 4.816406 0.757812 3.765625 -1.375 C 2.710938 -3.507812 2.519531 -5.875 3.1875 -8.46875 C 3.539062 -9.84375 4.101562 -11.054688 4.875 -12.109375 C 5.65625 -13.160156 6.617188 -14.03125 7.765625 -14.71875 C 8.890625 -15.375 10.046875 -15.789062 11.234375 -15.96875 C 12.421875 -16.15625 13.601562 -16.097656 14.78125 -15.796875 C 16.132812 -15.441406 17.242188 -14.789062 18.109375 -13.84375 C 18.234375 -13.695312 18.3125 -13.617188 18.34375 -13.609375 C 18.414062 -13.597656 18.492188 -13.6875 18.578125 -13.875 C 18.671875 -14.0625 18.785156 -14.425781 18.921875 -14.96875 C 19.234375 -16.175781 19.390625 -17.019531 19.390625 -17.5 C 19.390625 -17.988281 19.273438 -18.320312 19.046875 -18.5 C 18.910156 -18.59375 18.722656 -18.707031 18.484375 -18.84375 C 17.722656 -19.289062 17.414062 -19.8125 17.5625 -20.40625 C 17.644531 -20.738281 17.863281 -20.992188 18.21875 -21.171875 C 18.582031 -21.359375 19.234375 -21.515625 20.171875 -21.640625 C 21.296875 -21.816406 22.34375 -21.898438 23.3125 -21.890625 C 24.289062 -21.878906 25.125 -21.785156 25.8125 -21.609375 C 26.3125 -21.484375 26.625 -21.28125 26.75 -21 C 26.875 -20.726562 26.84375 -20.222656 26.65625 -19.484375 C 26.5625 -19.128906 26.101562 -17.53125 25.28125 -14.6875 C 24.46875 -11.84375 23.742188 -9.179688 23.109375 -6.703125 C 22.273438 -3.453125 21.796875 -1.390625 21.671875 -0.515625 C 21.554688 0.347656 21.585938 0.910156 21.765625 1.171875 C 21.804688 1.203125 22.125 1.398438 22.71875 1.765625 C 23.320312 2.140625 23.550781 2.609375 23.40625 3.171875 C 23.332031 3.472656 23.148438 3.707031 22.859375 3.875 C 22.566406 4.050781 22.148438 4.1875 21.609375 4.28125 C 20.410156 4.507812 19.242188 4.628906 18.109375 4.640625 C 16.972656 4.660156 16.023438 4.570312 15.265625 4.375 C 14.785156 4.25 14.484375 4.078125 14.359375 3.859375 C 14.234375 3.640625 14.234375 3.289062 14.359375 2.8125 Z M 14.359375 2.8125 "/></g></g></g></g></g></g></g></svg>