<svg xmlns="http://www.w3.org/2000/svg" xmlns:xlink="http://www.w3.org/1999/xlink" width="794" zoomAndPan="magnify" viewBox="0 0 594.95996 842.24997" height="1123" preserveAspectRatio="xMidYMid meet" version="1.0"><defs><g/><clipPath id="a1b06c4e96"><path d="M 0.683594 0.191406 L 448.78125 0.191406 L 448.78125 433 L 0.683594 433 Z M 0.683594 0.191406 " clip-rule="nonzero"/></clipPath><clipPath id="f357108f03"><path d="M 28.902344 41.515625 L 420.722656 41.515625 L 420.722656 433 L 28.902344 433 Z M 28.902344 41.515625 " clip-rule="nonzero"/></clipPath><clipPath id="c06d9e8d0a"><path d="M 136.203125 107.773438 L 313 107.773438 L 313 263.863281 L 136.203125 263.863281 Z M 136.203125 107.773438 " clip-rule="nonzero"/></clipPath><clipPath id="91b034a68e"><rect x="0" width="313" y="0" height="70"/></clipPath><clipPath id="2d6c28420d"><rect x="0" width="449" y="0" height="434"/></clipPath></defs><g transform="matrix(1, 0, 0, 1, 73, 204)"><g clip-path="url(#2d6c28420d)"><g clip-path="url(#a1b06c4e96)"><path fill="#ffd600" d="M 224.617188 0.285156 L 252.914062 18.273438 L 285.175781 8.34375 L 307.410156 33.054688 L 341.238281 31.917969 L 355.761719 61.523438 L 388.65625 69.265625 L 394.390625 101.566406 L 423.90625 117.613281 L 420.425781 150.210938 L 444.375 173.371094 L 431.941406 203.855469 L 448.546875 232.410156 L 428.082031 258.515625 L 436.109375 290.351562 L 409.125 310.140625 L 407.988281 342.894531 L 376.492188 354.902344 L 366.265625 386.144531 L 332.589844 389.476562 L 314.039062 416.890625 L 280.683594 411.304688 L 255.179688 432.855469 L 224.617188 418.761719 L 194.054688 432.855469 L 168.550781 411.304688 L 135.195312 416.890625 L 116.644531 389.476562 L 82.96875 386.144531 L 72.746094 354.902344 L 41.246094 342.894531 L 40.109375 310.140625 L 13.125 290.351562 L 21.15625 258.515625 L 0.6875 232.410156 L 17.296875 203.855469 L 4.859375 173.371094 L 28.808594 150.210938 L 25.328125 117.613281 L 54.84375 101.566406 L 60.578125 69.265625 L 93.472656 61.523438 L 107.996094 31.917969 L 141.828125 33.054688 L 164.0625 8.34375 L 196.320312 18.273438 Z M 224.617188 0.285156 " fill-opacity="1" fill-rule="evenodd"/></g><g clip-path="url(#f357108f03)"><path fill="#291407" d="M 420.253906 359.679688 C 419.976562 358.238281 419.050781 357 417.742188 356.328125 C 405.71875 350.140625 393.125 344.492188 380.253906 339.507812 L 387.65625 301.835938 C 388.902344 295.503906 385.261719 289.105469 379.191406 286.953125 C 376.210938 285.898438 372.867188 284.78125 369.210938 283.625 C 379.191406 255.957031 384.253906 227.007812 384.253906 197.488281 L 384.253906 90.390625 C 384.253906 87.746094 382.109375 85.601562 379.464844 85.601562 L 368.683594 85.601562 C 320.339844 85.601562 273.351562 71.691406 232.800781 45.375 L 228.316406 42.464844 C 226.734375 41.4375 224.6875 41.4375 223.101562 42.464844 L 218.621094 45.375 C 178.066406 71.691406 131.082031 85.601562 82.738281 85.601562 L 71.957031 85.601562 C 69.3125 85.601562 67.167969 87.746094 67.167969 90.390625 L 67.167969 197.488281 C 67.167969 226.605469 72.097656 255.183594 81.816406 282.519531 C 77.75 283.9375 73.707031 285.417969 69.691406 286.964844 C 63.742188 289.253906 60.320312 295.464844 61.550781 301.726562 L 68.976562 339.503906 C 56.105469 344.496094 43.507812 350.140625 31.484375 356.328125 C 30.175781 357.003906 29.25 358.238281 28.972656 359.679688 C 28.695312 361.125 29.09375 362.617188 30.058594 363.726562 L 52.25 389.296875 L 42.277344 426.660156 C 41.796875 428.457031 42.402344 430.367188 43.828125 431.5625 C 44.707031 432.300781 45.800781 432.683594 46.90625 432.683594 C 47.589844 432.683594 48.28125 432.535156 48.929688 432.234375 C 71.085938 421.902344 94.703125 413.535156 119.132812 407.363281 C 121.695312 406.714844 123.25 404.113281 122.601562 401.546875 C 121.953125 398.984375 119.347656 397.429688 116.785156 398.078125 C 95.140625 403.546875 74.113281 410.699219 54.132812 419.386719 L 62.160156 389.3125 C 62.570312 387.777344 62.191406 386.136719 61.148438 384.9375 L 41.324219 362.09375 C 50.882812 357.375 60.777344 353.007812 70.851562 349.050781 L 74.148438 365.820312 C 74.875 369.515625 77.15625 372.722656 80.40625 374.621094 C 82.429688 375.804688 84.710938 376.40625 87.003906 376.40625 C 88.382812 376.40625 89.765625 376.191406 91.097656 375.75 C 103.898438 371.515625 116.9375 367.921875 130.171875 364.957031 C 154.417969 392.652344 183.753906 414.351562 217.441406 429.4375 L 223.753906 432.265625 C 224.375 432.542969 225.042969 432.683594 225.710938 432.683594 C 226.378906 432.683594 227.046875 432.542969 227.667969 432.265625 L 233.980469 429.4375 C 267.488281 414.429688 296.699219 392.875 320.878906 365.378906 C 333.488281 368.265625 345.917969 371.710938 358.128906 375.75 C 361.6875 376.925781 365.585938 376.515625 368.824219 374.621094 C 372.074219 372.722656 374.355469 369.515625 375.082031 365.820312 L 378.375 349.050781 C 388.453125 353.007812 398.34375 357.371094 407.902344 362.09375 L 388.078125 384.9375 C 387.035156 386.136719 386.65625 387.773438 387.066406 389.308594 L 395.097656 419.386719 C 381.015625 413.265625 366.378906 407.890625 351.449219 403.359375 C 348.917969 402.589844 346.242188 404.019531 345.476562 406.550781 C 344.707031 409.082031 346.136719 411.753906 348.667969 412.523438 C 366.464844 417.925781 383.835938 424.558594 400.300781 432.234375 C 400.945312 432.535156 401.636719 432.679688 402.324219 432.679688 C 403.425781 432.679688 404.519531 432.300781 405.398438 431.5625 C 406.824219 430.367188 407.429688 428.453125 406.949219 426.65625 L 396.976562 389.296875 L 419.167969 363.726562 C 420.132812 362.613281 420.53125 361.125 420.253906 359.679688 Z M 76.746094 197.488281 L 76.746094 95.179688 L 82.738281 95.179688 C 132.933594 95.179688 181.726562 80.734375 223.835938 53.410156 L 225.710938 52.191406 L 227.585938 53.410156 C 269.695312 80.734375 318.488281 95.179688 368.683594 95.179688 L 374.675781 95.179688 L 374.675781 197.488281 C 374.675781 226.058594 369.742188 254.074219 360.03125 280.835938 C 324.964844 270.597656 269.902344 258.800781 224.613281 258.800781 C 187.886719 258.800781 152.148438 263.144531 117.84375 271.738281 C 109.113281 247.886719 104.683594 222.929688 104.683594 197.488281 L 104.683594 122.28125 C 147.105469 119.03125 188.796875 106.191406 225.710938 84.992188 C 262.625 106.191406 304.316406 119.03125 346.738281 122.28125 L 346.738281 197.488281 C 346.738281 217.800781 343.878906 237.992188 338.242188 257.492188 C 337.507812 260.035156 338.972656 262.691406 341.511719 263.425781 C 344.054688 264.15625 346.707031 262.695312 347.441406 260.152344 C 353.332031 239.785156 356.316406 218.703125 356.316406 197.488281 L 356.316406 117.808594 C 356.316406 115.273438 354.34375 113.179688 351.816406 113.027344 C 308.414062 110.402344 265.644531 97.367188 228.136719 75.324219 C 226.640625 74.445312 224.78125 74.445312 223.285156 75.324219 C 185.777344 97.367188 143.007812 110.402344 99.605469 113.027344 C 97.078125 113.179688 95.105469 115.273438 95.105469 117.808594 L 95.105469 197.488281 C 95.105469 223.757812 99.621094 249.53125 108.535156 274.1875 C 102.609375 275.816406 96.730469 277.578125 90.894531 279.464844 C 81.511719 253.113281 76.746094 225.5625 76.746094 197.488281 Z M 230.066406 420.695312 L 225.710938 422.644531 L 221.355469 420.695312 C 190.589844 406.917969 163.59375 387.414062 140.980469 362.683594 C 148.25 361.253906 155.582031 360.019531 162.960938 358.96875 C 179.628906 375.339844 198.628906 388.96875 219.484375 399.480469 C 221.4375 400.464844 223.578125 400.957031 225.714844 400.957031 C 227.847656 400.957031 229.980469 400.46875 231.917969 399.492188 C 252.660156 389.039062 271.566406 375.5 288.171875 359.25 C 295.535156 360.332031 302.851562 361.589844 310.105469 363.046875 C 287.558594 387.609375 260.671875 406.988281 230.066406 420.695312 Z M 175.230469 357.40625 C 191.480469 355.574219 207.960938 354.636719 224.613281 354.636719 C 241.9375 354.636719 259.074219 355.636719 275.960938 357.617188 C 261.429688 370.878906 245.207031 382.070312 227.609375 390.9375 C 226.421875 391.535156 224.996094 391.535156 223.792969 390.929688 C 206.109375 382.011719 189.816406 370.753906 175.230469 357.40625 Z M 365.683594 363.976562 C 365.414062 365.339844 364.507812 366.050781 363.992188 366.351562 C 363.484375 366.648438 362.433594 367.085938 361.136719 366.65625 C 317.8125 352.324219 271.878906 345.058594 224.613281 345.058594 C 177.347656 345.058594 131.417969 352.324219 88.09375 366.65625 C 86.796875 367.085938 85.746094 366.648438 85.238281 366.351562 C 84.722656 366.050781 83.816406 365.339844 83.546875 363.976562 L 70.949219 299.878906 C 70.617188 298.191406 71.535156 296.515625 73.132812 295.902344 C 87.019531 290.554688 101.210938 285.984375 115.671875 282.1875 C 115.882812 282.148438 116.089844 282.085938 116.296875 282.023438 C 151.019531 272.960938 187.289062 268.378906 224.613281 268.378906 C 278.207031 268.378906 345.90625 285.308594 375.988281 295.980469 C 377.617188 296.558594 378.59375 298.28125 378.257812 299.988281 Z M 365.683594 363.976562 " fill-opacity="1" fill-rule="nonzero"/></g><g clip-path="url(#c06d9e8d0a)"><path fill="#291407" d="M 215.648438 108.167969 C 223.96875 106.960938 232.894531 108.503906 239.875 113.269531 C 240.945312 114.007812 241.953125 114.878906 242.894531 115.816406 C 247.121094 113.804688 251.953125 113.671875 256.449219 114.542969 C 265.304688 116.355469 272.890625 122.996094 275.976562 131.453125 C 280.003906 131.117188 284.164062 132.324219 287.316406 134.875 C 291.140625 137.761719 293.691406 141.988281 294.832031 146.550781 C 298.726562 147.15625 302.011719 149.839844 304.226562 152.992188 C 306.910156 156.820312 308.253906 161.449219 308.65625 166.078125 C 308.859375 169.433594 308.65625 172.855469 307.582031 176.078125 C 310 178.761719 311.273438 182.25 312.078125 185.742188 C 313.21875 190.640625 313.152344 195.808594 312.28125 200.707031 C 311.878906 203.390625 311.207031 206.074219 309.863281 208.488281 C 309.328125 209.429688 308.65625 210.367188 307.714844 210.90625 C 306.644531 211.511719 305.101562 211.175781 304.292969 210.234375 C 303.085938 208.824219 302.683594 206.945312 302.347656 205.203125 C 302.011719 203.523438 301.945312 201.847656 301.542969 200.167969 C 301.410156 199.699219 301.074219 199.296875 300.535156 199.164062 C 299.460938 198.828125 298.320312 199.230469 297.382812 199.765625 C 295.035156 200.972656 292.953125 202.652344 290.402344 203.324219 C 288.589844 203.792969 286.578125 203.726562 284.96875 202.71875 C 283.761719 201.914062 283.359375 200.371094 283.359375 198.960938 C 283.359375 197.082031 284.027344 195.070312 285.503906 193.792969 C 286.175781 193.257812 287.046875 192.789062 287.988281 193.054688 C 288.792969 193.257812 289.261719 194.128906 289.261719 194.933594 C 289.398438 197.214844 288.726562 199.566406 287.316406 201.445312 C 287.316406 201.511719 287.316406 201.644531 287.316406 201.710938 C 289.53125 202.046875 291.679688 201.109375 293.492188 199.902344 C 295.570312 198.625 297.785156 197.015625 300.402344 197.214844 C 301.609375 197.214844 302.75 198.023438 303.085938 199.230469 C 303.957031 201.980469 303.824219 204.933594 304.898438 207.617188 C 305.167969 208.289062 305.570312 209.027344 306.242188 209.296875 C 306.644531 209.429688 307.046875 209.09375 307.3125 208.894531 C 308.253906 207.953125 308.722656 206.609375 309.191406 205.402344 C 310.871094 200.371094 311.476562 195.070312 310.9375 189.769531 C 310.535156 185.605469 309.261719 181.445312 306.84375 177.957031 C 306.039062 179.433594 305.300781 180.976562 304.226562 182.25 C 302.214844 184.464844 299.664062 186.34375 296.644531 186.746094 C 293.824219 187.152344 290.605469 186.078125 288.996094 183.660156 C 286.710938 180.238281 287.785156 175.070312 291.277344 172.855469 C 295.839844 169.835938 302.28125 170.910156 306.105469 174.601562 C 307.3125 169.769531 307.113281 164.601562 305.503906 159.90625 C 304.292969 156.148438 302.214844 152.457031 298.925781 150.175781 C 297.851562 149.371094 296.644531 148.832031 295.300781 148.429688 C 295.703125 151.71875 295.703125 155.34375 293.960938 158.296875 C 293.15625 159.773438 291.613281 160.980469 289.867188 160.84375 C 288.457031 160.777344 287.183594 159.90625 286.445312 158.765625 C 284.363281 155.34375 285.304688 150.511719 288.390625 148.164062 C 289.734375 147.15625 291.34375 146.617188 292.953125 146.417969 C 291.410156 141.585938 288.324219 137.023438 283.691406 134.742188 C 281.546875 133.535156 279.0625 133.132812 276.648438 133.265625 C 278.054688 137.828125 278.59375 142.792969 277.316406 147.425781 C 276.714844 149.4375 275.839844 151.519531 274.097656 152.726562 C 272.082031 154.203125 269.132812 154.066406 267.183594 152.589844 C 265.375 151.25 264.367188 149.101562 264.097656 146.953125 C 263.628906 143.53125 264.367188 139.839844 266.445312 137.023438 C 268.257812 134.40625 271.144531 132.660156 274.164062 131.855469 C 272.285156 127.160156 269.0625 122.996094 264.835938 120.113281 C 261.347656 117.695312 257.121094 116.152344 252.824219 115.886719 C 249.9375 115.617188 246.988281 116.019531 244.300781 117.160156 C 245.914062 119.308594 247.390625 121.589844 248.195312 124.140625 C 249.738281 128.636719 250.207031 133.667969 248.460938 138.164062 C 247.457031 140.980469 245.175781 143.195312 242.421875 144.335938 C 236.449219 146.820312 229.335938 145.679688 224.171875 141.921875 C 222.359375 140.578125 220.949219 138.902344 219.472656 137.292969 C 217.929688 135.546875 215.515625 134.675781 213.234375 135.144531 C 210.210938 135.546875 207.730469 137.558594 205.851562 139.773438 C 202.765625 143.597656 201.085938 148.296875 199.675781 152.992188 C 198 158.363281 196.859375 164 194.578125 169.234375 C 193.503906 171.582031 192.296875 173.929688 190.820312 176.011719 C 190.484375 176.414062 190.953125 176.75 191.15625 177.085938 C 193.90625 180.171875 198.199219 181.378906 202.160156 181.378906 C 205.3125 181.515625 208.402344 180.777344 211.355469 179.902344 C 213.769531 179.164062 216.050781 178.023438 218.265625 176.882812 C 216.453125 174.667969 215.582031 171.851562 215.582031 169.03125 C 215.515625 165.074219 216.722656 160.914062 219.539062 158.027344 C 221.488281 156.015625 224.507812 154.941406 227.257812 155.542969 C 229.472656 156.015625 231.285156 157.894531 231.550781 160.105469 C 231.753906 161.984375 231.351562 163.933594 230.679688 165.675781 C 228.800781 170.308594 225.3125 174.066406 221.351562 177.019531 C 224.035156 178.695312 227.257812 178.628906 230.277344 178.292969 C 236.855469 177.488281 243.230469 175.339844 249.9375 175.609375 C 253.765625 175.808594 257.859375 176.816406 260.609375 179.703125 C 262.421875 181.582031 263.292969 184.265625 263.089844 186.816406 C 263.023438 190.976562 260.003906 194.667969 256.179688 196.074219 C 251.347656 197.953125 246.046875 197.6875 241.015625 196.949219 C 234.101562 195.875 227.527344 193.257812 220.546875 192.519531 C 215.582031 191.980469 210.414062 192.71875 205.851562 194.734375 C 202.429688 196.144531 199.273438 198.15625 196.054688 199.832031 C 190.617188 203.054688 184.78125 205.46875 178.605469 206.609375 C 181.15625 216.742188 189.410156 225.132812 199.410156 228.019531 C 207.527344 230.5 216.253906 229.761719 224.304688 227.414062 C 220.816406 225.402344 217.125 223.253906 214.777344 219.898438 C 213.234375 217.683594 212.761719 214.730469 213.835938 212.246094 C 215.042969 209.632812 217.59375 207.820312 220.277344 206.8125 C 224.574219 205.269531 229.40625 205.203125 233.699219 206.609375 C 236.921875 207.683594 239.738281 210.167969 240.878906 213.390625 C 241.753906 215.535156 242.085938 217.886719 242.222656 220.234375 C 244.371094 219.027344 246.582031 218.21875 248.867188 217.28125 C 256.046875 214.394531 263.695312 212.515625 271.480469 212.113281 C 270.40625 206.945312 270.609375 201.578125 271.75 196.476562 C 273.359375 188.761719 276.578125 181.515625 280.472656 174.734375 C 280.605469 174.402344 280.941406 174.199219 281.210938 173.996094 C 281.8125 174.265625 282.621094 174.871094 282.148438 175.609375 C 279.265625 180.238281 277.117188 185.273438 275.371094 190.4375 C 273.828125 195.269531 272.621094 200.304688 272.554688 205.46875 C 272.554688 207.683594 272.957031 209.898438 273.425781 212.046875 C 278.054688 212.382812 282.820312 212.917969 287.183594 214.933594 C 291.410156 216.8125 295.167969 220.167969 296.578125 224.730469 C 299.796875 223.050781 302.214844 219.964844 303.019531 216.410156 C 303.222656 215.871094 303.222656 215.269531 303.625 214.796875 C 304.363281 214.328125 305.433594 215.132812 305.03125 215.9375 C 304.363281 218.957031 302.953125 221.910156 300.671875 224.058594 C 299.53125 224.996094 298.320312 225.871094 296.980469 226.542969 C 297.113281 228.554688 297.25 230.636719 296.710938 232.648438 C 295.90625 236.339844 293.824219 239.695312 291.074219 242.3125 C 288.121094 245.128906 284.429688 247.210938 280.539062 248.550781 C 277.117188 249.828125 273.492188 250.496094 269.871094 250.832031 C 264.835938 251.167969 259.601562 250.902344 254.703125 249.425781 C 254.636719 252.914062 254.433594 256.539062 253.363281 259.894531 C 252.890625 261.367188 252.222656 262.980469 250.746094 263.71875 C 249.269531 264.457031 247.523438 263.71875 246.316406 262.777344 C 243.632812 260.5625 241.886719 257.410156 240.476562 254.324219 C 238.128906 249.023438 237.589844 243.117188 234.90625 238.015625 C 232.960938 234.257812 230.007812 231.171875 226.519531 228.824219 C 220.679688 230.566406 214.507812 231.574219 208.402344 231.371094 C 203.835938 231.171875 199.273438 230.230469 195.113281 228.421875 C 190.28125 226.339844 186.054688 223.050781 182.765625 218.890625 C 180.015625 215.402344 177.667969 211.375 176.792969 206.945312 C 171.761719 207.484375 166.660156 207.417969 161.695312 206.410156 C 158.207031 205.671875 154.714844 204.53125 151.5625 202.652344 C 147.269531 200.234375 143.511719 196.410156 142.167969 191.578125 C 141.429688 188.558594 141.363281 185.203125 142.839844 182.453125 C 140.421875 180.105469 138.34375 177.351562 137.335938 174.066406 C 135.660156 168.5625 136.0625 162.589844 137.875 157.222656 C 139.617188 152.1875 142.636719 147.355469 147.269531 144.539062 C 148.140625 144 148.746094 143.128906 149.347656 142.324219 C 150.824219 140.445312 152.570312 138.769531 154.582031 137.359375 C 154.984375 135.34375 155.789062 133.332031 156.929688 131.65625 C 158.945312 128.703125 161.496094 126.21875 164.515625 124.273438 C 168.742188 121.386719 173.640625 119.308594 178.742188 118.636719 C 180.484375 118.367188 182.296875 118.167969 184.109375 118.367188 C 184.511719 118.367188 185.046875 118.570312 185.382812 118.300781 C 191.085938 113.738281 198.402344 111.589844 205.582031 111.722656 C 208.601562 109.777344 212.089844 108.703125 215.648438 108.167969 Z M 214.304688 110.246094 C 212.425781 110.515625 210.617188 111.320312 208.738281 111.925781 C 213.234375 112.664062 218.0625 113.9375 221.285156 117.359375 C 222.828125 118.90625 223.5 121.320312 222.628906 123.402344 C 221.753906 125.347656 219.808594 126.554688 217.796875 127.089844 C 214.777344 128.097656 211.488281 127.628906 208.601562 126.488281 C 206.386719 125.480469 204.441406 123.734375 203.433594 121.453125 C 202.363281 118.90625 202.5625 115.75 204.242188 113.46875 C 198.269531 113.671875 192.429688 115.617188 187.464844 118.90625 C 190.886719 119.777344 194.242188 121.722656 195.917969 124.875 C 197.597656 127.761719 197.460938 131.585938 195.515625 134.339844 C 194.242188 136.015625 192.496094 137.425781 190.484375 138.097656 C 188.402344 138.699219 186.054688 138.835938 183.976562 137.960938 C 181.558594 137.023438 179.949219 134.539062 179.480469 132.058594 C 179.074219 129.574219 179.34375 126.890625 180.417969 124.609375 C 181.15625 122.929688 182.027344 121.320312 183.4375 120.113281 C 180.417969 120.046875 177.398438 120.515625 174.511719 121.453125 C 169.277344 123.132812 164.378906 125.949219 160.621094 129.976562 C 159.078125 131.722656 157.667969 133.734375 156.863281 135.949219 C 159.683594 134.472656 162.835938 133.601562 166.058594 133.800781 C 168.003906 133.9375 170.082031 134.339844 171.558594 135.746094 C 172.835938 136.820312 173.238281 138.566406 172.902344 140.175781 C 172.367188 142.191406 170.621094 143.53125 168.742188 144.203125 C 165.453125 145.546875 161.828125 145.007812 158.339844 144.539062 C 161.496094 148.363281 166.058594 150.445312 169.414062 154.066406 C 171.089844 155.878906 172.769531 158.09375 172.96875 160.644531 C 173.304688 163.328125 172.230469 166.078125 170.152344 167.757812 C 167.601562 169.972656 164.246094 170.910156 160.957031 171.179688 C 156.125 171.582031 150.957031 170.039062 147.605469 166.414062 C 145.65625 164.46875 144.652344 161.851562 144.113281 159.234375 C 143.511719 155.34375 144.382812 151.382812 145.792969 147.691406 C 144.582031 149.234375 143.242188 150.578125 142.300781 152.257812 C 139.148438 157.421875 137.671875 163.53125 138.277344 169.570312 C 138.746094 173.730469 140.558594 177.957031 143.914062 180.707031 C 146.664062 177.21875 151.027344 175.472656 155.253906 174.667969 C 158.476562 174.199219 161.828125 174.132812 164.917969 175.273438 C 166.59375 175.945312 168.273438 177.085938 168.808594 178.898438 C 169.546875 181.109375 168.339844 183.59375 166.460938 184.867188 C 164.3125 186.414062 161.628906 187.015625 159.011719 187.21875 C 153.910156 187.417969 148.609375 186.277344 144.179688 183.59375 C 142.636719 187.554688 143.644531 192.183594 146.195312 195.539062 C 149.148438 199.765625 153.910156 202.25 158.675781 203.726562 C 164.378906 205.539062 170.488281 205.871094 176.457031 205.203125 C 176.125 202.585938 176.054688 199.96875 176.59375 197.351562 C 177.464844 191.980469 180.285156 187.082031 183.640625 182.789062 C 185.183594 180.640625 186.996094 178.5625 188.402344 176.28125 C 186.1875 172.386719 185.316406 168.027344 184.175781 163.730469 C 182.96875 159.101562 181.828125 154.335938 179.679688 150.042969 C 179.074219 149.035156 180.621094 148.027344 181.289062 148.96875 C 185.25 157.085938 185.988281 166.347656 189.542969 174.667969 C 190.417969 173.191406 191.289062 171.785156 192.027344 170.238281 C 194.644531 165.074219 195.785156 159.367188 197.460938 153.867188 C 198.605469 149.707031 200.148438 145.613281 202.226562 141.789062 C 203.367188 139.707031 204.910156 137.894531 206.65625 136.285156 C 209.339844 133.867188 213.164062 132.59375 216.789062 133.464844 C 218.535156 133.867188 219.941406 135.078125 221.152344 136.417969 C 222.828125 138.230469 224.507812 140.042969 226.722656 141.316406 C 230.34375 143.53125 234.839844 144.335938 239 143.464844 C 241.148438 142.996094 243.230469 142.191406 244.703125 140.578125 C 246.988281 138.296875 247.726562 134.941406 247.726562 131.789062 C 247.65625 126.890625 245.914062 121.925781 242.691406 118.234375 C 242.492188 117.898438 242.15625 118.300781 241.953125 118.433594 C 240.140625 119.976562 238.867188 122.125 238.398438 124.472656 C 237.925781 127.089844 238.195312 129.910156 239.738281 132.125 C 240.207031 132.863281 239.472656 133.535156 238.867188 133.800781 C 238.464844 133.535156 238.0625 133.265625 237.859375 132.863281 C 236.449219 130.515625 236.183594 127.695312 236.449219 125.078125 C 236.785156 121.789062 238.464844 118.570312 241.28125 116.691406 C 234.035156 110.382812 223.632812 108.4375 214.304688 110.246094 Z M 206.65625 113.671875 C 204.242188 115.550781 204.039062 119.375 205.785156 121.789062 C 207.597656 124.609375 211.085938 125.882812 214.304688 125.816406 C 216.386719 125.75 218.601562 125.28125 220.078125 123.804688 C 221.015625 122.929688 221.554688 121.453125 220.949219 120.246094 C 220.144531 118.367188 218.464844 117.160156 216.722656 116.152344 C 213.972656 114.878906 210.949219 113.871094 207.863281 113.601562 C 207.460938 113.601562 206.992188 113.402344 206.65625 113.671875 Z M 185.71875 120.382812 C 182.429688 123.332031 180.285156 128.097656 181.558594 132.527344 C 182.097656 134.808594 184.175781 136.554688 186.523438 136.753906 C 189.945312 137.023438 193.570312 135.011719 194.777344 131.722656 C 195.785156 129.238281 195.046875 126.421875 193.371094 124.40625 C 191.558594 122.058594 188.605469 120.917969 185.71875 120.382812 Z M 267.65625 138.699219 C 265.910156 141.519531 265.238281 145.144531 266.3125 148.363281 C 266.851562 149.839844 267.855469 151.25 269.398438 151.785156 C 270.941406 152.324219 272.753906 151.785156 273.761719 150.578125 C 274.699219 149.4375 275.304688 148.027344 275.640625 146.617188 C 276.714844 142.324219 276.109375 137.761719 274.769531 133.601562 C 271.816406 134.203125 269.265625 136.21875 267.65625 138.699219 Z M 156.394531 138.363281 C 156.394531 139.773438 156.527344 141.453125 157.402344 142.59375 C 160.421875 142.929688 163.507812 143.667969 166.527344 142.996094 C 168.273438 142.59375 170.082031 141.789062 170.890625 140.175781 C 171.492188 138.96875 171.023438 137.492188 169.949219 136.820312 C 168.339844 135.679688 166.324219 135.546875 164.445312 135.613281 C 161.5625 135.746094 158.808594 136.820312 156.394531 138.363281 Z M 151.226562 142.929688 C 152.503906 142.59375 153.910156 142.527344 155.253906 142.457031 C 154.917969 141.585938 154.714844 140.578125 154.515625 139.640625 C 153.375 140.648438 152.234375 141.789062 151.226562 142.929688 Z M 149.484375 145.410156 C 148.8125 145.746094 148.609375 146.417969 148.273438 147.023438 C 146.53125 150.109375 145.726562 153.800781 145.792969 157.421875 C 145.992188 161.179688 147.871094 164.9375 151.09375 166.953125 C 155.253906 169.636719 160.757812 170.171875 165.386719 168.359375 C 167.132812 167.757812 168.875 166.683594 170.015625 165.140625 C 171.089844 163.730469 171.558594 161.851562 171.023438 160.175781 C 170.21875 157.289062 168.003906 155.207031 165.855469 153.261719 C 162.5 150.445312 158.40625 148.296875 156.125 144.40625 C 153.84375 144.269531 151.496094 144.335938 149.484375 145.410156 Z M 289.128906 149.972656 C 287.382812 151.652344 286.78125 154.269531 287.449219 156.550781 C 287.855469 157.625 288.589844 158.832031 289.867188 159.035156 C 291.140625 159.167969 292.082031 157.960938 292.617188 156.953125 C 293.960938 154.269531 293.824219 151.046875 293.421875 148.164062 C 291.878906 148.363281 290.269531 148.832031 289.128906 149.972656 Z M 220.210938 160.039062 C 218.332031 162.390625 217.394531 165.476562 217.394531 168.496094 C 217.324219 171.113281 218.0625 173.863281 219.808594 175.808594 C 221.21875 175.003906 222.359375 173.929688 223.5 172.855469 C 226.183594 170.039062 228.667969 166.886719 229.539062 163.058594 C 229.875 161.652344 229.941406 160.039062 229.136719 158.832031 C 228.332031 157.625 226.789062 157.15625 225.378906 157.222656 C 223.296875 157.222656 221.417969 158.429688 220.210938 160.039062 Z M 291.878906 174.804688 C 290.402344 176.011719 289.464844 177.890625 289.664062 179.835938 C 289.597656 181.78125 290.804688 183.59375 292.617188 184.398438 C 295.035156 185.605469 298.054688 184.867188 300.199219 183.394531 C 302.550781 181.648438 304.429688 179.164062 305.433594 176.347656 C 303.488281 174.402344 300.871094 173.261719 298.1875 172.992188 C 295.972656 172.789062 293.558594 173.261719 291.878906 174.804688 Z M 156.125 176.347656 C 152.03125 176.949219 147.871094 178.695312 145.1875 181.917969 C 147.671875 183.527344 150.488281 184.601562 153.441406 185.070312 C 156.863281 185.605469 160.488281 185.675781 163.777344 184.265625 C 165.253906 183.59375 166.863281 182.453125 167.132812 180.707031 C 167.398438 179.230469 166.191406 177.957031 165.050781 177.351562 C 162.300781 175.945312 159.078125 176.011719 156.125 176.347656 Z M 228.601562 180.238281 C 225.511719 180.371094 222.15625 180.105469 219.675781 178.160156 C 217.863281 179.164062 215.984375 180.171875 214.039062 180.84375 C 210.210938 182.25 206.253906 183.324219 202.160156 183.191406 C 197.460938 183.257812 192.496094 181.648438 189.476562 177.890625 C 186.523438 182.183594 183.035156 186.210938 180.6875 190.910156 C 178.605469 195.203125 177.464844 200.101562 178.335938 204.867188 C 182.230469 203.992188 186.121094 202.851562 189.746094 201.042969 C 194.578125 198.894531 199.007812 195.808594 203.835938 193.59375 C 208.667969 191.3125 214.039062 190.238281 219.339844 190.640625 C 226.050781 191.042969 232.359375 193.390625 238.933594 194.734375 C 242.019531 195.269531 245.175781 195.808594 248.328125 195.671875 C 251.886719 195.605469 255.777344 194.933594 258.527344 192.453125 C 261.882812 189.632812 262.285156 183.929688 259.132812 180.84375 C 256.582031 178.425781 252.890625 177.488281 249.402344 177.421875 C 242.355469 177.152344 235.644531 179.835938 228.601562 180.238281 Z M 285.4375 200.4375 C 285.570312 200.503906 285.773438 200.503906 285.839844 200.570312 C 286.847656 198.894531 287.585938 197.015625 287.519531 195.070312 C 287.316406 195 287.046875 194.933594 286.914062 194.933594 C 285.4375 196.34375 284.832031 198.558594 285.4375 200.4375 Z M 221.351562 208.421875 C 218.871094 209.363281 216.183594 210.90625 215.3125 213.65625 C 214.507812 216.074219 215.851562 218.554688 217.527344 220.300781 C 220.078125 223.117188 223.632812 224.730469 226.789062 226.808594 C 228.464844 226.140625 230.210938 225.667969 231.886719 224.996094 C 234.773438 223.789062 237.523438 222.3125 240.34375 221.039062 C 240.34375 218.421875 239.875 215.738281 238.734375 213.320312 C 237.726562 211.039062 235.710938 209.296875 233.363281 208.488281 C 229.539062 207.082031 225.246094 207.148438 221.351562 208.421875 Z M 255.308594 216.945312 C 250.878906 218.421875 246.449219 220.03125 242.289062 222.246094 C 242.691406 227.414062 242.421875 232.714844 244.101562 237.679688 C 245.511719 241.773438 248.867188 245.128906 252.890625 246.671875 C 252.691406 239.15625 252.085938 231.574219 251.214844 224.058594 C 251.148438 223.523438 251.148438 222.984375 251.214844 222.382812 C 251.816406 221.910156 252.824219 222.046875 252.957031 222.984375 C 253.832031 231.105469 254.636719 239.292969 254.703125 247.476562 C 256.917969 248.285156 259.265625 248.617188 261.617188 248.886719 C 268.660156 249.691406 275.976562 248.617188 282.484375 245.800781 C 286.109375 244.121094 289.53125 241.773438 291.945312 238.554688 C 294.429688 235.332031 295.773438 231.171875 295.167969 227.144531 C 294.5625 227.414062 293.960938 227.546875 293.355469 227.613281 C 288.324219 228.21875 283.023438 227.011719 278.996094 223.925781 C 275.773438 221.375 273.292969 217.886719 272.082031 213.992188 C 266.378906 214.125 260.742188 215.269531 255.308594 216.945312 Z M 274.03125 213.992188 C 275.574219 218.421875 278.863281 222.3125 283.15625 224.261719 C 286.78125 226.003906 291.007812 226.339844 294.898438 225.402344 C 293.894531 221.84375 291.074219 219.160156 287.921875 217.347656 C 283.691406 215 278.863281 214.195312 274.03125 213.992188 Z M 228.601562 228.085938 C 231.351562 229.964844 233.765625 232.445312 235.445312 235.265625 C 237.589844 238.6875 238.867188 242.578125 239.875 246.472656 C 241.148438 251.101562 242.691406 255.933594 245.847656 259.691406 C 246.785156 260.632812 247.792969 261.773438 249.132812 262.175781 C 250.140625 262.375 250.746094 261.300781 251.148438 260.5625 C 252.691406 256.804688 252.757812 252.78125 252.957031 248.820312 C 250.339844 247.679688 247.859375 246.269531 245.980469 244.191406 C 243.429688 241.574219 241.953125 238.152344 241.351562 234.59375 C 240.8125 230.769531 240.542969 226.875 240.542969 223.050781 C 236.585938 224.730469 232.761719 226.808594 228.601562 228.085938 Z M 228.601562 228.085938 " fill-opacity="1" fill-rule="evenodd"/></g><g transform="matrix(1, 0, 0, 1, 71, 282)"><g clip-path="url(#91b034a68e)"><g fill="#000000" fill-opacity="1"><g transform="translate(11.391667, 59.702558)"><g><path d="M 4.96875 -12.09375 C 4.3125 -14.289062 3.75 -16.066406 3.28125 -17.421875 C 2.820312 -18.773438 2.503906 -19.546875 2.328125 -19.734375 C 2.140625 -19.972656 1.921875 -20.101562 1.671875 -20.125 C 1.421875 -20.15625 0.957031 -20.070312 0.28125 -19.875 L -0.28125 -19.703125 C -0.59375 -19.609375 -0.835938 -19.613281 -1.015625 -19.71875 C -1.191406 -19.832031 -1.332031 -20.054688 -1.4375 -20.390625 C -1.570312 -20.847656 -1.523438 -21.25 -1.296875 -21.59375 C -1.066406 -21.945312 -0.445312 -22.484375 0.5625 -23.203125 C 1.769531 -24.023438 2.96875 -24.75 4.15625 -25.375 C 5.351562 -26.007812 6.320312 -26.4375 7.0625 -26.65625 C 7.625 -26.820312 8.097656 -26.835938 8.484375 -26.703125 C 8.878906 -26.578125 9.140625 -26.304688 9.265625 -25.890625 C 9.378906 -25.492188 9.238281 -25.046875 8.84375 -24.546875 C 8.457031 -24.046875 8.25 -23.703125 8.21875 -23.515625 C 8.195312 -23.242188 8.289062 -22.695312 8.5 -21.875 C 8.707031 -21.050781 9.25 -19.171875 10.125 -16.234375 C 10.675781 -14.398438 11.1875 -12.753906 11.65625 -11.296875 C 12.125 -9.835938 12.46875 -8.820312 12.6875 -8.25 C 12.851562 -7.882812 13.007812 -7.632812 13.15625 -7.5 C 13.3125 -7.375 13.535156 -7.289062 13.828125 -7.25 C 14.179688 -7.207031 14.664062 -7.234375 15.28125 -7.328125 C 16.1875 -7.460938 16.71875 -7.269531 16.875 -6.75 C 17.082031 -6.050781 16.828125 -5.460938 16.109375 -4.984375 C 15.390625 -4.503906 13.707031 -3.867188 11.0625 -3.078125 C 8.195312 -2.222656 6.320312 -1.796875 5.4375 -1.796875 C 4.550781 -1.796875 4 -2.15625 3.78125 -2.875 C 3.695312 -3.15625 3.726562 -3.40625 3.875 -3.625 C 4.019531 -3.84375 4.25 -4 4.5625 -4.09375 C 5.09375 -4.257812 5.5625 -4.5 5.96875 -4.8125 C 6.382812 -5.132812 6.597656 -5.425781 6.609375 -5.6875 C 6.609375 -5.96875 6.5 -6.554688 6.28125 -7.453125 C 6.0625 -8.359375 5.625 -9.90625 4.96875 -12.09375 Z M 4.96875 -12.09375 "/></g></g></g><g fill="#000000" fill-opacity="1"><g transform="translate(31.684356, 53.690612)"><g><path d="M -2.203125 -13.09375 C -2.628906 -14.75 -2.425781 -16.222656 -1.59375 -17.515625 C -0.757812 -18.804688 0.554688 -19.679688 2.359375 -20.140625 C 2.796875 -20.253906 3.296875 -20.335938 3.859375 -20.390625 C 4.429688 -20.453125 4.773438 -20.5 4.890625 -20.53125 C 5.097656 -20.582031 5.398438 -20.765625 5.796875 -21.078125 C 6.191406 -21.390625 6.5 -21.578125 6.71875 -21.640625 C 6.957031 -21.691406 7.234375 -21.664062 7.546875 -21.5625 C 7.867188 -21.46875 8.179688 -21.304688 8.484375 -21.078125 C 9.148438 -20.523438 9.726562 -19.894531 10.21875 -19.1875 C 10.71875 -18.476562 11.046875 -17.8125 11.203125 -17.1875 C 11.328125 -16.726562 11.316406 -16.328125 11.171875 -15.984375 C 11.023438 -15.648438 10.765625 -15.4375 10.390625 -15.34375 C 10.109375 -15.269531 9.828125 -15.28125 9.546875 -15.375 C 9.265625 -15.476562 8.898438 -15.703125 8.453125 -16.046875 C 8.316406 -16.140625 8.132812 -16.285156 7.90625 -16.484375 C 6.601562 -17.578125 5.457031 -18 4.46875 -17.75 C 4.03125 -17.632812 3.695312 -17.398438 3.46875 -17.046875 C 3.238281 -16.703125 3.171875 -16.335938 3.265625 -15.953125 C 3.460938 -15.179688 4.660156 -14.597656 6.859375 -14.203125 C 7.410156 -14.097656 7.835938 -14.003906 8.140625 -13.921875 C 9.878906 -13.578125 11.203125 -13.054688 12.109375 -12.359375 C 13.015625 -11.660156 13.628906 -10.6875 13.953125 -9.4375 C 14.390625 -7.707031 14.097656 -6.101562 13.078125 -4.625 C 12.054688 -3.144531 10.519531 -2.144531 8.46875 -1.625 C 7.925781 -1.488281 7.300781 -1.394531 6.59375 -1.34375 C 5.894531 -1.289062 5.472656 -1.242188 5.328125 -1.203125 C 5.148438 -1.160156 4.890625 -1.03125 4.546875 -0.8125 C 4.210938 -0.601562 3.957031 -0.476562 3.78125 -0.4375 C 3.5 -0.363281 3.191406 -0.378906 2.859375 -0.484375 C 2.535156 -0.585938 2.238281 -0.769531 1.96875 -1.03125 C 1.289062 -1.625 0.710938 -2.273438 0.234375 -2.984375 C -0.234375 -3.703125 -0.546875 -4.359375 -0.703125 -4.953125 C -0.835938 -5.492188 -0.816406 -5.96875 -0.640625 -6.375 C -0.472656 -6.789062 -0.1875 -7.050781 0.21875 -7.15625 C 0.800781 -7.3125 1.660156 -6.863281 2.796875 -5.8125 C 3.117188 -5.5 3.367188 -5.269531 3.546875 -5.125 C 4.054688 -4.675781 4.675781 -4.367188 5.40625 -4.203125 C 6.144531 -4.046875 6.859375 -4.054688 7.546875 -4.234375 C 8.171875 -4.398438 8.632812 -4.675781 8.9375 -5.0625 C 9.25 -5.445312 9.34375 -5.882812 9.21875 -6.375 C 9 -7.226562 7.523438 -7.953125 4.796875 -8.546875 L 4.578125 -8.609375 C 2.148438 -9.085938 0.492188 -9.644531 -0.390625 -10.28125 C -1.285156 -10.925781 -1.890625 -11.863281 -2.203125 -13.09375 Z M -2.203125 -13.09375 "/></g></g></g><g fill="#000000" fill-opacity="1"><g transform="translate(47.368566, 49.698453)"><g><path d="M 1.703125 -6.625 L -0.265625 -15.984375 L -2.390625 -15.515625 C -2.703125 -15.441406 -2.921875 -15.457031 -3.046875 -15.5625 C -3.171875 -15.664062 -3.300781 -16.050781 -3.4375 -16.71875 C -3.5625 -17.28125 -3.273438 -17.96875 -2.578125 -18.78125 C -2.429688 -18.9375 -2.316406 -19.0625 -2.234375 -19.15625 C -1.992188 -19.445312 -1.660156 -19.84375 -1.234375 -20.34375 C 0.765625 -22.675781 2.148438 -23.925781 2.921875 -24.09375 C 3.378906 -24.195312 3.679688 -24.195312 3.828125 -24.09375 C 3.984375 -24 4.128906 -23.648438 4.265625 -23.046875 L 4.3125 -22.828125 L 4.921875 -20.078125 L 9.34375 -21.046875 C 9.71875 -21.128906 9.96875 -21.132812 10.09375 -21.0625 C 10.21875 -21 10.316406 -20.800781 10.390625 -20.46875 C 10.585938 -19.550781 10.65625 -18.972656 10.59375 -18.734375 C 10.53125 -18.492188 10.222656 -18.316406 9.671875 -18.203125 L 5.53125 -17.28125 L 7.390625 -8.859375 C 7.710938 -7.367188 8.066406 -6.382812 8.453125 -5.90625 C 8.847656 -5.4375 9.394531 -5.273438 10.09375 -5.421875 C 10.539062 -5.523438 11.0625 -5.796875 11.65625 -6.234375 C 12.257812 -6.679688 12.691406 -6.9375 12.953125 -7 C 13.234375 -7.0625 13.5 -7.007812 13.75 -6.84375 C 14 -6.6875 14.15625 -6.457031 14.21875 -6.15625 C 14.40625 -5.320312 13.957031 -4.40625 12.875 -3.40625 C 11.800781 -2.414062 10.453125 -1.738281 8.828125 -1.375 C 6.828125 -0.9375 5.269531 -1.113281 4.15625 -1.90625 C 3.039062 -2.707031 2.234375 -4.234375 1.734375 -6.484375 Z M 1.703125 -6.625 "/></g></g></g><g fill="#000000" fill-opacity="1"><g transform="translate(61.925079, 46.52535)"><g/></g></g><g fill="#000000" fill-opacity="1"><g transform="translate(72.100487, 44.451208)"><g><path d="M 14.03125 -29.078125 C 14.65625 -29.171875 15.296875 -29.328125 15.953125 -29.546875 C 16.617188 -29.773438 16.972656 -29.894531 17.015625 -29.90625 C 17.566406 -29.988281 18.097656 -29.59375 18.609375 -28.71875 C 19.128906 -27.84375 19.503906 -26.695312 19.734375 -25.28125 C 19.828125 -24.664062 19.78125 -24.179688 19.59375 -23.828125 C 19.414062 -23.484375 19.101562 -23.273438 18.65625 -23.203125 C 18.40625 -23.171875 18.164062 -23.207031 17.9375 -23.3125 C 17.71875 -23.414062 17.4375 -23.640625 17.09375 -23.984375 C 17.019531 -24.054688 16.910156 -24.160156 16.765625 -24.296875 C 16.265625 -24.835938 15.800781 -25.171875 15.375 -25.296875 C 14.820312 -25.460938 14.171875 -25.539062 13.421875 -25.53125 C 12.679688 -25.53125 11.671875 -25.429688 10.390625 -25.234375 C 9.015625 -25.015625 8.101562 -24.816406 7.65625 -24.640625 C 7.21875 -24.460938 6.976562 -24.226562 6.9375 -23.9375 C 6.875 -23.582031 6.890625 -22.898438 6.984375 -21.890625 C 7.085938 -20.878906 7.253906 -19.632812 7.484375 -18.15625 C 7.609375 -17.332031 8.359375 -17.03125 9.734375 -17.25 C 11.191406 -17.46875 12.109375 -17.710938 12.484375 -17.984375 C 12.867188 -18.253906 13.082031 -18.722656 13.125 -19.390625 C 13.15625 -19.585938 13.164062 -19.878906 13.15625 -20.265625 C 13.101562 -21.335938 13.453125 -21.929688 14.203125 -22.046875 C 14.859375 -22.148438 15.382812 -21.820312 15.78125 -21.0625 C 16.175781 -20.3125 16.53125 -18.929688 16.84375 -16.921875 C 17.1875 -14.679688 17.28125 -13.144531 17.125 -12.3125 C 16.96875 -11.488281 16.53125 -11.019531 15.8125 -10.90625 C 15.144531 -10.800781 14.679688 -11.226562 14.421875 -12.1875 C 14.296875 -12.613281 14.1875 -12.929688 14.09375 -13.140625 C 13.851562 -13.742188 13.507812 -14.113281 13.0625 -14.25 C 12.625 -14.394531 11.691406 -14.359375 10.265625 -14.140625 L 9.828125 -14.078125 C 9.023438 -13.953125 8.550781 -13.796875 8.40625 -13.609375 C 8.257812 -13.429688 8.25 -12.941406 8.375 -12.140625 C 8.800781 -9.378906 9.097656 -7.625 9.265625 -6.875 C 9.441406 -6.125 9.617188 -5.65625 9.796875 -5.46875 C 9.941406 -5.28125 10.273438 -5.132812 10.796875 -5.03125 C 10.992188 -4.976562 11.140625 -4.941406 11.234375 -4.921875 C 11.660156 -4.804688 11.960938 -4.65625 12.140625 -4.46875 C 12.328125 -4.28125 12.445312 -4.007812 12.5 -3.65625 C 12.613281 -2.96875 12.332031 -2.441406 11.65625 -2.078125 C 10.988281 -1.710938 9.378906 -1.332031 6.828125 -0.9375 C 4.347656 -0.5625 2.710938 -0.441406 1.921875 -0.578125 C 1.140625 -0.722656 0.695312 -1.140625 0.59375 -1.828125 C 0.5 -2.453125 0.78125 -2.992188 1.4375 -3.453125 C 2.09375 -3.910156 2.453125 -4.207031 2.515625 -4.34375 C 2.640625 -4.613281 2.609375 -5.648438 2.421875 -7.453125 C 2.242188 -9.253906 1.921875 -11.671875 1.453125 -14.703125 C 1.085938 -17.097656 0.742188 -19.007812 0.421875 -20.4375 C 0.109375 -21.863281 -0.148438 -22.691406 -0.359375 -22.921875 C -0.460938 -23.023438 -0.894531 -23.195312 -1.65625 -23.4375 C -2.414062 -23.675781 -2.84375 -24.109375 -2.9375 -24.734375 C -3.03125 -25.378906 -2.800781 -25.863281 -2.25 -26.1875 C -1.707031 -26.519531 -0.160156 -26.882812 2.390625 -27.28125 Z M 14.03125 -29.078125 "/></g></g></g><g fill="#000000" fill-opacity="1"><g transform="translate(94.855564, 40.945987)"><g><path d="M -0.015625 -9.0625 C -0.171875 -10.53125 -0.0507812 -11.914062 0.34375 -13.21875 C 0.75 -14.519531 1.410156 -15.691406 2.328125 -16.734375 C 3.210938 -17.722656 4.238281 -18.507812 5.40625 -19.09375 C 6.582031 -19.675781 7.847656 -20.039062 9.203125 -20.1875 C 11.953125 -20.476562 14.316406 -19.84375 16.296875 -18.28125 C 18.273438 -16.726562 19.410156 -14.585938 19.703125 -11.859375 C 19.847656 -10.410156 19.738281 -9.050781 19.375 -7.78125 C 19.019531 -6.519531 18.429688 -5.363281 17.609375 -4.3125 C 16.722656 -3.25 15.695312 -2.40625 14.53125 -1.78125 C 13.375 -1.15625 12.085938 -0.765625 10.671875 -0.609375 C 7.816406 -0.304688 5.394531 -0.9375 3.40625 -2.5 C 1.425781 -4.070312 0.285156 -6.257812 -0.015625 -9.0625 Z M 11.234375 -4.046875 C 12.085938 -4.140625 12.71875 -4.578125 13.125 -5.359375 C 13.53125 -6.148438 13.664062 -7.195312 13.53125 -8.5 C 13.269531 -10.914062 12.617188 -12.925781 11.578125 -14.53125 C 10.535156 -16.132812 9.453125 -16.878906 8.328125 -16.765625 C 7.503906 -16.671875 6.90625 -16.210938 6.53125 -15.390625 C 6.164062 -14.578125 6.054688 -13.46875 6.203125 -12.0625 C 6.453125 -9.738281 7.082031 -7.789062 8.09375 -6.21875 C 9.101562 -4.65625 10.148438 -3.929688 11.234375 -4.046875 Z M 11.234375 -4.046875 "/></g></g></g><g fill="#000000" fill-opacity="1"><g transform="translate(116.034467, 38.716673)"><g><path d="M 0.375 -9.0625 C 0.1875 -11.945312 1.019531 -14.40625 2.875 -16.4375 C 4.738281 -18.46875 7.179688 -19.578125 10.203125 -19.765625 C 12.328125 -19.898438 14.125 -19.5 15.59375 -18.5625 C 17.0625 -17.625 17.84375 -16.40625 17.9375 -14.90625 C 17.988281 -14.039062 17.757812 -13.320312 17.25 -12.75 C 16.738281 -12.175781 16.050781 -11.863281 15.1875 -11.8125 C 14.46875 -11.769531 13.859375 -11.941406 13.359375 -12.328125 C 12.867188 -12.722656 12.257812 -13.664062 11.53125 -15.15625 C 11.320312 -15.625 11 -15.976562 10.5625 -16.21875 C 10.132812 -16.46875 9.65625 -16.578125 9.125 -16.546875 C 8.195312 -16.484375 7.503906 -16.0625 7.046875 -15.28125 C 6.585938 -14.5 6.398438 -13.414062 6.484375 -12.03125 C 6.628906 -9.78125 7.265625 -7.972656 8.390625 -6.609375 C 9.515625 -5.242188 10.878906 -4.609375 12.484375 -4.703125 C 13.265625 -4.753906 14.15625 -5.050781 15.15625 -5.59375 C 16.164062 -6.144531 16.8125 -6.425781 17.09375 -6.4375 C 17.46875 -6.457031 17.785156 -6.363281 18.046875 -6.15625 C 18.304688 -5.945312 18.445312 -5.664062 18.46875 -5.3125 C 18.488281 -4.957031 18.382812 -4.566406 18.15625 -4.140625 C 17.925781 -3.722656 17.601562 -3.328125 17.1875 -2.953125 C 16.1875 -2.066406 15.164062 -1.398438 14.125 -0.953125 C 13.09375 -0.503906 11.960938 -0.238281 10.734375 -0.15625 C 7.835938 0.0195312 5.429688 -0.710938 3.515625 -2.359375 C 1.597656 -4.003906 0.550781 -6.238281 0.375 -9.0625 Z M 0.375 -9.0625 "/></g></g></g><g fill="#000000" fill-opacity="1"><g transform="translate(134.554095, 37.480736)"><g><path d="M 15.203125 -1.109375 L 15.1875 -2.015625 C 15.1875 -2.179688 15.164062 -2.304688 15.125 -2.390625 C 15.082031 -2.484375 15.023438 -2.53125 14.953125 -2.53125 C 14.816406 -2.53125 14.601562 -2.367188 14.3125 -2.046875 C 14.019531 -1.722656 13.757812 -1.457031 13.53125 -1.25 C 12.914062 -0.738281 12.207031 -0.34375 11.40625 -0.0625 C 10.601562 0.207031 9.726562 0.347656 8.78125 0.359375 C 7.425781 0.378906 6.25 0.101562 5.25 -0.46875 C 4.257812 -1.050781 3.539062 -1.878906 3.09375 -2.953125 C 2.820312 -3.585938 2.617188 -4.335938 2.484375 -5.203125 C 2.359375 -6.078125 2.28125 -7.328125 2.25 -8.953125 L 2.203125 -12.015625 C 2.179688 -12.867188 2.117188 -13.429688 2.015625 -13.703125 C 1.921875 -13.984375 1.75 -14.160156 1.5 -14.234375 C 1.363281 -14.273438 1.148438 -14.335938 0.859375 -14.421875 C 0.015625 -14.671875 -0.410156 -15.09375 -0.421875 -15.6875 C -0.421875 -15.976562 -0.300781 -16.253906 -0.0625 -16.515625 C 0.175781 -16.773438 0.535156 -17.019531 1.015625 -17.25 C 2.109375 -17.78125 3.191406 -18.195312 4.265625 -18.5 C 5.347656 -18.8125 6.273438 -18.972656 7.046875 -18.984375 C 7.578125 -18.992188 7.925781 -18.882812 8.09375 -18.65625 C 8.269531 -18.425781 8.363281 -17.898438 8.375 -17.078125 C 8.382812 -16.535156 8.367188 -15.457031 8.328125 -13.84375 C 8.285156 -12.226562 8.273438 -10.890625 8.296875 -9.828125 C 8.335938 -7.765625 8.601562 -6.300781 9.09375 -5.4375 C 9.59375 -4.570312 10.394531 -4.148438 11.5 -4.171875 C 12.800781 -4.191406 13.722656 -4.757812 14.265625 -5.875 C 14.816406 -6.988281 15.066406 -8.914062 15.015625 -11.65625 C 14.992188 -12.707031 14.941406 -13.394531 14.859375 -13.71875 C 14.773438 -14.050781 14.640625 -14.300781 14.453125 -14.46875 C 14.335938 -14.53125 14.125 -14.59375 13.8125 -14.65625 C 12.875 -14.863281 12.398438 -15.28125 12.390625 -15.90625 C 12.390625 -16.195312 12.503906 -16.472656 12.734375 -16.734375 C 12.972656 -16.992188 13.335938 -17.242188 13.828125 -17.484375 C 14.921875 -18.015625 16.003906 -18.429688 17.078125 -18.734375 C 18.160156 -19.035156 19.085938 -19.195312 19.859375 -19.21875 C 20.378906 -19.226562 20.726562 -19.113281 20.90625 -18.875 C 21.082031 -18.632812 21.175781 -18.117188 21.1875 -17.328125 C 21.1875 -17.160156 21.171875 -16.179688 21.140625 -14.390625 C 21.117188 -12.597656 21.125 -10.894531 21.15625 -9.28125 C 21.1875 -7.601562 21.25 -6.457031 21.34375 -5.84375 C 21.445312 -5.226562 21.609375 -4.835938 21.828125 -4.671875 C 21.878906 -4.628906 22.238281 -4.507812 22.90625 -4.3125 C 23.582031 -4.125 23.925781 -3.742188 23.9375 -3.171875 C 23.9375 -2.867188 23.816406 -2.585938 23.578125 -2.328125 C 23.335938 -2.066406 22.976562 -1.828125 22.5 -1.609375 C 21.375 -1.046875 20.269531 -0.601562 19.1875 -0.28125 C 18.101562 0.0390625 17.195312 0.210938 16.46875 0.234375 C 16 0.234375 15.671875 0.144531 15.484375 -0.03125 C 15.304688 -0.21875 15.210938 -0.578125 15.203125 -1.109375 Z M 15.203125 -1.109375 "/></g></g></g><g fill="#000000" fill-opacity="1"><g transform="translate(158.214118, 37.134587)"><g><path d="M 1.421875 -13.203125 C 1.460938 -14.910156 2.0625 -16.273438 3.21875 -17.296875 C 4.375 -18.316406 5.878906 -18.800781 7.734375 -18.75 C 8.191406 -18.738281 8.703125 -18.6875 9.265625 -18.59375 C 9.828125 -18.5 10.164062 -18.445312 10.28125 -18.4375 C 10.5 -18.4375 10.835938 -18.53125 11.296875 -18.71875 C 11.765625 -18.914062 12.113281 -19.007812 12.34375 -19 C 12.582031 -18.988281 12.84375 -18.890625 13.125 -18.703125 C 13.40625 -18.523438 13.660156 -18.28125 13.890625 -17.96875 C 14.378906 -17.269531 14.765625 -16.507812 15.046875 -15.6875 C 15.335938 -14.875 15.472656 -14.148438 15.453125 -13.515625 C 15.441406 -13.035156 15.320312 -12.648438 15.09375 -12.359375 C 14.863281 -12.078125 14.554688 -11.941406 14.171875 -11.953125 C 13.878906 -11.953125 13.609375 -12.039062 13.359375 -12.21875 C 13.117188 -12.394531 12.832031 -12.707031 12.5 -13.15625 C 12.394531 -13.28125 12.257812 -13.46875 12.09375 -13.71875 C 11.132812 -15.132812 10.144531 -15.851562 9.125 -15.875 C 8.675781 -15.882812 8.289062 -15.753906 7.96875 -15.484375 C 7.644531 -15.210938 7.484375 -14.878906 7.484375 -14.484375 C 7.460938 -13.691406 8.453125 -12.800781 10.453125 -11.8125 C 10.960938 -11.550781 11.351562 -11.347656 11.625 -11.203125 C 13.207031 -10.398438 14.335938 -9.535156 15.015625 -8.609375 C 15.691406 -7.691406 16.015625 -6.585938 15.984375 -5.296875 C 15.941406 -3.515625 15.226562 -2.050781 13.84375 -0.90625 C 12.457031 0.238281 10.707031 0.785156 8.59375 0.734375 C 8.03125 0.710938 7.40625 0.628906 6.71875 0.484375 C 6.03125 0.347656 5.613281 0.28125 5.46875 0.28125 C 5.28125 0.269531 4.992188 0.320312 4.609375 0.4375 C 4.222656 0.550781 3.9375 0.609375 3.75 0.609375 C 3.46875 0.597656 3.179688 0.5 2.890625 0.3125 C 2.597656 0.125 2.359375 -0.132812 2.171875 -0.46875 C 1.691406 -1.21875 1.316406 -2 1.046875 -2.8125 C 0.773438 -3.625 0.648438 -4.335938 0.671875 -4.953125 C 0.679688 -5.515625 0.828125 -5.972656 1.109375 -6.328125 C 1.390625 -6.679688 1.738281 -6.851562 2.15625 -6.84375 C 2.757812 -6.820312 3.460938 -6.15625 4.265625 -4.84375 C 4.492188 -4.457031 4.675781 -4.164062 4.8125 -3.96875 C 5.164062 -3.40625 5.675781 -2.941406 6.34375 -2.578125 C 7.007812 -2.222656 7.703125 -2.039062 8.421875 -2.03125 C 9.066406 -2.007812 9.585938 -2.144531 9.984375 -2.4375 C 10.390625 -2.726562 10.597656 -3.128906 10.609375 -3.640625 C 10.628906 -4.515625 9.398438 -5.609375 6.921875 -6.921875 L 6.75 -7.03125 C 4.53125 -8.15625 3.078125 -9.144531 2.390625 -10 C 1.710938 -10.863281 1.390625 -11.929688 1.421875 -13.203125 Z M 1.421875 -13.203125 "/></g></g></g><g fill="#000000" fill-opacity="1"><g transform="translate(174.445963, 37.579749)"><g/></g></g><g fill="#000000" fill-opacity="1"><g transform="translate(184.824944, 38.019914)"><g><path d="M 18.390625 -24.765625 C 18.679688 -24.941406 18.957031 -25.066406 19.21875 -25.140625 C 19.488281 -25.222656 19.742188 -25.253906 19.984375 -25.234375 C 20.859375 -25.160156 21.664062 -24.4375 22.40625 -23.0625 C 23.144531 -21.6875 23.453125 -20.273438 23.328125 -18.828125 C 23.273438 -18.210938 23.078125 -17.738281 22.734375 -17.40625 C 22.398438 -17.070312 21.976562 -16.929688 21.46875 -16.984375 C 20.738281 -17.046875 19.929688 -17.742188 19.046875 -19.078125 L 18.96875 -19.203125 C 18.195312 -20.335938 17.460938 -21.144531 16.765625 -21.625 C 16.066406 -22.113281 15.25 -22.398438 14.3125 -22.484375 C 13.164062 -22.585938 12.234375 -22.394531 11.515625 -21.90625 C 10.796875 -21.425781 10.394531 -20.738281 10.3125 -19.84375 C 10.175781 -18.332031 11.800781 -16.660156 15.1875 -14.828125 C 15.601562 -14.597656 15.921875 -14.425781 16.140625 -14.3125 C 18.828125 -12.832031 20.632812 -11.445312 21.5625 -10.15625 C 22.488281 -8.875 22.875 -7.328125 22.71875 -5.515625 C 22.5 -3.066406 21.363281 -1.191406 19.3125 0.109375 C 17.257812 1.421875 14.628906 1.9375 11.421875 1.65625 C 9.578125 1.488281 7.851562 1.125 6.25 0.5625 C 4.65625 0.0078125 3.53125 -0.59375 2.875 -1.25 C 2.445312 -1.625 2.101562 -2.347656 1.84375 -3.421875 C 1.59375 -4.492188 1.519531 -5.585938 1.625 -6.703125 C 1.695312 -7.523438 1.894531 -8.132812 2.21875 -8.53125 C 2.539062 -8.925781 2.972656 -9.101562 3.515625 -9.0625 C 4.304688 -8.988281 5.046875 -8.207031 5.734375 -6.71875 C 6.003906 -6.144531 6.21875 -5.703125 6.375 -5.390625 C 6.945312 -4.328125 7.660156 -3.5 8.515625 -2.90625 C 9.367188 -2.3125 10.359375 -1.96875 11.484375 -1.875 C 12.554688 -1.769531 13.472656 -1.988281 14.234375 -2.53125 C 15.003906 -3.070312 15.429688 -3.789062 15.515625 -4.6875 C 15.585938 -5.53125 15.382812 -6.269531 14.90625 -6.90625 C 14.4375 -7.550781 13.3125 -8.382812 11.53125 -9.40625 C 11.300781 -9.53125 10.953125 -9.734375 10.484375 -10.015625 C 8.109375 -11.335938 6.351562 -12.566406 5.21875 -13.703125 C 4.488281 -14.441406 3.96875 -15.269531 3.65625 -16.1875 C 3.351562 -17.113281 3.25 -18.117188 3.34375 -19.203125 C 3.53125 -21.359375 4.585938 -23.082031 6.515625 -24.375 C 8.453125 -25.664062 10.828125 -26.1875 13.640625 -25.9375 C 14.347656 -25.875 15.09375 -25.742188 15.875 -25.546875 C 16.65625 -25.347656 17.492188 -25.085938 18.390625 -24.765625 Z M 18.390625 -24.765625 "/></g></g></g><g fill="#000000" fill-opacity="1"><g transform="translate(207.390409, 40.111249)"><g><path d="M 3.84375 -5.640625 L 5.15625 -15.125 L 2.984375 -15.40625 C 2.679688 -15.445312 2.488281 -15.535156 2.40625 -15.671875 C 2.332031 -15.804688 2.335938 -16.210938 2.421875 -16.890625 C 2.492188 -17.460938 3 -18.007812 3.9375 -18.53125 C 4.132812 -18.632812 4.289062 -18.71875 4.40625 -18.78125 C 4.71875 -18.96875 5.160156 -19.222656 5.734375 -19.546875 C 8.398438 -21.066406 10.128906 -21.78125 10.921875 -21.6875 C 11.378906 -21.625 11.664062 -21.519531 11.78125 -21.375 C 11.894531 -21.238281 11.910156 -20.859375 11.828125 -20.234375 L 11.8125 -20.03125 L 11.4375 -17.234375 L 15.921875 -16.640625 C 16.296875 -16.597656 16.53125 -16.519531 16.625 -16.40625 C 16.726562 -16.289062 16.757812 -16.066406 16.71875 -15.734375 C 16.59375 -14.796875 16.457031 -14.226562 16.3125 -14.03125 C 16.175781 -13.832031 15.832031 -13.769531 15.28125 -13.84375 L 11.078125 -14.390625 L 9.953125 -5.84375 C 9.765625 -4.320312 9.769531 -3.269531 9.96875 -2.6875 C 10.175781 -2.113281 10.628906 -1.78125 11.328125 -1.6875 C 11.785156 -1.625 12.375 -1.695312 13.09375 -1.90625 C 13.8125 -2.125 14.296875 -2.21875 14.546875 -2.1875 C 14.835938 -2.144531 15.070312 -2.003906 15.25 -1.765625 C 15.4375 -1.535156 15.507812 -1.265625 15.46875 -0.953125 C 15.363281 -0.109375 14.628906 0.59375 13.265625 1.15625 C 11.910156 1.726562 10.40625 1.910156 8.75 1.703125 C 6.726562 1.429688 5.328125 0.734375 4.546875 -0.390625 C 3.773438 -1.515625 3.535156 -3.21875 3.828125 -5.5 Z M 3.84375 -5.640625 "/></g></g></g><g fill="#000000" fill-opacity="1"><g transform="translate(222.100216, 42.007819)"><g><path d="M 4.34375 -6.765625 C 4.6875 -8.835938 4.875 -10.414062 4.90625 -11.5 C 4.945312 -12.59375 4.832031 -13.285156 4.5625 -13.578125 C 4.53125 -13.628906 4.203125 -13.8125 3.578125 -14.125 C 2.953125 -14.4375 2.6875 -14.875 2.78125 -15.4375 C 2.832031 -15.71875 3 -15.96875 3.28125 -16.1875 C 3.5625 -16.40625 3.957031 -16.582031 4.46875 -16.71875 C 5.625 -17.03125 6.773438 -17.242188 7.921875 -17.359375 C 9.066406 -17.472656 10.003906 -17.46875 10.734375 -17.34375 C 11.117188 -17.28125 11.398438 -17.160156 11.578125 -16.984375 C 11.753906 -16.804688 11.847656 -16.550781 11.859375 -16.21875 C 11.878906 -15.863281 11.863281 -15.4375 11.8125 -14.9375 C 11.769531 -14.445312 11.828125 -14.1875 11.984375 -14.15625 C 12.171875 -14.125 12.457031 -14.289062 12.84375 -14.65625 C 12.957031 -14.78125 13.054688 -14.875 13.140625 -14.9375 C 13.816406 -15.539062 14.4375 -15.953125 15 -16.171875 C 15.570312 -16.398438 16.15625 -16.460938 16.75 -16.359375 C 17.644531 -16.210938 18.3125 -15.78125 18.75 -15.0625 C 19.1875 -14.34375 19.320312 -13.460938 19.15625 -12.421875 C 19 -11.484375 18.609375 -10.75 17.984375 -10.21875 C 17.359375 -9.6875 16.660156 -9.484375 15.890625 -9.609375 C 15.242188 -9.710938 14.632812 -10.101562 14.0625 -10.78125 C 13.488281 -11.457031 13.0625 -11.816406 12.78125 -11.859375 C 12.269531 -11.941406 11.847656 -11.617188 11.515625 -10.890625 C 11.191406 -10.160156 10.820312 -8.550781 10.40625 -6.0625 C 10.132812 -4.394531 9.988281 -3.3125 9.96875 -2.8125 C 9.957031 -2.320312 10.007812 -1.976562 10.125 -1.78125 C 10.195312 -1.664062 10.546875 -1.40625 11.171875 -1 C 11.804688 -0.59375 12.082031 -0.113281 12 0.4375 C 11.894531 1.0625 11.425781 1.4375 10.59375 1.5625 C 9.757812 1.6875 8.28125 1.578125 6.15625 1.234375 C 4.144531 0.898438 2.789062 0.546875 2.09375 0.171875 C 1.40625 -0.203125 1.113281 -0.703125 1.21875 -1.328125 C 1.300781 -1.867188 1.75 -2.257812 2.5625 -2.5 C 2.875 -2.570312 3.085938 -2.644531 3.203125 -2.71875 C 3.398438 -2.820312 3.570312 -3.097656 3.71875 -3.546875 C 3.863281 -4.003906 4.070312 -5.078125 4.34375 -6.765625 Z M 4.34375 -6.765625 "/></g></g></g><g fill="#000000" fill-opacity="1"><g transform="translate(237.764815, 44.536991)"><g><path d="M 18.875 -5.328125 L 10.109375 -7.109375 C 9.703125 -7.191406 9.4375 -7.203125 9.3125 -7.140625 C 9.1875 -7.085938 9.101562 -6.945312 9.0625 -6.71875 C 8.8125 -5.488281 9.050781 -4.320312 9.78125 -3.21875 C 10.507812 -2.125 11.53125 -1.445312 12.84375 -1.1875 C 13.820312 -0.976562 14.90625 -1.019531 16.09375 -1.3125 C 17.28125 -1.613281 17.960938 -1.75 18.140625 -1.71875 C 18.472656 -1.644531 18.738281 -1.484375 18.9375 -1.234375 C 19.132812 -0.984375 19.207031 -0.71875 19.15625 -0.4375 C 19.0625 0.03125 18.851562 0.4375 18.53125 0.78125 C 18.21875 1.125 17.722656 1.457031 17.046875 1.78125 C 16.054688 2.300781 14.976562 2.628906 13.8125 2.765625 C 12.644531 2.898438 11.457031 2.847656 10.25 2.609375 C 7.445312 2.035156 5.351562 0.695312 3.96875 -1.40625 C 2.582031 -3.507812 2.171875 -5.957031 2.734375 -8.75 C 3.304688 -11.582031 4.679688 -13.726562 6.859375 -15.1875 C 9.046875 -16.65625 11.523438 -17.101562 14.296875 -16.53125 C 16.734375 -16.039062 18.582031 -14.957031 19.84375 -13.28125 C 21.113281 -11.601562 21.539062 -9.71875 21.125 -7.625 C 20.894531 -6.507812 20.628906 -5.8125 20.328125 -5.53125 C 20.023438 -5.257812 19.539062 -5.191406 18.875 -5.328125 Z M 10.296875 -9.78125 L 14.90625 -8.84375 C 15.144531 -8.800781 15.328125 -8.8125 15.453125 -8.875 C 15.585938 -8.945312 15.679688 -9.101562 15.734375 -9.34375 C 15.941406 -10.414062 15.828125 -11.347656 15.390625 -12.140625 C 14.960938 -12.941406 14.304688 -13.429688 13.421875 -13.609375 C 12.609375 -13.773438 11.835938 -13.546875 11.109375 -12.921875 C 10.390625 -12.304688 9.925781 -11.472656 9.71875 -10.421875 C 9.675781 -10.234375 9.695312 -10.09375 9.78125 -10 C 9.863281 -9.914062 10.035156 -9.84375 10.296875 -9.78125 Z M 10.296875 -9.78125 "/></g></g></g><g fill="#000000" fill-opacity="1"><g transform="translate(256.738575, 48.370048)"><g><path d="M 14.671875 -7.84375 L 15.078125 -9.5 C 15.367188 -10.644531 15.421875 -11.460938 15.234375 -11.953125 C 15.054688 -12.453125 14.617188 -12.789062 13.921875 -12.96875 C 13.179688 -13.15625 12.25 -12.925781 11.125 -12.28125 C 11.019531 -12.21875 10.941406 -12.171875 10.890625 -12.140625 C 10.847656 -12.117188 10.773438 -12.078125 10.671875 -12.015625 C 9.148438 -11.160156 7.90625 -10.851562 6.9375 -11.09375 C 6.332031 -11.25 5.894531 -11.535156 5.625 -11.953125 C 5.351562 -12.378906 5.289062 -12.882812 5.4375 -13.46875 C 5.738281 -14.695312 6.847656 -15.566406 8.765625 -16.078125 C 10.679688 -16.597656 12.875 -16.550781 15.34375 -15.9375 C 17.820312 -15.320312 19.507812 -14.398438 20.40625 -13.171875 C 21.3125 -11.941406 21.507812 -10.289062 21 -8.21875 C 20.84375 -7.59375 20.625 -6.804688 20.34375 -5.859375 C 20.070312 -4.921875 19.894531 -4.273438 19.8125 -3.921875 L 19.171875 -1.359375 C 19.046875 -0.835938 18.976562 -0.457031 18.96875 -0.21875 C 18.96875 0.0195312 19.035156 0.203125 19.171875 0.328125 C 19.285156 0.453125 19.628906 0.691406 20.203125 1.046875 C 20.773438 1.410156 21.007812 1.804688 20.90625 2.234375 C 20.800781 2.660156 20.546875 3.023438 20.140625 3.328125 C 19.742188 3.640625 19.1875 3.898438 18.46875 4.109375 C 17.863281 4.273438 17.28125 4.375 16.71875 4.40625 C 16.15625 4.4375 15.648438 4.398438 15.203125 4.296875 C 14.554688 4.128906 14 3.632812 13.53125 2.8125 C 13.070312 2 12.804688 1.585938 12.734375 1.578125 C 12.671875 1.554688 12.484375 1.609375 12.171875 1.734375 C 10.378906 2.492188 8.617188 2.660156 6.890625 2.234375 C 5.015625 1.773438 3.632812 0.90625 2.75 -0.375 C 1.875 -1.664062 1.644531 -3.148438 2.0625 -4.828125 C 2.53125 -6.722656 3.613281 -8.015625 5.3125 -8.703125 C 7.007812 -9.398438 9.15625 -9.425781 11.75 -8.78125 C 12.15625 -8.675781 12.601562 -8.546875 13.09375 -8.390625 C 13.582031 -8.234375 14.109375 -8.050781 14.671875 -7.84375 Z M 13.328125 -2.5 L 14.015625 -5.28125 C 13.804688 -5.40625 13.585938 -5.507812 13.359375 -5.59375 C 13.140625 -5.675781 12.882812 -5.753906 12.59375 -5.828125 C 11.519531 -6.085938 10.632812 -6.046875 9.9375 -5.703125 C 9.25 -5.359375 8.796875 -4.726562 8.578125 -3.8125 C 8.378906 -3.03125 8.4375 -2.363281 8.75 -1.8125 C 9.070312 -1.257812 9.597656 -0.894531 10.328125 -0.71875 C 11.140625 -0.507812 11.789062 -0.550781 12.28125 -0.84375 C 12.769531 -1.132812 13.117188 -1.6875 13.328125 -2.5 Z M 13.328125 -2.5 "/></g></g></g><g fill="#000000" fill-opacity="1"><g transform="translate(276.146177, 53.128187)"><g><path d="M 13.40625 -13.125 L 12.21875 -9.09375 C 12.144531 -8.875 12.125 -8.722656 12.15625 -8.640625 C 12.1875 -8.554688 12.253906 -8.5 12.359375 -8.46875 C 12.453125 -8.445312 12.570312 -8.460938 12.71875 -8.515625 C 12.875 -8.578125 13.148438 -8.695312 13.546875 -8.875 L 16.3125 -10.234375 C 16.707031 -10.429688 16.988281 -10.59375 17.15625 -10.71875 C 17.320312 -10.851562 17.425781 -11 17.46875 -11.15625 C 17.519531 -11.332031 17.5 -11.613281 17.40625 -12 C 17.320312 -12.394531 17.304688 -12.671875 17.359375 -12.828125 C 17.492188 -13.304688 17.929688 -13.554688 18.671875 -13.578125 C 19.421875 -13.609375 20.519531 -13.410156 21.96875 -12.984375 C 23.289062 -12.585938 24.203125 -12.175781 24.703125 -11.75 C 25.210938 -11.320312 25.382812 -10.820312 25.21875 -10.25 C 25.132812 -9.96875 25 -9.757812 24.8125 -9.625 C 24.632812 -9.488281 24.441406 -9.425781 24.234375 -9.4375 L 22.6875 -9.640625 C 22.632812 -9.648438 22.5625 -9.660156 22.46875 -9.671875 C 21.519531 -9.796875 20.503906 -9.585938 19.421875 -9.046875 L 18.25 -8.421875 C 18.132812 -8.367188 17.988281 -8.300781 17.8125 -8.21875 C 17.457031 -8.039062 17.265625 -7.894531 17.234375 -7.78125 C 17.191406 -7.65625 17.25 -7.363281 17.40625 -6.90625 C 17.5625 -6.445312 17.820312 -5.8125 18.1875 -5 C 18.84375 -3.53125 19.476562 -2.15625 20.09375 -0.875 C 20.707031 0.394531 21.210938 1.394531 21.609375 2.125 C 22.046875 2.882812 22.65625 3.503906 23.4375 3.984375 C 23.539062 4.046875 23.617188 4.085938 23.671875 4.109375 C 23.910156 4.316406 24.082031 4.53125 24.1875 4.75 C 24.289062 4.976562 24.304688 5.21875 24.234375 5.46875 C 24.054688 6.082031 23.597656 6.40625 22.859375 6.4375 C 22.128906 6.46875 20.765625 6.1875 18.765625 5.59375 L 17.96875 5.359375 C 17.164062 5.117188 16.597656 4.84375 16.265625 4.53125 C 15.929688 4.226562 15.609375 3.738281 15.296875 3.0625 C 14.597656 1.550781 13.832031 -0.222656 13 -2.265625 C 12.175781 -4.316406 11.675781 -5.367188 11.5 -5.421875 C 11.414062 -5.453125 11.34375 -5.429688 11.28125 -5.359375 C 11.226562 -5.285156 11.164062 -5.128906 11.09375 -4.890625 L 10.65625 -3.453125 C 10.351562 -2.429688 10.171875 -1.695312 10.109375 -1.25 C 10.046875 -0.8125 10.078125 -0.5 10.203125 -0.3125 C 10.296875 -0.195312 10.460938 -0.03125 10.703125 0.1875 C 11.328125 0.738281 11.5625 1.28125 11.40625 1.8125 C 11.226562 2.414062 10.738281 2.734375 9.9375 2.765625 C 9.132812 2.796875 7.769531 2.523438 5.84375 1.953125 C 3.9375 1.390625 2.65625 0.875 2 0.40625 C 1.351562 -0.0507812 1.117188 -0.582031 1.296875 -1.1875 C 1.441406 -1.6875 1.847656 -2.007812 2.515625 -2.15625 C 3.179688 -2.300781 3.554688 -2.40625 3.640625 -2.46875 C 3.804688 -2.613281 4.035156 -3.078125 4.328125 -3.859375 C 4.628906 -4.648438 5.222656 -6.535156 6.109375 -9.515625 L 7.28125 -13.484375 C 8.050781 -16.097656 8.53125 -17.851562 8.71875 -18.75 C 8.914062 -19.65625 8.96875 -20.226562 8.875 -20.46875 C 8.820312 -20.613281 8.488281 -20.890625 7.875 -21.296875 C 7.269531 -21.710938 7.050781 -22.195312 7.21875 -22.75 C 7.300781 -23.019531 7.488281 -23.238281 7.78125 -23.40625 C 8.082031 -23.570312 8.507812 -23.6875 9.0625 -23.75 C 10.300781 -23.945312 11.476562 -24.035156 12.59375 -24.015625 C 13.71875 -23.992188 14.640625 -23.875 15.359375 -23.65625 C 15.859375 -23.507812 16.148438 -23.289062 16.234375 -23 C 16.328125 -22.71875 16.257812 -22.191406 16.03125 -21.421875 C 15.957031 -21.148438 15.617188 -20.09375 15.015625 -18.25 C 14.410156 -16.40625 13.875 -14.695312 13.40625 -13.125 Z M 13.40625 -13.125 "/></g></g></g></g></g></g></g></svg>