<svg xmlns="http://www.w3.org/2000/svg" xmlns:xlink="http://www.w3.org/1999/xlink" width="794" zoomAndPan="magnify" viewBox="0 0 595.5 842.249979" height="1123" preserveAspectRatio="xMidYMid meet" version="1.0"><defs><clipPath id="da8a06c7df"><path d="M 0.390625 0.296875 L 448.789062 0.296875 L 448.789062 433.351562 L 0.390625 433.351562 Z M 0.390625 0.296875 " clip-rule="nonzero"/></clipPath><clipPath id="abb250153e"><path d="M 0.480469 0.296875 L 448.789062 0.296875 L 448.789062 433.351562 L 0.480469 433.351562 Z M 0.480469 0.296875 " clip-rule="nonzero"/></clipPath><clipPath id="c3ae896ddd"><path d="M 56 47 L 397.898438 47 L 397.898438 388.964844 L 56 388.964844 Z M 56 47 " clip-rule="nonzero"/></clipPath><clipPath id="520749789d"><path d="M 50.542969 41.609375 L 392 41.609375 L 392 383 L 50.542969 383 Z M 50.542969 41.609375 " clip-rule="nonzero"/></clipPath><clipPath id="589cc00480"><rect x="0" width="449" y="0" height="434"/></clipPath><clipPath id="a423bd9ecc"><rect x="0" width="449" y="0" height="434"/></clipPath></defs><g transform="matrix(1, 0, 0, 1, 73, 204)"><g clip-path="url(#a423bd9ecc)"><g clip-path="url(#da8a06c7df)"><g transform="matrix(1, 0, 0, 1, -0.000000000000014211, 0)"><g clip-path="url(#589cc00480)"><g clip-path="url(#abb250153e)"><path fill="#237c9d" d="M 224.5 0.363281 L 252.808594 18.359375 L 285.082031 8.425781 L 307.320312 33.144531 L 341.167969 32.007812 L 355.695312 61.625 L 388.601562 69.367188 L 394.335938 101.679688 L 423.863281 117.734375 L 420.382812 150.34375 L 444.339844 173.515625 L 431.902344 204.007812 L 448.515625 232.578125 L 428.039062 258.6875 L 436.074219 290.539062 L 409.078125 310.332031 L 407.941406 343.101562 L 376.429688 355.113281 L 366.203125 386.367188 L 332.515625 389.699219 L 313.957031 417.125 L 280.585938 411.539062 L 255.074219 433.097656 L 224.5 419 L 193.925781 433.097656 L 168.414062 411.539062 L 135.042969 417.125 L 116.488281 389.699219 L 82.796875 386.367188 L 72.570312 355.113281 L 41.0625 343.101562 L 39.921875 310.332031 L 12.929688 290.539062 L 20.960938 258.6875 L 0.488281 232.578125 L 17.097656 204.007812 L 4.660156 173.515625 L 28.617188 150.34375 L 25.136719 117.734375 L 54.664062 101.679688 L 60.402344 69.367188 L 93.304688 61.625 L 107.835938 32.007812 L 141.679688 33.144531 L 163.921875 8.425781 L 196.195312 18.359375 Z M 224.5 0.363281 " fill-opacity="1" fill-rule="evenodd"/></g><g clip-path="url(#c3ae896ddd)"><path fill="#cccccc" d="M 282.117188 78.800781 L 288.503906 81.28125 L 288.429688 81.507812 C 291.132812 82.707031 293.835938 83.984375 296.46875 85.339844 C 294.964844 82.105469 295.039062 78.273438 296.917969 74.96875 C 300.074219 69.484375 307.136719 67.605469 312.621094 70.761719 C 351.992188 93.527344 380.246094 130.269531 392.042969 174.222656 C 403.761719 218.105469 397.75 264.3125 375.058594 303.535156 C 373.03125 307.140625 369.273438 309.394531 365.066406 309.394531 C 363.113281 309.394531 361.160156 308.867188 359.355469 307.816406 C 356.050781 305.9375 354.023438 302.632812 353.722656 299.027344 C 341.925781 317.359375 326.296875 332.988281 307.964844 344.785156 C 311.570312 345.085938 314.875 347.113281 316.828125 350.417969 C 319.984375 355.902344 318.105469 362.890625 312.621094 366.046875 C 286.699219 381 257.546875 388.964844 227.644531 388.964844 C 212.617188 388.964844 197.738281 386.933594 183.238281 383.105469 C 139.28125 371.308594 102.464844 343.054688 79.773438 303.683594 C 76.617188 298.199219 78.496094 291.210938 83.90625 288.054688 C 87.210938 286.101562 91.121094 286.027344 94.351562 287.453125 C 84.507812 268.671875 78.570312 247.558594 77.59375 225.167969 C 75.492188 228.023438 72.183594 229.902344 68.351562 229.902344 C 62.042969 229.902344 56.933594 224.714844 56.933594 218.40625 C 56.933594 124.410156 133.347656 47.921875 227.34375 47.921875 C 233.652344 47.921875 238.839844 53.105469 238.839844 59.414062 C 238.839844 63.171875 236.960938 66.554688 234.105469 68.65625 C 251.011719 69.410156 267.089844 72.941406 282.117188 78.800781 Z M 282.117188 78.800781 " fill-opacity="1" fill-rule="evenodd"/></g><g clip-path="url(#520749789d)"><path fill="#e6e6e6" d="M 275.730469 72.488281 L 282.117188 74.96875 L 282.042969 75.121094 C 284.746094 76.320312 287.453125 77.597656 290.082031 79.027344 C 288.652344 75.796875 288.730469 71.886719 290.605469 68.582031 C 293.761719 63.097656 300.75 61.21875 306.234375 64.375 C 345.683594 87.140625 373.933594 123.957031 385.65625 167.914062 C 397.375 211.792969 391.363281 257.925781 368.671875 297.148438 C 366.71875 300.753906 362.886719 303.007812 358.753906 303.007812 C 356.726562 303.007812 354.773438 302.480469 353.046875 301.503906 C 349.664062 299.550781 347.710938 296.246094 347.335938 292.714844 C 335.613281 311.046875 319.984375 326.675781 301.652344 338.398438 C 305.183594 338.699219 308.566406 340.726562 310.441406 344.03125 C 313.675781 349.519531 311.71875 356.582031 306.234375 359.734375 C 280.3125 374.613281 251.160156 382.578125 221.257812 382.578125 C 206.304688 382.578125 191.351562 380.625 176.851562 376.71875 C 132.894531 364.921875 96.152344 336.746094 73.386719 297.296875 C 70.230469 291.8125 72.109375 284.824219 77.59375 281.667969 C 80.902344 279.789062 84.734375 279.714844 87.964844 281.144531 C 78.195312 262.359375 72.261719 241.171875 71.207031 218.78125 C 69.179688 221.636719 65.800781 223.515625 61.96875 223.515625 C 55.65625 223.515625 50.546875 218.40625 50.546875 212.09375 C 50.546875 118.097656 127.035156 41.609375 221.03125 41.609375 C 227.34375 41.609375 232.453125 46.71875 232.453125 53.027344 C 232.453125 56.785156 230.574219 60.167969 227.792969 62.269531 C 244.625 63.023438 260.777344 66.554688 275.730469 72.488281 Z M 275.730469 72.488281 " fill-opacity="1" fill-rule="evenodd"/></g><path fill="#dd2d4a" d="M 221.03125 354.328125 C 142.511719 354.328125 78.722656 290.535156 78.722656 212.019531 C 78.722656 133.574219 142.511719 69.785156 221.03125 69.785156 C 299.472656 69.785156 363.265625 133.574219 363.265625 212.019531 C 363.265625 290.535156 299.472656 354.328125 221.03125 354.328125 Z M 221.03125 354.328125 " fill-opacity="1" fill-rule="evenodd"/><path fill="#fefae0" d="M 221.03125 332.835938 C 154.382812 332.835938 100.210938 278.664062 100.210938 212.09375 C 100.210938 184.820312 109.078125 159.195312 125.757812 137.707031 C 126.433594 136.882812 127.484375 136.355469 128.539062 136.28125 C 129.664062 136.28125 130.714844 136.65625 131.46875 137.40625 L 295.640625 301.582031 C 296.46875 302.332031 296.84375 303.382812 296.769531 304.511719 C 296.769531 305.636719 296.167969 306.613281 295.339844 307.289062 C 273.925781 323.972656 248.230469 332.835938 221.03125 332.835938 Z M 313.222656 287.832031 C 312.246094 287.832031 311.269531 287.453125 310.519531 286.703125 L 146.34375 122.53125 C 145.59375 121.777344 145.21875 120.726562 145.21875 119.601562 C 145.292969 118.472656 145.894531 117.496094 146.722656 116.820312 C 168.132812 100.066406 193.832031 91.273438 221.03125 91.273438 C 287.675781 91.273438 341.851562 145.445312 341.851562 212.019531 C 341.851562 239.292969 332.984375 264.914062 316.304688 286.328125 C 315.628906 287.230469 314.574219 287.753906 313.449219 287.832031 C 313.375 287.832031 313.296875 287.832031 313.222656 287.832031 Z M 313.222656 287.832031 " fill-opacity="1" fill-rule="evenodd"/><path fill="#227c9d" d="M 202.472656 304.136719 C 199.316406 304.136719 196.386719 302.933594 194.132812 300.679688 L 132.371094 238.917969 C 127.785156 234.332031 127.785156 226.820312 132.371094 222.238281 L 171.667969 182.941406 C 173.167969 181.4375 175.574219 181.4375 177.074219 182.941406 C 178.578125 184.441406 251.609375 254.46875 250.109375 256.046875 C 251.609375 257.476562 251.609375 259.878906 250.109375 261.457031 L 210.886719 300.679688 C 208.632812 302.933594 205.628906 304.136719 202.472656 304.136719 Z M 267.539062 242.296875 C 266.5625 242.222656 265.660156 241.847656 264.984375 241.171875 C 240.792969 216.976562 216.371094 192.105469 191.878906 168.0625 C 190.449219 166.558594 190.449219 164.15625 191.878906 162.652344 L 231.175781 123.355469 C 235.757812 118.773438 243.269531 118.773438 247.855469 123.355469 L 309.691406 185.195312 C 311.871094 187.449219 313.148438 190.378906 313.148438 193.535156 C 313.148438 196.691406 311.871094 199.695312 309.691406 201.875 L 270.394531 241.171875 C 269.644531 241.921875 268.667969 242.296875 267.691406 242.296875 C 267.691406 242.296875 267.617188 242.296875 267.539062 242.296875 Z M 267.539062 242.296875 " fill-opacity="1" fill-rule="evenodd"/><path fill="#195b72" d="M 277.234375 183.765625 C 276.257812 183.765625 275.277344 183.390625 274.527344 182.640625 L 250.410156 158.519531 C 249.355469 157.46875 248.980469 155.890625 249.507812 154.464844 L 257.546875 132.972656 L 300.300781 175.800781 L 278.585938 183.542969 C 278.132812 183.691406 277.683594 183.765625 277.234375 183.765625 Z M 277.234375 183.765625 " fill-opacity="1" fill-rule="evenodd"/><path fill="#ffffff" d="M 190.75 272.203125 C 189.773438 272.203125 188.796875 271.828125 188.046875 271.074219 L 162.046875 245.003906 C 160.546875 243.574219 160.546875 241.171875 162.046875 239.667969 C 163.476562 238.089844 165.957031 238.164062 167.457031 239.667969 L 193.457031 265.664062 C 194.957031 267.167969 194.957031 269.574219 193.457031 271.074219 C 192.703125 271.828125 191.726562 272.203125 190.75 272.203125 Z M 190.75 272.203125 " fill-opacity="1" fill-rule="evenodd"/><path fill="#dd2d4a" d="M 61.96875 215.851562 C 59.863281 215.851562 58.210938 214.195312 58.210938 212.09375 C 58.210938 122.230469 131.242188 49.199219 221.03125 49.199219 C 223.132812 49.199219 224.789062 50.925781 224.789062 53.027344 C 224.789062 55.132812 223.132812 56.859375 221.03125 56.859375 C 135.449219 56.859375 65.800781 126.511719 65.800781 212.019531 C 65.800781 214.195312 64.144531 215.851562 61.96875 215.851562 Z M 61.96875 215.851562 " fill-opacity="1" fill-rule="evenodd"/><path fill="#dd2d4a" d="M 358.753906 295.34375 C 358.078125 295.34375 357.402344 295.195312 356.800781 294.894531 C 355 293.839844 354.398438 291.511719 355.449219 289.632812 C 398.203125 215.550781 372.730469 120.425781 298.648438 77.597656 C 296.769531 76.546875 296.167969 74.21875 297.21875 72.414062 C 298.269531 70.609375 300.601562 69.933594 302.402344 70.988281 C 340.121094 92.777344 367.019531 127.863281 378.292969 169.867188 C 389.5625 211.867188 383.777344 255.746094 361.988281 293.464844 C 361.308594 294.667969 360.03125 295.34375 358.753906 295.34375 Z M 358.753906 295.34375 " fill-opacity="1" fill-rule="evenodd"/><path fill="#dd2d4a" d="M 221.257812 374.988281 C 207.128906 374.988281 192.855469 373.109375 178.878906 369.355469 C 136.878906 358.082031 101.714844 331.183594 80 293.464844 C 78.949219 291.664062 79.546875 289.332031 81.425781 288.28125 C 83.230469 287.230469 85.558594 287.832031 86.613281 289.710938 C 129.363281 363.792969 224.488281 389.265625 298.648438 346.511719 C 300.449219 345.386719 302.777344 346.0625 303.832031 347.863281 C 304.957031 349.742188 304.28125 352.070312 302.480469 353.125 C 277.382812 367.550781 249.507812 374.988281 221.257812 374.988281 Z M 221.257812 374.988281 " fill-opacity="1" fill-rule="evenodd"/><path fill="#c72943" d="M 87.136719 215.023438 C 87.136719 136.582031 151.003906 72.714844 229.445312 72.714844 C 244.398438 72.714844 258.898438 75.042969 272.425781 79.402344 C 256.496094 73.164062 239.136719 69.785156 221.03125 69.785156 C 142.511719 69.785156 78.722656 133.574219 78.722656 212.019531 C 78.722656 275.507812 120.5 329.457031 177.976562 347.714844 C 124.929688 327.050781 87.136719 275.359375 87.136719 215.023438 Z M 87.136719 215.023438 " fill-opacity="1" fill-rule="evenodd"/></g></g></g></g></g></svg>